<?xml version="1.0" encoding="UTF-8" standalone="no"?>
<!-- Created with Inkscape (http://www.inkscape.org/) -->

<svg
   width="5.212141mm"
   height="6.8203321mm"
   viewBox="0 0 5.212141 6.8203321"
   version="1.1"
   id="svg1"
   inkscape:version="1.3.2 (091e20e, 2023-11-25)"
   sodipodi:docname="no2.svg"
   xmlns:inkscape="http://www.inkscape.org/namespaces/inkscape"
   xmlns:sodipodi="http://sodipodi.sourceforge.net/DTD/sodipodi-0.dtd"
   xmlns="http://www.w3.org/2000/svg"
   xmlns:svg="http://www.w3.org/2000/svg">
  <sodipodi:namedview
     id="namedview1"
     pagecolor="#ffffff"
     bordercolor="#666666"
     borderopacity="1.0"
     inkscape:showpageshadow="2"
     inkscape:pageopacity="0.0"
     inkscape:pagecheckerboard="0"
     inkscape:deskcolor="#d1d1d1"
     inkscape:document-units="mm"
     inkscape:zoom="0.84100811"
     inkscape:cx="-28.53718"
     inkscape:cy="4.1616721"
     inkscape:window-width="1392"
     inkscape:window-height="1212"
     inkscape:window-x="0"
     inkscape:window-y="25"
     inkscape:window-maximized="0"
     inkscape:current-layer="layer1" />
  <defs
     id="defs1">
    <clipPath
       clipPathUnits="userSpaceOnUse"
       id="clipPath3">
      <g
         id="g304"
         transform="matrix(3.1249939,0,0,3.1249961,761.67877,-296.34931)">
        <g
           id="g303">
          <rect
             x="4.9524903e-07"
             y="4.2492065e-08"
             width="75.590561"
             height="485.66931"
             id="rect3"
             style="stroke-width:0.0809669" />
        </g>
      </g>
    </clipPath>
  </defs>
  <g
     inkscape:label="Layer 1"
     inkscape:groupmode="layer"
     id="layer1"
     transform="translate(-102.39375,-144.72708)">
    <g
       transform="matrix(0.08466683,0,0,0.08466677,25.010563,97.32988)"
       id="g180"
       clip-path="url(#clipPath3)"
       style="clip-rule:evenodd;fill-rule:evenodd;stroke-linecap:round;stroke-linejoin:round">
                    <g
   transform="matrix(4.16667,0,0,4.16667,-37.4279,500.272)"
   id="g122">
                        <circle
   cx="229.02901"
   cy="32.929001"
   r="0.69300002"
   id="circle121" />

                    </g>

                    <g
   transform="matrix(4.16667,0,0,4.16667,-29.5312,500.272)"
   id="g123">
                        <circle
   cx="229.02901"
   cy="32.929001"
   r="0.69300002"
   id="circle122" />

                    </g>

                    <g
   transform="matrix(4.16667,0,0,4.16667,-37.4279,491.97)"
   id="g124">
                        <circle
   cx="229.02901"
   cy="32.929001"
   r="0.69300002"
   id="circle123" />

                    </g>

                    <g
   transform="matrix(4.16667,0,0,4.16667,-29.5312,491.97)"
   id="g125">
                        <circle
   cx="229.02901"
   cy="32.929001"
   r="0.69300002"
   id="circle124" />

                    </g>

                    <g
   transform="matrix(4.16667,0,0,4.16667,-29.5312,483.667)"
   id="g126">
                        <circle
   cx="229.02901"
   cy="32.929001"
   r="0.69300002"
   id="circle125" />

                    </g>

                    <g
   transform="matrix(4.16667,0,0,4.16667,-37.4279,450.458)"
   id="g127">
                        <circle
   cx="229.02901"
   cy="32.929001"
   r="0.69300002"
   id="circle126" />

                    </g>

                    <g
   transform="matrix(4.16667,0,0,4.16667,-29.5312,450.458)"
   id="g128">
                        <circle
   cx="229.02901"
   cy="32.929001"
   r="0.69300002"
   id="circle127" />

                    </g>

                    <g
   transform="matrix(4.16667,0,0,4.16667,-37.4279,442.155)"
   id="g129">
                        <circle
   cx="229.02901"
   cy="32.929001"
   r="0.69300002"
   id="circle128" />

                    </g>

                    <g
   transform="matrix(4.16667,0,0,4.16667,-29.5312,442.155)"
   id="g130">
                        <circle
   cx="229.02901"
   cy="32.929001"
   r="0.69300002"
   id="circle129" />

                    </g>

                    <g
   transform="matrix(4.16667,0,0,4.16667,-37.4279,433.853)"
   id="g131">
                        <circle
   cx="229.02901"
   cy="32.929001"
   r="0.69300002"
   id="circle130" />

                    </g>

                    <g
   transform="matrix(4.16667,0,0,4.16667,-29.5312,433.853)"
   id="g132">
                        <circle
   cx="229.02901"
   cy="32.929001"
   r="0.69300002"
   id="circle131" />

                    </g>

                    <g
   transform="matrix(4.16667,0,0,4.16667,-29.5312,425.55)"
   id="g133">
                        <circle
   cx="229.02901"
   cy="32.929001"
   r="0.69300002"
   id="circle132" />

                    </g>

                    <g
   transform="matrix(4.16667,0,0,4.16667,-21.126,500.213)"
   id="g134">
                        <circle
   cx="229.02901"
   cy="32.929001"
   r="0.69300002"
   id="circle133" />

                    </g>

                    <g
   transform="matrix(4.16667,0,0,4.16667,-13.2292,500.213)"
   id="g135">
                        <circle
   cx="229.02901"
   cy="32.929001"
   r="0.69300002"
   id="circle134" />

                    </g>

                    <g
   transform="matrix(4.16667,0,0,4.16667,-5.3325,500.213)"
   id="g136">
                        <circle
   cx="229.02901"
   cy="32.929001"
   r="0.69300002"
   id="circle135" />

                    </g>

                    <g
   transform="matrix(4.16667,0,0,4.16667,2.56423,500.213)"
   id="g137">
                        <circle
   cx="229.02901"
   cy="32.929001"
   r="0.69300002"
   id="circle136" />

                    </g>

                    <g
   transform="matrix(4.16667,0,0,4.16667,10.461,500.213)"
   id="g138">
                        <circle
   cx="229.02901"
   cy="32.929001"
   r="0.69300002"
   id="circle137" />

                    </g>

                    <g
   transform="matrix(4.16667,0,0,4.16667,18.3577,500.213)"
   id="g139">
                        <circle
   cx="229.02901"
   cy="32.929001"
   r="0.69300002"
   id="circle138" />

                    </g>

                    <g
   transform="matrix(4.16667,0,0,4.16667,-21.126,491.911)"
   id="g140">
                        <circle
   cx="229.02901"
   cy="32.929001"
   r="0.69300002"
   id="circle139" />

                    </g>

                    <g
   transform="matrix(4.16667,0,0,4.16667,-13.2292,491.911)"
   id="g141">
                        <circle
   cx="229.02901"
   cy="32.929001"
   r="0.69300002"
   id="circle140" />

                    </g>

                    <g
   transform="matrix(4.16667,0,0,4.16667,-5.3325,491.911)"
   id="g142">
                        <circle
   cx="229.02901"
   cy="32.929001"
   r="0.69300002"
   id="circle141" />

                    </g>

                    <g
   transform="matrix(4.16667,0,0,4.16667,2.56423,491.911)"
   id="g143">
                        <circle
   cx="229.02901"
   cy="32.929001"
   r="0.69300002"
   id="circle142" />

                    </g>

                    <g
   transform="matrix(4.16667,0,0,4.16667,10.461,491.911)"
   id="g144">
                        <circle
   cx="229.02901"
   cy="32.929001"
   r="0.69300002"
   id="circle143" />

                    </g>

                    <g
   transform="matrix(4.16667,0,0,4.16667,18.3577,491.911)"
   id="g145">
                        <circle
   cx="229.02901"
   cy="32.929001"
   r="0.69300002"
   id="circle144" />

                    </g>

                    <g
   transform="matrix(4.16667,0,0,4.16667,-21.126,483.609)"
   id="g146">
                        <circle
   cx="229.02901"
   cy="32.929001"
   r="0.69300002"
   id="circle145" />

                    </g>

                    <g
   transform="matrix(4.16667,0,0,4.16667,-13.2292,483.609)"
   id="g147">
                        <circle
   cx="229.02901"
   cy="32.929001"
   r="0.69300002"
   id="circle146" />

                    </g>

                    <g
   transform="matrix(4.16667,0,0,4.16667,-5.3325,483.609)"
   id="g148">
                        <circle
   cx="229.02901"
   cy="32.929001"
   r="0.69300002"
   id="circle147" />

                    </g>

                    <g
   transform="matrix(4.16667,0,0,4.16667,-21.126,475.306)"
   id="g149">
                        <circle
   cx="229.02901"
   cy="32.929001"
   r="0.69300002"
   id="circle148" />

                    </g>

                    <g
   transform="matrix(4.16667,0,0,4.16667,-13.2292,475.306)"
   id="g150">
                        <circle
   cx="229.02901"
   cy="32.929001"
   r="0.69300002"
   id="circle149" />

                    </g>

                    <g
   transform="matrix(4.16667,0,0,4.16667,-5.3325,475.306)"
   id="g151">
                        <circle
   cx="229.02901"
   cy="32.929001"
   r="0.69300002"
   id="circle150" />

                    </g>

                    <g
   transform="matrix(4.16667,0,0,4.16667,2.56423,475.306)"
   id="g152">
                        <circle
   cx="229.02901"
   cy="32.929001"
   r="0.69300002"
   id="circle151" />

                    </g>

                    <g
   transform="matrix(4.16667,0,0,4.16667,-13.2292,467.004)"
   id="g153">
                        <circle
   cx="229.02901"
   cy="32.929001"
   r="0.69300002"
   id="circle152" />

                    </g>

                    <g
   transform="matrix(4.16667,0,0,4.16667,-5.3325,467.004)"
   id="g154">
                        <circle
   cx="229.02901"
   cy="32.929001"
   r="0.69300002"
   id="circle153" />

                    </g>

                    <g
   transform="matrix(4.16667,0,0,4.16667,2.56423,467.004)"
   id="g155">
                        <circle
   cx="229.02901"
   cy="32.929001"
   r="0.69300002"
   id="circle154" />

                    </g>

                    <g
   transform="matrix(4.16667,0,0,4.16667,10.461,467.004)"
   id="g156">
                        <circle
   cx="229.02901"
   cy="32.929001"
   r="0.69300002"
   id="circle155" />

                    </g>

                    <g
   transform="matrix(4.16667,0,0,4.16667,-5.3325,458.701)"
   id="g157">
                        <circle
   cx="229.02901"
   cy="32.929001"
   r="0.69300002"
   id="circle156" />

                    </g>

                    <g
   transform="matrix(4.16667,0,0,4.16667,2.56423,458.701)"
   id="g158">
                        <circle
   cx="229.02901"
   cy="32.929001"
   r="0.69300002"
   id="circle157" />

                    </g>

                    <g
   transform="matrix(4.16667,0,0,4.16667,10.461,458.701)"
   id="g159">
                        <circle
   cx="229.02901"
   cy="32.929001"
   r="0.69300002"
   id="circle158" />

                    </g>

                    <g
   transform="matrix(4.16667,0,0,4.16667,18.3577,458.701)"
   id="g160">
                        <circle
   cx="229.02901"
   cy="32.929001"
   r="0.69300002"
   id="circle159" />

                    </g>

                    <g
   transform="matrix(4.16667,0,0,4.16667,-21.126,450.399)"
   id="g161">
                        <circle
   cx="229.02901"
   cy="32.929001"
   r="0.69300002"
   id="circle160" />

                    </g>

                    <g
   transform="matrix(4.16667,0,0,4.16667,2.56423,450.399)"
   id="g162">
                        <circle
   cx="229.02901"
   cy="32.929001"
   r="0.69300002"
   id="circle161" />

                    </g>

                    <g
   transform="matrix(4.16667,0,0,4.16667,10.461,450.399)"
   id="g163">
                        <circle
   cx="229.02901"
   cy="32.929001"
   r="0.69300002"
   id="circle162" />

                    </g>

                    <g
   transform="matrix(4.16667,0,0,4.16667,18.3577,450.399)"
   id="g164">
                        <circle
   cx="229.02901"
   cy="32.929001"
   r="0.69300002"
   id="circle163" />

                    </g>

                    <g
   transform="matrix(4.16667,0,0,4.16667,-21.126,442.096)"
   id="g165">
                        <circle
   cx="229.02901"
   cy="32.929001"
   r="0.69300002"
   id="circle164" />

                    </g>

                    <g
   transform="matrix(4.16667,0,0,4.16667,2.56423,442.096)"
   id="g166">
                        <circle
   cx="229.02901"
   cy="32.929001"
   r="0.69300002"
   id="circle165" />

                    </g>

                    <g
   transform="matrix(4.16667,0,0,4.16667,10.461,442.096)"
   id="g167">
                        <circle
   cx="229.02901"
   cy="32.929001"
   r="0.69300002"
   id="circle166" />

                    </g>

                    <g
   transform="matrix(4.16667,0,0,4.16667,18.3577,442.096)"
   id="g168">
                        <circle
   cx="229.02901"
   cy="32.929001"
   r="0.69300002"
   id="circle167" />

                    </g>

                    <g
   transform="matrix(4.16667,0,0,4.16667,-21.126,433.794)"
   id="g169">
                        <circle
   cx="229.02901"
   cy="32.929001"
   r="0.69300002"
   id="circle168" />

                    </g>

                    <g
   transform="matrix(4.16667,0,0,4.16667,-13.2292,433.794)"
   id="g170">
                        <circle
   cx="229.02901"
   cy="32.929001"
   r="0.69300002"
   id="circle169" />

                    </g>

                    <g
   transform="matrix(4.16667,0,0,4.16667,-5.3325,433.794)"
   id="g171">
                        <circle
   cx="229.02901"
   cy="32.929001"
   r="0.69300002"
   id="circle170" />

                    </g>

                    <g
   transform="matrix(4.16667,0,0,4.16667,2.56423,433.794)"
   id="g172">
                        <circle
   cx="229.02901"
   cy="32.929001"
   r="0.69300002"
   id="circle171" />

                    </g>

                    <g
   transform="matrix(4.16667,0,0,4.16667,10.461,433.794)"
   id="g173">
                        <circle
   cx="229.02901"
   cy="32.929001"
   r="0.69300002"
   id="circle172" />

                    </g>

                    <g
   transform="matrix(4.16667,0,0,4.16667,18.3577,433.794)"
   id="g174">
                        <circle
   cx="229.02901"
   cy="32.929001"
   r="0.69300002"
   id="circle173" />

                    </g>

                    <g
   transform="matrix(4.16667,0,0,4.16667,-21.126,425.492)"
   id="g175">
                        <circle
   cx="229.02901"
   cy="32.929001"
   r="0.69300002"
   id="circle174" />

                    </g>

                    <g
   transform="matrix(4.16667,0,0,4.16667,-13.2292,425.492)"
   id="g176">
                        <circle
   cx="229.02901"
   cy="32.929001"
   r="0.69300002"
   id="circle175" />

                    </g>

                    <g
   transform="matrix(4.16667,0,0,4.16667,-5.3325,425.492)"
   id="g177">
                        <circle
   cx="229.02901"
   cy="32.929001"
   r="0.69300002"
   id="circle176" />

                    </g>

                    <g
   transform="matrix(4.16667,0,0,4.16667,2.56423,425.492)"
   id="g178">
                        <circle
   cx="229.02901"
   cy="32.929001"
   r="0.69300002"
   id="circle177" />

                    </g>

                    <g
   transform="matrix(4.16667,0,0,4.16667,10.461,425.492)"
   id="g179">
                        <circle
   cx="229.02901"
   cy="32.929001"
   r="0.69300002"
   id="circle178" />

                    </g>

                </g>
  </g>
</svg>
