<?xml version="1.0" encoding="UTF-8" standalone="no"?>
<!-- Created with Inkscape (http://www.inkscape.org/) -->

<svg
   width="5.880713mm"
   height="6.8203321mm"
   viewBox="0 0 5.880713 6.8203321"
   version="1.1"
   id="svg1"
   inkscape:version="1.3.2 (091e20e, 2023-11-25)"
   sodipodi:docname="no3.svg"
   xmlns:inkscape="http://www.inkscape.org/namespaces/inkscape"
   xmlns:sodipodi="http://sodipodi.sourceforge.net/DTD/sodipodi-0.dtd"
   xmlns="http://www.w3.org/2000/svg"
   xmlns:svg="http://www.w3.org/2000/svg">
  <sodipodi:namedview
     id="namedview1"
     pagecolor="#ffffff"
     bordercolor="#666666"
     borderopacity="1.0"
     inkscape:showpageshadow="2"
     inkscape:pageopacity="0.0"
     inkscape:pagecheckerboard="0"
     inkscape:deskcolor="#d1d1d1"
     inkscape:document-units="mm"
     inkscape:zoom="0.29734127"
     inkscape:cx="10.089417"
     inkscape:cy="11.770986"
     inkscape:window-width="1392"
     inkscape:window-height="1212"
     inkscape:window-x="0"
     inkscape:window-y="25"
     inkscape:window-maximized="0"
     inkscape:current-layer="layer1" />
  <defs
     id="defs1">
    <clipPath
       clipPathUnits="userSpaceOnUse"
       id="clipPath304">
      <g
         id="g306"
         transform="matrix(3.1249939,0,0,3.1249961,975.02439,-180.35847)">
        <g
           id="g305">
          <rect
             x="4.9524903e-07"
             y="4.2492065e-08"
             width="75.590561"
             height="485.66931"
             id="rect304"
             style="stroke-width:0.0809669" />
        </g>
      </g>
    </clipPath>
  </defs>
  <g
     inkscape:label="Layer 1"
     inkscape:groupmode="layer"
     id="layer1"
     transform="translate(-102.12917,-144.72708)">
    <g
       transform="matrix(0.08466683,0,0,0.08466677,18.017016,97.32988)"
       id="g121"
       clip-path="url(#clipPath304)"
       style="clip-rule:evenodd;fill-rule:evenodd;stroke-linecap:round;stroke-linejoin:round">
                    <g
   transform="matrix(4.16667,0,0,4.16667,49.9446,500.272)"
   id="g64">
                        <circle
   cx="229.02901"
   cy="32.929001"
   r="0.69300002"
   id="circle63" />

                    </g>

                    <g
   transform="matrix(4.16667,0,0,4.16667,42.0479,491.97)"
   id="g65">
                        <circle
   cx="229.02901"
   cy="32.929001"
   r="0.69300002"
   id="circle64" />

                    </g>

                    <g
   transform="matrix(4.16667,0,0,4.16667,49.9446,491.97)"
   id="g66">
                        <circle
   cx="229.02901"
   cy="32.929001"
   r="0.69300002"
   id="circle65" />

                    </g>

                    <g
   transform="matrix(4.16667,0,0,4.16667,42.0479,483.667)"
   id="g67">
                        <circle
   cx="229.02901"
   cy="32.929001"
   r="0.69300002"
   id="circle66" />

                    </g>

                    <g
   transform="matrix(4.16667,0,0,4.16667,49.9446,483.667)"
   id="g68">
                        <circle
   cx="229.02901"
   cy="32.929001"
   r="0.69300002"
   id="circle67" />

                    </g>

                    <g
   transform="matrix(4.16667,0,0,4.16667,49.9446,433.853)"
   id="g69">
                        <circle
   cx="229.02901"
   cy="32.929001"
   r="0.69300002"
   id="circle68" />

                    </g>

                    <g
   transform="matrix(4.16667,0,0,4.16667,49.9446,425.55)"
   id="g70">
                        <circle
   cx="229.02901"
   cy="32.929001"
   r="0.69300002"
   id="circle69" />

                    </g>

                    <g
   transform="matrix(4.16667,0,0,4.16667,58.3498,500.213)"
   id="g71">
                        <circle
   cx="229.02901"
   cy="32.929001"
   r="0.69300002"
   id="circle70" />

                    </g>

                    <g
   transform="matrix(4.16667,0,0,4.16667,66.2466,500.213)"
   id="g72">
                        <circle
   cx="229.02901"
   cy="32.929001"
   r="0.69300002"
   id="circle71" />

                    </g>

                    <g
   transform="matrix(4.16667,0,0,4.16667,74.1433,500.213)"
   id="g73">
                        <circle
   cx="229.02901"
   cy="32.929001"
   r="0.69300002"
   id="circle72" />

                    </g>

                    <g
   transform="matrix(4.16667,0,0,4.16667,82.04,500.213)"
   id="g74">
                        <circle
   cx="229.02901"
   cy="32.929001"
   r="0.69300002"
   id="circle73" />

                    </g>

                    <g
   transform="matrix(4.16667,0,0,4.16667,89.9368,500.213)"
   id="g75">
                        <circle
   cx="229.02901"
   cy="32.929001"
   r="0.69300002"
   id="circle74" />

                    </g>

                    <g
   transform="matrix(4.16667,0,0,4.16667,58.3498,491.911)"
   id="g76">
                        <circle
   cx="229.02901"
   cy="32.929001"
   r="0.69300002"
   id="circle75" />

                    </g>

                    <g
   transform="matrix(4.16667,0,0,4.16667,66.2466,491.911)"
   id="g77">
                        <circle
   cx="229.02901"
   cy="32.929001"
   r="0.69300002"
   id="circle76" />

                    </g>

                    <g
   transform="matrix(4.16667,0,0,4.16667,74.1433,491.911)"
   id="g78">
                        <circle
   cx="229.02901"
   cy="32.929001"
   r="0.69300002"
   id="circle77" />

                    </g>

                    <g
   transform="matrix(4.16667,0,0,4.16667,82.04,491.911)"
   id="g79">
                        <circle
   cx="229.02901"
   cy="32.929001"
   r="0.69300002"
   id="circle78" />

                    </g>

                    <g
   transform="matrix(4.16667,0,0,4.16667,89.9368,491.911)"
   id="g80">
                        <circle
   cx="229.02901"
   cy="32.929001"
   r="0.69300002"
   id="circle79" />

                    </g>

                    <g
   transform="matrix(4.16667,0,0,4.16667,97.8335,491.911)"
   id="g81">
                        <circle
   cx="229.02901"
   cy="32.929001"
   r="0.69300002"
   id="circle80" />

                    </g>

                    <g
   transform="matrix(4.16667,0,0,4.16667,58.3498,483.609)"
   id="g82">
                        <circle
   cx="229.02901"
   cy="32.929001"
   r="0.69300002"
   id="circle81" />

                    </g>

                    <g
   transform="matrix(4.16667,0,0,4.16667,82.04,483.609)"
   id="g83">
                        <circle
   cx="229.02901"
   cy="32.929001"
   r="0.69300002"
   id="circle82" />

                    </g>

                    <g
   transform="matrix(4.16667,0,0,4.16667,89.9368,483.609)"
   id="g84">
                        <circle
   cx="229.02901"
   cy="32.929001"
   r="0.69300002"
   id="circle83" />

                    </g>

                    <g
   transform="matrix(4.16667,0,0,4.16667,97.8335,483.609)"
   id="g85">
                        <circle
   cx="229.02901"
   cy="32.929001"
   r="0.69300002"
   id="circle84" />

                    </g>

                    <g
   transform="matrix(4.16667,0,0,4.16667,105.73,483.667)"
   id="g86">
                        <circle
   cx="229.02901"
   cy="32.929001"
   r="0.69300002"
   id="circle85" />

                    </g>

                    <g
   transform="matrix(4.16667,0,0,4.16667,89.9368,475.306)"
   id="g87">
                        <circle
   cx="229.02901"
   cy="32.929001"
   r="0.69300002"
   id="circle86" />

                    </g>

                    <g
   transform="matrix(4.16667,0,0,4.16667,97.8335,475.306)"
   id="g88">
                        <circle
   cx="229.02901"
   cy="32.929001"
   r="0.69300002"
   id="circle87" />

                    </g>

                    <g
   transform="matrix(4.16667,0,0,4.16667,105.73,475.365)"
   id="g89">
                        <circle
   cx="229.02901"
   cy="32.929001"
   r="0.69300002"
   id="circle88" />

                    </g>

                    <g
   transform="matrix(4.16667,0,0,4.16667,58.3498,467.004)"
   id="g90">
                        <circle
   cx="229.02901"
   cy="32.929001"
   r="0.69300002"
   id="circle89" />

                    </g>

                    <g
   transform="matrix(4.16667,0,0,4.16667,66.2466,467.004)"
   id="g91">
                        <circle
   cx="229.02901"
   cy="32.929001"
   r="0.69300002"
   id="circle90" />

                    </g>

                    <g
   transform="matrix(4.16667,0,0,4.16667,74.1433,467.004)"
   id="g92">
                        <circle
   cx="229.02901"
   cy="32.929001"
   r="0.69300002"
   id="circle91" />

                    </g>

                    <g
   transform="matrix(4.16667,0,0,4.16667,82.04,467.004)"
   id="g93">
                        <circle
   cx="229.02901"
   cy="32.929001"
   r="0.69300002"
   id="circle92" />

                    </g>

                    <g
   transform="matrix(4.16667,0,0,4.16667,89.9368,467.004)"
   id="g94">
                        <circle
   cx="229.02901"
   cy="32.929001"
   r="0.69300002"
   id="circle93" />

                    </g>

                    <g
   transform="matrix(4.16667,0,0,4.16667,97.8335,467.004)"
   id="g95">
                        <circle
   cx="229.02901"
   cy="32.929001"
   r="0.69300002"
   id="circle94" />

                    </g>

                    <g
   transform="matrix(4.16667,0,0,4.16667,105.73,467.063)"
   id="g96">
                        <circle
   cx="229.02901"
   cy="32.929001"
   r="0.69300002"
   id="circle95" />

                    </g>

                    <g
   transform="matrix(4.16667,0,0,4.16667,58.3498,458.701)"
   id="g97">
                        <circle
   cx="229.02901"
   cy="32.929001"
   r="0.69300002"
   id="circle96" />

                    </g>

                    <g
   transform="matrix(4.16667,0,0,4.16667,66.2466,458.701)"
   id="g98">
                        <circle
   cx="229.02901"
   cy="32.929001"
   r="0.69300002"
   id="circle97" />

                    </g>

                    <g
   transform="matrix(4.16667,0,0,4.16667,74.1433,458.701)"
   id="g99">
                        <circle
   cx="229.02901"
   cy="32.929001"
   r="0.69300002"
   id="circle98" />

                    </g>

                    <g
   transform="matrix(4.16667,0,0,4.16667,82.04,458.701)"
   id="g100">
                        <circle
   cx="229.02901"
   cy="32.929001"
   r="0.69300002"
   id="circle99" />

                    </g>

                    <g
   transform="matrix(4.16667,0,0,4.16667,89.9368,458.701)"
   id="g101">
                        <circle
   cx="229.02901"
   cy="32.929001"
   r="0.69300002"
   id="circle100" />

                    </g>

                    <g
   transform="matrix(4.16667,0,0,4.16667,97.8335,458.701)"
   id="g102">
                        <circle
   cx="229.02901"
   cy="32.929001"
   r="0.69300002"
   id="circle101" />

                    </g>

                    <g
   transform="matrix(4.16667,0,0,4.16667,66.2466,450.399)"
   id="g103">
                        <circle
   cx="229.02901"
   cy="32.929001"
   r="0.69300002"
   id="circle102" />

                    </g>

                    <g
   transform="matrix(4.16667,0,0,4.16667,74.1433,450.399)"
   id="g104">
                        <circle
   cx="229.02901"
   cy="32.929001"
   r="0.69300002"
   id="circle103" />

                    </g>

                    <g
   transform="matrix(4.16667,0,0,4.16667,82.04,450.399)"
   id="g105">
                        <circle
   cx="229.02901"
   cy="32.929001"
   r="0.69300002"
   id="circle104" />

                    </g>

                    <g
   transform="matrix(4.16667,0,0,4.16667,74.1433,442.096)"
   id="g106">
                        <circle
   cx="229.02901"
   cy="32.929001"
   r="0.69300002"
   id="circle105" />

                    </g>

                    <g
   transform="matrix(4.16667,0,0,4.16667,82.04,442.096)"
   id="g107">
                        <circle
   cx="229.02901"
   cy="32.929001"
   r="0.69300002"
   id="circle106" />

                    </g>

                    <g
   transform="matrix(4.16667,0,0,4.16667,89.9368,442.096)"
   id="g108">
                        <circle
   cx="229.02901"
   cy="32.929001"
   r="0.69300002"
   id="circle107" />

                    </g>

                    <g
   transform="matrix(4.16667,0,0,4.16667,58.3498,433.794)"
   id="g109">
                        <circle
   cx="229.02901"
   cy="32.929001"
   r="0.69300002"
   id="circle108" />

                    </g>

                    <g
   transform="matrix(4.16667,0,0,4.16667,66.2466,433.794)"
   id="g110">
                        <circle
   cx="229.02901"
   cy="32.929001"
   r="0.69300002"
   id="circle109" />

                    </g>

                    <g
   transform="matrix(4.16667,0,0,4.16667,74.1433,433.794)"
   id="g111">
                        <circle
   cx="229.02901"
   cy="32.929001"
   r="0.69300002"
   id="circle110" />

                    </g>

                    <g
   transform="matrix(4.16667,0,0,4.16667,82.04,433.794)"
   id="g112">
                        <circle
   cx="229.02901"
   cy="32.929001"
   r="0.69300002"
   id="circle111" />

                    </g>

                    <g
   transform="matrix(4.16667,0,0,4.16667,89.9368,433.794)"
   id="g113">
                        <circle
   cx="229.02901"
   cy="32.929001"
   r="0.69300002"
   id="circle112" />

                    </g>

                    <g
   transform="matrix(4.16667,0,0,4.16667,97.8335,433.794)"
   id="g114">
                        <circle
   cx="229.02901"
   cy="32.929001"
   r="0.69300002"
   id="circle113" />

                    </g>

                    <g
   transform="matrix(4.16667,0,0,4.16667,58.3498,425.492)"
   id="g115">
                        <circle
   cx="229.02901"
   cy="32.929001"
   r="0.69300002"
   id="circle114" />

                    </g>

                    <g
   transform="matrix(4.16667,0,0,4.16667,66.2466,425.492)"
   id="g116">
                        <circle
   cx="229.02901"
   cy="32.929001"
   r="0.69300002"
   id="circle115" />

                    </g>

                    <g
   transform="matrix(4.16667,0,0,4.16667,74.1433,425.492)"
   id="g117">
                        <circle
   cx="229.02901"
   cy="32.929001"
   r="0.69300002"
   id="circle116" />

                    </g>

                    <g
   transform="matrix(4.16667,0,0,4.16667,82.04,425.492)"
   id="g118">
                        <circle
   cx="229.02901"
   cy="32.929001"
   r="0.69300002"
   id="circle117" />

                    </g>

                    <g
   transform="matrix(4.16667,0,0,4.16667,89.9368,425.492)"
   id="g119">
                        <circle
   cx="229.02901"
   cy="32.929001"
   r="0.69300002"
   id="circle118" />

                    </g>

                    <g
   transform="matrix(4.16667,0,0,4.16667,97.8335,425.492)"
   id="g120">
                        <circle
   cx="229.02901"
   cy="32.929001"
   r="0.69300002"
   id="circle119" />

                    </g>

                </g>
  </g>
</svg>
