<?xml version="1.0" encoding="UTF-8" standalone="no"?>
<!-- Created with Inkscape (http://www.inkscape.org/) -->

<svg
   width="5.8807044mm"
   height="6.8153367mm"
   viewBox="0 0 5.8807044 6.8153367"
   version="1.1"
   id="svg1"
   inkscape:version="1.3.2 (091e20e, 2023-11-25)"
   sodipodi:docname="no4.svg"
   xmlns:inkscape="http://www.inkscape.org/namespaces/inkscape"
   xmlns:sodipodi="http://sodipodi.sourceforge.net/DTD/sodipodi-0.dtd"
   xmlns="http://www.w3.org/2000/svg"
   xmlns:svg="http://www.w3.org/2000/svg">
  <sodipodi:namedview
     id="namedview1"
     pagecolor="#ffffff"
     bordercolor="#666666"
     borderopacity="1.0"
     inkscape:showpageshadow="2"
     inkscape:pageopacity="0.0"
     inkscape:pagecheckerboard="0"
     inkscape:deskcolor="#d1d1d1"
     inkscape:document-units="mm"
     inkscape:zoom="4.7574603"
     inkscape:cx="13.662752"
     inkscape:cy="30.583545"
     inkscape:window-width="1392"
     inkscape:window-height="1212"
     inkscape:window-x="0"
     inkscape:window-y="25"
     inkscape:window-maximized="0"
     inkscape:current-layer="layer1" />
  <defs
     id="defs1">
    <clipPath
       clipPathUnits="userSpaceOnUse"
       id="clipPath306">
      <g
         id="g308"
         transform="matrix(3.1249939,0,0,3.1249961,924.57877,-60.127225)">
        <g
           id="g307">
          <rect
             x="4.9524903e-07"
             y="4.2492065e-08"
             width="75.590561"
             height="485.66931"
             id="rect306"
             style="stroke-width:0.0809669" />
        </g>
      </g>
    </clipPath>
  </defs>
  <g
     inkscape:label="Layer 1"
     inkscape:groupmode="layer"
     id="layer1"
     transform="translate(-130.43959,-50.799998)">
    <g
       transform="matrix(0.08466683,0,0,0.08466677,39.598447,3.402797)"
       id="g63"
       clip-path="url(#clipPath306)"
       style="clip-rule:evenodd;fill-rule:evenodd;stroke-linecap:round;stroke-linejoin:round">
                    <g
   transform="matrix(4.16667,0,0,4.16667,121.524,483.667)"
   id="g4">
                        <circle
   cx="229.02901"
   cy="32.929001"
   r="0.69300002"
   id="circle4" />

                    </g>

                    <g
   transform="matrix(4.16667,0,0,4.16667,129.42,483.667)"
   id="g5">
                        <circle
   cx="229.02901"
   cy="32.929001"
   r="0.69300002"
   id="circle5" />

                    </g>

                    <g
   transform="matrix(4.16667,0,0,4.16667,121.524,475.365)"
   id="g6">
                        <circle
   cx="229.02901"
   cy="32.929001"
   r="0.69300002"
   id="circle6" />

                    </g>

                    <g
   transform="matrix(4.16667,0,0,4.16667,129.42,475.365)"
   id="g7">
                        <circle
   cx="229.02901"
   cy="32.929001"
   r="0.69300002"
   id="circle7" />

                    </g>

                    <g
   transform="matrix(4.16667,0,0,4.16667,121.524,467.063)"
   id="g8">
                        <circle
   cx="229.02901"
   cy="32.929001"
   r="0.69300002"
   id="circle8" />

                    </g>

                    <g
   transform="matrix(4.16667,0,0,4.16667,129.42,467.063)"
   id="g9">
                        <circle
   cx="229.02901"
   cy="32.929001"
   r="0.69300002"
   id="circle9" />

                    </g>

                    <g
   transform="matrix(4.16667,0,0,4.16667,121.524,458.76)"
   id="g10">
                        <circle
   cx="229.02901"
   cy="32.929001"
   r="0.69300002"
   id="circle10" />

                    </g>

                    <g
   transform="matrix(4.16667,0,0,4.16667,129.42,458.76)"
   id="g11">
                        <circle
   cx="229.02901"
   cy="32.929001"
   r="0.69300002"
   id="circle11" />

                    </g>

                    <g
   transform="matrix(4.16667,0,0,4.16667,129.42,450.458)"
   id="g12">
                        <circle
   cx="229.02901"
   cy="32.929001"
   r="0.69300002"
   id="circle12" />

                    </g>

                    <g
   transform="matrix(4.16667,0,0,4.16667,161.516,500.213)"
   id="g13">
                        <circle
   cx="229.02901"
   cy="32.929001"
   r="0.69300002"
   id="circle13" />

                    </g>

                    <g
   transform="matrix(4.16667,0,0,4.16667,169.413,500.213)"
   id="g14">
                        <circle
   cx="229.02901"
   cy="32.929001"
   r="0.69300002"
   id="circle14" />

                    </g>

                    <g
   transform="matrix(4.16667,0,0,4.16667,177.309,500.213)"
   id="g15">
                        <circle
   cx="229.02901"
   cy="32.929001"
   r="0.69300002"
   id="circle15" />

                    </g>

                    <g
   transform="matrix(4.16667,0,0,4.16667,161.516,491.911)"
   id="g16">
                        <circle
   cx="229.02901"
   cy="32.929001"
   r="0.69300002"
   id="circle16" />

                    </g>

                    <g
   transform="matrix(4.16667,0,0,4.16667,169.413,491.911)"
   id="g17">
                        <circle
   cx="229.02901"
   cy="32.929001"
   r="0.69300002"
   id="circle17" />

                    </g>

                    <g
   transform="matrix(4.16667,0,0,4.16667,177.309,491.911)"
   id="g18">
                        <circle
   cx="229.02901"
   cy="32.929001"
   r="0.69300002"
   id="circle18" />

                    </g>

                    <g
   transform="matrix(4.16667,0,0,4.16667,137.826,483.609)"
   id="g19">
                        <circle
   cx="229.02901"
   cy="32.929001"
   r="0.69300002"
   id="circle19" />

                    </g>

                    <g
   transform="matrix(4.16667,0,0,4.16667,145.722,483.609)"
   id="g20">
                        <circle
   cx="229.02901"
   cy="32.929001"
   r="0.69300002"
   id="circle20" />

                    </g>

                    <g
   transform="matrix(4.16667,0,0,4.16667,153.619,483.609)"
   id="g21">
                        <circle
   cx="229.02901"
   cy="32.929001"
   r="0.69300002"
   id="circle21" />

                    </g>

                    <g
   transform="matrix(4.16667,0,0,4.16667,161.516,483.609)"
   id="g22">
                        <circle
   cx="229.02901"
   cy="32.929001"
   r="0.69300002"
   id="circle22" />

                    </g>

                    <g
   transform="matrix(4.16667,0,0,4.16667,169.413,483.609)"
   id="g23">
                        <circle
   cx="229.02901"
   cy="32.929001"
   r="0.69300002"
   id="circle23" />

                    </g>

                    <g
   transform="matrix(4.16667,0,0,4.16667,177.309,483.609)"
   id="g24">
                        <circle
   cx="229.02901"
   cy="32.929001"
   r="0.69300002"
   id="circle24" />

                    </g>

                    <g
   transform="matrix(4.16667,0,0,4.16667,185.206,483.667)"
   id="g25">
                        <circle
   cx="229.02901"
   cy="32.929001"
   r="0.69300002"
   id="circle25" />

                    </g>

                    <g
   transform="matrix(4.16667,0,0,4.16667,137.826,475.306)"
   id="g26">
                        <circle
   cx="229.02901"
   cy="32.929001"
   r="0.69300002"
   id="circle26" />

                    </g>

                    <g
   transform="matrix(4.16667,0,0,4.16667,145.722,475.306)"
   id="g27">
                        <circle
   cx="229.02901"
   cy="32.929001"
   r="0.69300002"
   id="circle27" />

                    </g>

                    <g
   transform="matrix(4.16667,0,0,4.16667,153.619,475.306)"
   id="g28">
                        <circle
   cx="229.02901"
   cy="32.929001"
   r="0.69300002"
   id="circle28" />

                    </g>

                    <g
   transform="matrix(4.16667,0,0,4.16667,161.516,475.306)"
   id="g29">
                        <circle
   cx="229.02901"
   cy="32.929001"
   r="0.69300002"
   id="circle29" />

                    </g>

                    <g
   transform="matrix(4.16667,0,0,4.16667,169.413,475.306)"
   id="g30">
                        <circle
   cx="229.02901"
   cy="32.929001"
   r="0.69300002"
   id="circle30" />

                    </g>

                    <g
   transform="matrix(4.16667,0,0,4.16667,177.309,475.306)"
   id="g31">
                        <circle
   cx="229.02901"
   cy="32.929001"
   r="0.69300002"
   id="circle31" />

                    </g>

                    <g
   transform="matrix(4.16667,0,0,4.16667,185.206,475.365)"
   id="g32">
                        <circle
   cx="229.02901"
   cy="32.929001"
   r="0.69300002"
   id="circle32" />

                    </g>

                    <g
   transform="matrix(4.16667,0,0,4.16667,137.826,467.004)"
   id="g33">
                        <circle
   cx="229.02901"
   cy="32.929001"
   r="0.69300002"
   id="circle33" />

                    </g>

                    <g
   transform="matrix(4.16667,0,0,4.16667,161.516,467.004)"
   id="g34">
                        <circle
   cx="229.02901"
   cy="32.929001"
   r="0.69300002"
   id="circle34" />

                    </g>

                    <g
   transform="matrix(4.16667,0,0,4.16667,169.413,467.004)"
   id="g35">
                        <circle
   cx="229.02901"
   cy="32.929001"
   r="0.69300002"
   id="circle35" />

                    </g>

                    <g
   transform="matrix(4.16667,0,0,4.16667,177.309,467.004)"
   id="g36">
                        <circle
   cx="229.02901"
   cy="32.929001"
   r="0.69300002"
   id="circle36" />

                    </g>

                    <g
   transform="matrix(4.16667,0,0,4.16667,137.826,458.701)"
   id="g37">
                        <circle
   cx="229.02901"
   cy="32.929001"
   r="0.69300002"
   id="circle37" />

                    </g>

                    <g
   transform="matrix(4.16667,0,0,4.16667,145.722,458.701)"
   id="g38">
                        <circle
   cx="229.02901"
   cy="32.929001"
   r="0.69300002"
   id="circle38" />

                    </g>

                    <g
   transform="matrix(4.16667,0,0,4.16667,161.516,458.701)"
   id="g39">
                        <circle
   cx="229.02901"
   cy="32.929001"
   r="0.69300002"
   id="circle39" />

                    </g>

                    <g
   transform="matrix(4.16667,0,0,4.16667,169.413,458.701)"
   id="g40">
                        <circle
   cx="229.02901"
   cy="32.929001"
   r="0.69300002"
   id="circle40" />

                    </g>

                    <g
   transform="matrix(4.16667,0,0,4.16667,177.309,458.701)"
   id="g41">
                        <circle
   cx="229.02901"
   cy="32.929001"
   r="0.69300002"
   id="circle41" />

                    </g>

                    <g
   transform="matrix(4.16667,0,0,4.16667,137.826,450.399)"
   id="g42">
                        <circle
   cx="229.02901"
   cy="32.929001"
   r="0.69300002"
   id="circle42" />

                    </g>

                    <g
   transform="matrix(4.16667,0,0,4.16667,145.722,450.399)"
   id="g43">
                        <circle
   cx="229.02901"
   cy="32.929001"
   r="0.69300002"
   id="circle43" />

                    </g>

                    <g
   transform="matrix(4.16667,0,0,4.16667,153.619,450.399)"
   id="g44">
                        <circle
   cx="229.02901"
   cy="32.929001"
   r="0.69300002"
   id="circle44" />

                    </g>

                    <g
   transform="matrix(4.16667,0,0,4.16667,161.516,450.399)"
   id="g45">
                        <circle
   cx="229.02901"
   cy="32.929001"
   r="0.69300002"
   id="circle45" />

                    </g>

                    <g
   transform="matrix(4.16667,0,0,4.16667,169.413,450.399)"
   id="g46">
                        <circle
   cx="229.02901"
   cy="32.929001"
   r="0.69300002"
   id="circle46" />

                    </g>

                    <g
   transform="matrix(4.16667,0,0,4.16667,177.309,450.399)"
   id="g47">
                        <circle
   cx="229.02901"
   cy="32.929001"
   r="0.69300002"
   id="circle47" />

                    </g>

                    <g
   transform="matrix(4.16667,0,0,4.16667,137.826,442.096)"
   id="g48">
                        <circle
   cx="229.02901"
   cy="32.929001"
   r="0.69300002"
   id="circle48" />

                    </g>

                    <g
   transform="matrix(4.16667,0,0,4.16667,145.722,442.096)"
   id="g49">
                        <circle
   cx="229.02901"
   cy="32.929001"
   r="0.69300002"
   id="circle49" />

                    </g>

                    <g
   transform="matrix(4.16667,0,0,4.16667,153.619,442.096)"
   id="g50">
                        <circle
   cx="229.02901"
   cy="32.929001"
   r="0.69300002"
   id="circle50" />

                    </g>

                    <g
   transform="matrix(4.16667,0,0,4.16667,161.516,442.096)"
   id="g51">
                        <circle
   cx="229.02901"
   cy="32.929001"
   r="0.69300002"
   id="circle51" />

                    </g>

                    <g
   transform="matrix(4.16667,0,0,4.16667,169.413,442.096)"
   id="g52">
                        <circle
   cx="229.02901"
   cy="32.929001"
   r="0.69300002"
   id="circle52" />

                    </g>

                    <g
   transform="matrix(4.16667,0,0,4.16667,177.309,442.096)"
   id="g53">
                        <circle
   cx="229.02901"
   cy="32.929001"
   r="0.69300002"
   id="circle53" />

                    </g>

                    <g
   transform="matrix(4.16667,0,0,4.16667,145.722,433.794)"
   id="g54">
                        <circle
   cx="229.02901"
   cy="32.929001"
   r="0.69300002"
   id="circle54" />

                    </g>

                    <g
   transform="matrix(4.16667,0,0,4.16667,153.619,433.794)"
   id="g55">
                        <circle
   cx="229.02901"
   cy="32.929001"
   r="0.69300002"
   id="circle55" />

                    </g>

                    <g
   transform="matrix(4.16667,0,0,4.16667,161.516,433.794)"
   id="g56">
                        <circle
   cx="229.02901"
   cy="32.929001"
   r="0.69300002"
   id="circle56" />

                    </g>

                    <g
   transform="matrix(4.16667,0,0,4.16667,169.413,433.794)"
   id="g57">
                        <circle
   cx="229.02901"
   cy="32.929001"
   r="0.69300002"
   id="circle57" />

                    </g>

                    <g
   transform="matrix(4.16667,0,0,4.16667,177.309,433.794)"
   id="g58">
                        <circle
   cx="229.02901"
   cy="32.929001"
   r="0.69300002"
   id="circle58" />

                    </g>

                    <g
   transform="matrix(4.16667,0,0,4.16667,153.619,425.492)"
   id="g59">
                        <circle
   cx="229.02901"
   cy="32.929001"
   r="0.69300002"
   id="circle59" />

                    </g>

                    <g
   transform="matrix(4.16667,0,0,4.16667,161.516,425.492)"
   id="g60">
                        <circle
   cx="229.02901"
   cy="32.929001"
   r="0.69300002"
   id="circle60" />

                    </g>

                    <g
   transform="matrix(4.16667,0,0,4.16667,169.413,425.492)"
   id="g61">
                        <circle
   cx="229.02901"
   cy="32.929001"
   r="0.69300002"
   id="circle61" />

                    </g>

                    <g
   transform="matrix(4.16667,0,0,4.16667,177.309,425.492)"
   id="g62">
                        <circle
   cx="229.02901"
   cy="32.929001"
   r="0.69300002"
   id="circle62" />

                    </g>

                </g>
  </g>
</svg>
