<?xml version="1.0" encoding="UTF-8" standalone="no"?>
<!-- Created with Inkscape (http://www.inkscape.org/) -->

<svg
   width="5.2121649mm"
   height="6.8153276mm"
   viewBox="0 0 5.2121649 6.8153276"
   version="1.1"
   id="svg1"
   inkscape:version="1.3.2 (091e20e, 2023-11-25)"
   sodipodi:docname="no5.svg"
   xmlns:inkscape="http://www.inkscape.org/namespaces/inkscape"
   xmlns:sodipodi="http://sodipodi.sourceforge.net/DTD/sodipodi-0.dtd"
   xmlns="http://www.w3.org/2000/svg"
   xmlns:svg="http://www.w3.org/2000/svg">
  <sodipodi:namedview
     id="namedview1"
     pagecolor="#ffffff"
     bordercolor="#666666"
     borderopacity="1.0"
     inkscape:showpageshadow="2"
     inkscape:pageopacity="0.0"
     inkscape:pagecheckerboard="0"
     inkscape:deskcolor="#d1d1d1"
     inkscape:document-units="mm"
     inkscape:zoom="0.29734127"
     inkscape:cx="10.089417"
     inkscape:cy="11.770986"
     inkscape:window-width="1392"
     inkscape:window-height="1212"
     inkscape:window-x="0"
     inkscape:window-y="25"
     inkscape:window-maximized="0"
     inkscape:current-layer="layer1" />
  <defs
     id="defs1">
    <clipPath
       clipPathUnits="userSpaceOnUse"
       id="clipPath523">
      <g
         id="g526"
         transform="matrix(3.1250003,0,0,3.1250003,796.58817,-536.88249)">
        <g
           id="g525">
          <g
             id="g524">
            <rect
               x="0"
               y="0"
               width="190.86664"
               height="485.66931"
               id="rect523"
               style="stroke-width:1.33333" />
          </g>
        </g>
      </g>
    </clipPath>
  </defs>
  <g
     inkscape:label="Layer 1"
     inkscape:groupmode="layer"
     id="layer1"
     transform="translate(-102.39375,-144.72708)">
    <g
       transform="matrix(0.08466666,0,0,0.08466666,4.1552982,97.329944)"
       id="g277"
       clip-path="url(#clipPath523)"
       style="clip-rule:evenodd;fill-rule:evenodd;stroke-linecap:round;stroke-linejoin:round;stroke-miterlimit:1.5">
                        <g
   transform="matrix(4.16667,0,0,4.16667,208.896,491.97)"
   id="g222">
                            <circle
   cx="229.02901"
   cy="32.929001"
   r="0.69300002"
   id="circle221" />

                        </g>

                        <g
   transform="matrix(4.16667,0,0,4.16667,208.896,483.667)"
   id="g223">
                            <circle
   cx="229.02901"
   cy="32.929001"
   r="0.69300002"
   id="circle222" />

                        </g>

                        <g
   transform="matrix(4.16667,0,0,4.16667,217.301,500.213)"
   id="g224">
                            <circle
   cx="229.02901"
   cy="32.929001"
   r="0.69300002"
   id="circle223" />

                        </g>

                        <g
   transform="matrix(4.16667,0,0,4.16667,225.198,500.213)"
   id="g225">
                            <circle
   cx="229.02901"
   cy="32.929001"
   r="0.69300002"
   id="circle224" />

                        </g>

                        <g
   transform="matrix(4.16667,0,0,4.16667,233.095,500.213)"
   id="g226">
                            <circle
   cx="229.02901"
   cy="32.929001"
   r="0.69300002"
   id="circle225" />

                        </g>

                        <g
   transform="matrix(4.16667,0,0,4.16667,240.992,500.213)"
   id="g227">
                            <circle
   cx="229.02901"
   cy="32.929001"
   r="0.69300002"
   id="circle226" />

                        </g>

                        <g
   transform="matrix(4.16667,0,0,4.16667,248.888,500.213)"
   id="g228">
                            <circle
   cx="229.02901"
   cy="32.929001"
   r="0.69300002"
   id="circle227" />

                        </g>

                        <g
   transform="matrix(4.16667,0,0,4.16667,217.301,491.911)"
   id="g229">
                            <circle
   cx="229.02901"
   cy="32.929001"
   r="0.69300002"
   id="circle228" />

                        </g>

                        <g
   transform="matrix(4.16667,0,0,4.16667,225.198,491.911)"
   id="g230">
                            <circle
   cx="229.02901"
   cy="32.929001"
   r="0.69300002"
   id="circle229" />

                        </g>

                        <g
   transform="matrix(4.16667,0,0,4.16667,233.095,491.911)"
   id="g231">
                            <circle
   cx="229.02901"
   cy="32.929001"
   r="0.69300002"
   id="circle230" />

                        </g>

                        <g
   transform="matrix(4.16667,0,0,4.16667,240.992,491.911)"
   id="g232">
                            <circle
   cx="229.02901"
   cy="32.929001"
   r="0.69300002"
   id="circle231" />

                        </g>

                        <g
   transform="matrix(4.16667,0,0,4.16667,248.888,491.911)"
   id="g233">
                            <circle
   cx="229.02901"
   cy="32.929001"
   r="0.69300002"
   id="circle232" />

                        </g>

                        <g
   transform="matrix(4.16667,0,0,4.16667,256.785,491.911)"
   id="g234">
                            <circle
   cx="229.02901"
   cy="32.929001"
   r="0.69300002"
   id="circle233" />

                        </g>

                        <g
   transform="matrix(4.16667,0,0,4.16667,217.301,483.609)"
   id="g235">
                            <circle
   cx="229.02901"
   cy="32.929001"
   r="0.69300002"
   id="circle234" />

                        </g>

                        <g
   transform="matrix(4.16667,0,0,4.16667,225.198,483.609)"
   id="g236">
                            <circle
   cx="229.02901"
   cy="32.929001"
   r="0.69300002"
   id="circle235" />

                        </g>

                        <g
   transform="matrix(4.16667,0,0,4.16667,240.992,483.609)"
   id="g237">
                            <circle
   cx="229.02901"
   cy="32.929001"
   r="0.69300002"
   id="circle236" />

                        </g>

                        <g
   transform="matrix(4.16667,0,0,4.16667,248.888,483.609)"
   id="g238">
                            <circle
   cx="229.02901"
   cy="32.929001"
   r="0.69300002"
   id="circle237" />

                        </g>

                        <g
   transform="matrix(4.16667,0,0,4.16667,256.785,483.609)"
   id="g239">
                            <circle
   cx="229.02901"
   cy="32.929001"
   r="0.69300002"
   id="circle238" />

                        </g>

                        <g
   transform="matrix(4.16667,0,0,4.16667,264.682,483.667)"
   id="g240">
                            <circle
   cx="229.02901"
   cy="32.929001"
   r="0.69300002"
   id="circle239" />

                        </g>

                        <g
   transform="matrix(4.16667,0,0,4.16667,248.888,475.306)"
   id="g241">
                            <circle
   cx="229.02901"
   cy="32.929001"
   r="0.69300002"
   id="circle240" />

                        </g>

                        <g
   transform="matrix(4.16667,0,0,4.16667,256.785,475.306)"
   id="g242">
                            <circle
   cx="229.02901"
   cy="32.929001"
   r="0.69300002"
   id="circle241" />

                        </g>

                        <g
   transform="matrix(4.16667,0,0,4.16667,264.682,475.365)"
   id="g243">
                            <circle
   cx="229.02901"
   cy="32.929001"
   r="0.69300002"
   id="circle242" />

                        </g>

                        <g
   transform="matrix(4.16667,0,0,4.16667,217.301,467.004)"
   id="g244">
                            <circle
   cx="229.02901"
   cy="32.929001"
   r="0.69300002"
   id="circle243" />

                        </g>

                        <g
   transform="matrix(4.16667,0,0,4.16667,225.198,467.004)"
   id="g245">
                            <circle
   cx="229.02901"
   cy="32.929001"
   r="0.69300002"
   id="circle244" />

                        </g>

                        <g
   transform="matrix(4.16667,0,0,4.16667,240.992,467.004)"
   id="g246">
                            <circle
   cx="229.02901"
   cy="32.929001"
   r="0.69300002"
   id="circle245" />

                        </g>

                        <g
   transform="matrix(4.16667,0,0,4.16667,248.888,467.004)"
   id="g247">
                            <circle
   cx="229.02901"
   cy="32.929001"
   r="0.69300002"
   id="circle246" />

                        </g>

                        <g
   transform="matrix(4.16667,0,0,4.16667,256.785,467.004)"
   id="g248">
                            <circle
   cx="229.02901"
   cy="32.929001"
   r="0.69300002"
   id="circle247" />

                        </g>

                        <g
   transform="matrix(4.16667,0,0,4.16667,264.682,467.063)"
   id="g249">
                            <circle
   cx="229.02901"
   cy="32.929001"
   r="0.69300002"
   id="circle248" />

                        </g>

                        <g
   transform="matrix(4.16667,0,0,4.16667,217.301,458.701)"
   id="g250">
                            <circle
   cx="229.02901"
   cy="32.929001"
   r="0.69300002"
   id="circle249" />

                        </g>

                        <g
   transform="matrix(4.16667,0,0,4.16667,225.198,458.701)"
   id="g251">
                            <circle
   cx="229.02901"
   cy="32.929001"
   r="0.69300002"
   id="circle250" />

                        </g>

                        <g
   transform="matrix(4.16667,0,0,4.16667,233.095,458.701)"
   id="g252">
                            <circle
   cx="229.02901"
   cy="32.929001"
   r="0.69300002"
   id="circle251" />

                        </g>

                        <g
   transform="matrix(4.16667,0,0,4.16667,240.992,458.701)"
   id="g253">
                            <circle
   cx="229.02901"
   cy="32.929001"
   r="0.69300002"
   id="circle252" />

                        </g>

                        <g
   transform="matrix(4.16667,0,0,4.16667,248.888,458.701)"
   id="g254">
                            <circle
   cx="229.02901"
   cy="32.929001"
   r="0.69300002"
   id="circle253" />

                        </g>

                        <g
   transform="matrix(4.16667,0,0,4.16667,256.785,458.701)"
   id="g255">
                            <circle
   cx="229.02901"
   cy="32.929001"
   r="0.69300002"
   id="circle254" />

                        </g>

                        <g
   transform="matrix(4.16667,0,0,4.16667,217.301,450.399)"
   id="g256">
                            <circle
   cx="229.02901"
   cy="32.929001"
   r="0.69300002"
   id="circle255" />

                        </g>

                        <g
   transform="matrix(4.16667,0,0,4.16667,225.198,450.399)"
   id="g257">
                            <circle
   cx="229.02901"
   cy="32.929001"
   r="0.69300002"
   id="circle256" />

                        </g>

                        <g
   transform="matrix(4.16667,0,0,4.16667,233.095,450.399)"
   id="g258">
                            <circle
   cx="229.02901"
   cy="32.929001"
   r="0.69300002"
   id="circle257" />

                        </g>

                        <g
   transform="matrix(4.16667,0,0,4.16667,240.992,450.399)"
   id="g259">
                            <circle
   cx="229.02901"
   cy="32.929001"
   r="0.69300002"
   id="circle258" />

                        </g>

                        <g
   transform="matrix(4.16667,0,0,4.16667,248.888,450.399)"
   id="g260">
                            <circle
   cx="229.02901"
   cy="32.929001"
   r="0.69300002"
   id="circle259" />

                        </g>

                        <g
   transform="matrix(4.16667,0,0,4.16667,217.301,442.096)"
   id="g261">
                            <circle
   cx="229.02901"
   cy="32.929001"
   r="0.69300002"
   id="circle260" />

                        </g>

                        <g
   transform="matrix(4.16667,0,0,4.16667,225.198,442.096)"
   id="g262">
                            <circle
   cx="229.02901"
   cy="32.929001"
   r="0.69300002"
   id="circle261" />

                        </g>

                        <g
   transform="matrix(4.16667,0,0,4.16667,217.301,433.794)"
   id="g263">
                            <circle
   cx="229.02901"
   cy="32.929001"
   r="0.69300002"
   id="circle262" />

                        </g>

                        <g
   transform="matrix(4.16667,0,0,4.16667,225.198,433.794)"
   id="g264">
                            <circle
   cx="229.02901"
   cy="32.929001"
   r="0.69300002"
   id="circle263" />

                        </g>

                        <g
   transform="matrix(4.16667,0,0,4.16667,233.095,433.794)"
   id="g265">
                            <circle
   cx="229.02901"
   cy="32.929001"
   r="0.69300002"
   id="circle264" />

                        </g>

                        <g
   transform="matrix(4.16667,0,0,4.16667,240.992,433.794)"
   id="g266">
                            <circle
   cx="229.02901"
   cy="32.929001"
   r="0.69300002"
   id="circle265" />

                        </g>

                        <g
   transform="matrix(4.16667,0,0,4.16667,248.888,433.794)"
   id="g267">
                            <circle
   cx="229.02901"
   cy="32.929001"
   r="0.69300002"
   id="circle266" />

                        </g>

                        <g
   transform="matrix(4.16667,0,0,4.16667,256.785,433.794)"
   id="g268">
                            <circle
   cx="229.02901"
   cy="32.929001"
   r="0.69300002"
   id="circle267" />

                        </g>

                        <g
   transform="matrix(4.16667,0,0,4.16667,264.682,433.853)"
   id="g269">
                            <circle
   cx="229.02901"
   cy="32.929001"
   r="0.69300002"
   id="circle268" />

                        </g>

                        <g
   transform="matrix(4.16667,0,0,4.16667,217.301,425.492)"
   id="g270">
                            <circle
   cx="229.02901"
   cy="32.929001"
   r="0.69300002"
   id="circle269" />

                        </g>

                        <g
   transform="matrix(4.16667,0,0,4.16667,225.198,425.492)"
   id="g271">
                            <circle
   cx="229.02901"
   cy="32.929001"
   r="0.69300002"
   id="circle270" />

                        </g>

                        <g
   transform="matrix(4.16667,0,0,4.16667,233.095,425.492)"
   id="g272">
                            <circle
   cx="229.02901"
   cy="32.929001"
   r="0.69300002"
   id="circle271" />

                        </g>

                        <g
   transform="matrix(4.16667,0,0,4.16667,240.992,425.492)"
   id="g273">
                            <circle
   cx="229.02901"
   cy="32.929001"
   r="0.69300002"
   id="circle272" />

                        </g>

                        <g
   transform="matrix(4.16667,0,0,4.16667,248.888,425.492)"
   id="g274">
                            <circle
   cx="229.02901"
   cy="32.929001"
   r="0.69300002"
   id="circle273" />

                        </g>

                        <g
   transform="matrix(4.16667,0,0,4.16667,256.785,425.492)"
   id="g275">
                            <circle
   cx="229.02901"
   cy="32.929001"
   r="0.69300002"
   id="circle274" />

                        </g>

                        <g
   transform="matrix(4.16667,0,0,4.16667,264.682,425.55)"
   id="g276">
                            <circle
   cx="229.02901"
   cy="32.929001"
   r="0.69300002"
   id="circle275" />

                        </g>

                    </g>
  </g>
</svg>
