<?xml version="1.0" encoding="UTF-8" standalone="no"?>
<!-- Created with Inkscape (http://www.inkscape.org/) -->

<svg
   width="5.2121649mm"
   height="6.8153276mm"
   viewBox="0 0 5.2121649 6.8153276"
   version="1.1"
   id="svg1"
   inkscape:version="1.3.2 (091e20e, 2023-11-25)"
   sodipodi:docname="no6.svg"
   xmlns:inkscape="http://www.inkscape.org/namespaces/inkscape"
   xmlns:sodipodi="http://sodipodi.sourceforge.net/DTD/sodipodi-0.dtd"
   xmlns="http://www.w3.org/2000/svg"
   xmlns:svg="http://www.w3.org/2000/svg">
  <sodipodi:namedview
     id="namedview1"
     pagecolor="#ffffff"
     bordercolor="#666666"
     borderopacity="1.0"
     inkscape:showpageshadow="2"
     inkscape:pageopacity="0.0"
     inkscape:pagecheckerboard="0"
     inkscape:deskcolor="#d1d1d1"
     inkscape:document-units="mm"
     inkscape:zoom="0.29734127"
     inkscape:cx="10.089417"
     inkscape:cy="11.770986"
     inkscape:window-width="1392"
     inkscape:window-height="1212"
     inkscape:window-x="0"
     inkscape:window-y="25"
     inkscape:window-maximized="0"
     inkscape:current-layer="layer1" />
  <defs
     id="defs1">
    <clipPath
       clipPathUnits="userSpaceOnUse"
       id="clipPath520">
      <g
         id="g523"
         transform="matrix(3.1250003,0,0,3.1250003,876.06402,-754.70751)">
        <g
           id="g522">
          <g
             id="g521">
            <rect
               x="0"
               y="0"
               width="190.86664"
               height="485.66931"
               id="rect520"
               style="stroke-width:1.33333" />
          </g>
        </g>
      </g>
    </clipPath>
  </defs>
  <g
     inkscape:label="Layer 1"
     inkscape:groupmode="layer"
     id="layer1"
     transform="translate(-102.39375,-144.72708)">
    <g
       transform="matrix(0.08466666,0,0,0.08466666,-2.5736694,97.329945)"
       id="g332"
       clip-path="url(#clipPath520)"
       style="clip-rule:evenodd;fill-rule:evenodd;stroke-linecap:round;stroke-linejoin:round;stroke-miterlimit:1.5">
                        <g
   transform="matrix(4.16667,0,0,4.16667,288.372,483.667)"
   id="g278">
                            <circle
   cx="229.02901"
   cy="32.929001"
   r="0.69300002"
   id="circle277" />

                        </g>

                        <g
   transform="matrix(4.16667,0,0,4.16667,288.372,475.365)"
   id="g279">
                            <circle
   cx="229.02901"
   cy="32.929001"
   r="0.69300002"
   id="circle278" />

                        </g>

                        <g
   transform="matrix(4.16667,0,0,4.16667,288.372,467.063)"
   id="g280">
                            <circle
   cx="229.02901"
   cy="32.929001"
   r="0.69300002"
   id="circle279" />

                        </g>

                        <g
   transform="matrix(4.16667,0,0,4.16667,288.372,458.76)"
   id="g281">
                            <circle
   cx="229.02901"
   cy="32.929001"
   r="0.69300002"
   id="circle280" />

                        </g>

                        <g
   transform="matrix(4.16667,0,0,4.16667,288.372,450.458)"
   id="g282">
                            <circle
   cx="229.02901"
   cy="32.929001"
   r="0.69300002"
   id="circle281" />

                        </g>

                        <g
   transform="matrix(4.16667,0,0,4.16667,304.674,500.213)"
   id="g283">
                            <circle
   cx="229.02901"
   cy="32.929001"
   r="0.69300002"
   id="circle282" />

                        </g>

                        <g
   transform="matrix(4.16667,0,0,4.16667,312.571,500.213)"
   id="g284">
                            <circle
   cx="229.02901"
   cy="32.929001"
   r="0.69300002"
   id="circle283" />

                        </g>

                        <g
   transform="matrix(4.16667,0,0,4.16667,320.467,500.213)"
   id="g285">
                            <circle
   cx="229.02901"
   cy="32.929001"
   r="0.69300002"
   id="circle284" />

                        </g>

                        <g
   transform="matrix(4.16667,0,0,4.16667,328.364,500.213)"
   id="g286">
                            <circle
   cx="229.02901"
   cy="32.929001"
   r="0.69300002"
   id="circle285" />

                        </g>

                        <g
   transform="matrix(4.16667,0,0,4.16667,296.777,491.911)"
   id="g287">
                            <circle
   cx="229.02901"
   cy="32.929001"
   r="0.69300002"
   id="circle286" />

                        </g>

                        <g
   transform="matrix(4.16667,0,0,4.16667,304.674,491.911)"
   id="g288">
                            <circle
   cx="229.02901"
   cy="32.929001"
   r="0.69300002"
   id="circle287" />

                        </g>

                        <g
   transform="matrix(4.16667,0,0,4.16667,312.571,491.911)"
   id="g289">
                            <circle
   cx="229.02901"
   cy="32.929001"
   r="0.69300002"
   id="circle288" />

                        </g>

                        <g
   transform="matrix(4.16667,0,0,4.16667,320.467,491.911)"
   id="g290">
                            <circle
   cx="229.02901"
   cy="32.929001"
   r="0.69300002"
   id="circle289" />

                        </g>

                        <g
   transform="matrix(4.16667,0,0,4.16667,328.364,491.911)"
   id="g291">
                            <circle
   cx="229.02901"
   cy="32.929001"
   r="0.69300002"
   id="circle290" />

                        </g>

                        <g
   transform="matrix(4.16667,0,0,4.16667,336.261,491.911)"
   id="g292">
                            <circle
   cx="229.02901"
   cy="32.929001"
   r="0.69300002"
   id="circle291" />

                        </g>

                        <g
   transform="matrix(4.16667,0,0,4.16667,296.777,483.609)"
   id="g293">
                            <circle
   cx="229.02901"
   cy="32.929001"
   r="0.69300002"
   id="circle292" />

                        </g>

                        <g
   transform="matrix(4.16667,0,0,4.16667,304.674,483.609)"
   id="g294">
                            <circle
   cx="229.02901"
   cy="32.929001"
   r="0.69300002"
   id="circle293" />

                        </g>

                        <g
   transform="matrix(4.16667,0,0,4.16667,312.571,483.609)"
   id="g295">
                            <circle
   cx="229.02901"
   cy="32.929001"
   r="0.69300002"
   id="circle294" />

                        </g>

                        <g
   transform="matrix(4.16667,0,0,4.16667,320.467,483.609)"
   id="g296">
                            <circle
   cx="229.02901"
   cy="32.929001"
   r="0.69300002"
   id="circle295" />

                        </g>

                        <g
   transform="matrix(4.16667,0,0,4.16667,328.364,483.609)"
   id="g297">
                            <circle
   cx="229.02901"
   cy="32.929001"
   r="0.69300002"
   id="circle296" />

                        </g>

                        <g
   transform="matrix(4.16667,0,0,4.16667,336.261,483.609)"
   id="g298">
                            <circle
   cx="229.02901"
   cy="32.929001"
   r="0.69300002"
   id="circle297" />

                        </g>

                        <g
   transform="matrix(4.16667,0,0,4.16667,344.158,483.667)"
   id="g299">
                            <circle
   cx="229.02901"
   cy="32.929001"
   r="0.69300002"
   id="circle298" />

                        </g>

                        <g
   transform="matrix(4.16667,0,0,4.16667,296.777,475.306)"
   id="g300">
                            <circle
   cx="229.02901"
   cy="32.929001"
   r="0.69300002"
   id="circle299" />

                        </g>

                        <g
   transform="matrix(4.16667,0,0,4.16667,304.674,475.306)"
   id="g301">
                            <circle
   cx="229.02901"
   cy="32.929001"
   r="0.69300002"
   id="circle300" />

                        </g>

                        <g
   transform="matrix(4.16667,0,0,4.16667,328.364,475.306)"
   id="g302">
                            <circle
   cx="229.02901"
   cy="32.929001"
   r="0.69300002"
   id="circle301" />

                        </g>

                        <g
   transform="matrix(4.16667,0,0,4.16667,336.261,475.306)"
   id="g303">
                            <circle
   cx="229.02901"
   cy="32.929001"
   r="0.69300002"
   id="circle302" />

                        </g>

                        <g
   transform="matrix(4.16667,0,0,4.16667,344.158,475.365)"
   id="g304">
                            <circle
   cx="229.02901"
   cy="32.929001"
   r="0.69300002"
   id="circle303" />

                        </g>

                        <g
   transform="matrix(4.16667,0,0,4.16667,296.777,467.004)"
   id="g305">
                            <circle
   cx="229.02901"
   cy="32.929001"
   r="0.69300002"
   id="circle304" />

                        </g>

                        <g
   transform="matrix(4.16667,0,0,4.16667,304.674,467.004)"
   id="g306">
                            <circle
   cx="229.02901"
   cy="32.929001"
   r="0.69300002"
   id="circle305" />

                        </g>

                        <g
   transform="matrix(4.16667,0,0,4.16667,328.364,467.004)"
   id="g307">
                            <circle
   cx="229.02901"
   cy="32.929001"
   r="0.69300002"
   id="circle306" />

                        </g>

                        <g
   transform="matrix(4.16667,0,0,4.16667,336.261,467.004)"
   id="g308">
                            <circle
   cx="229.02901"
   cy="32.929001"
   r="0.69300002"
   id="circle307" />

                        </g>

                        <g
   transform="matrix(4.16667,0,0,4.16667,344.158,467.063)"
   id="g309">
                            <circle
   cx="229.02901"
   cy="32.929001"
   r="0.69300002"
   id="circle308" />

                        </g>

                        <g
   transform="matrix(4.16667,0,0,4.16667,296.777,458.701)"
   id="g310">
                            <circle
   cx="229.02901"
   cy="32.929001"
   r="0.69300002"
   id="circle309" />

                        </g>

                        <g
   transform="matrix(4.16667,0,0,4.16667,304.674,458.701)"
   id="g311">
                            <circle
   cx="229.02901"
   cy="32.929001"
   r="0.69300002"
   id="circle310" />

                        </g>

                        <g
   transform="matrix(4.16667,0,0,4.16667,312.571,458.701)"
   id="g312">
                            <circle
   cx="229.02901"
   cy="32.929001"
   r="0.69300002"
   id="circle311" />

                        </g>

                        <g
   transform="matrix(4.16667,0,0,4.16667,320.467,458.701)"
   id="g313">
                            <circle
   cx="229.02901"
   cy="32.929001"
   r="0.69300002"
   id="circle312" />

                        </g>

                        <g
   transform="matrix(4.16667,0,0,4.16667,328.364,458.701)"
   id="g314">
                            <circle
   cx="229.02901"
   cy="32.929001"
   r="0.69300002"
   id="circle313" />

                        </g>

                        <g
   transform="matrix(4.16667,0,0,4.16667,336.261,458.701)"
   id="g315">
                            <circle
   cx="229.02901"
   cy="32.929001"
   r="0.69300002"
   id="circle314" />

                        </g>

                        <g
   transform="matrix(4.16667,0,0,4.16667,344.158,458.76)"
   id="g316">
                            <circle
   cx="229.02901"
   cy="32.929001"
   r="0.69300002"
   id="circle315" />

                        </g>

                        <g
   transform="matrix(4.16667,0,0,4.16667,296.777,450.399)"
   id="g317">
                            <circle
   cx="229.02901"
   cy="32.929001"
   r="0.69300002"
   id="circle316" />

                        </g>

                        <g
   transform="matrix(4.16667,0,0,4.16667,304.674,450.399)"
   id="g318">
                            <circle
   cx="229.02901"
   cy="32.929001"
   r="0.69300002"
   id="circle317" />

                        </g>

                        <g
   transform="matrix(4.16667,0,0,4.16667,312.571,450.399)"
   id="g319">
                            <circle
   cx="229.02901"
   cy="32.929001"
   r="0.69300002"
   id="circle318" />

                        </g>

                        <g
   transform="matrix(4.16667,0,0,4.16667,320.467,450.399)"
   id="g320">
                            <circle
   cx="229.02901"
   cy="32.929001"
   r="0.69300002"
   id="circle319" />

                        </g>

                        <g
   transform="matrix(4.16667,0,0,4.16667,328.364,450.399)"
   id="g321">
                            <circle
   cx="229.02901"
   cy="32.929001"
   r="0.69300002"
   id="circle320" />

                        </g>

                        <g
   transform="matrix(4.16667,0,0,4.16667,336.261,450.399)"
   id="g322">
                            <circle
   cx="229.02901"
   cy="32.929001"
   r="0.69300002"
   id="circle321" />

                        </g>

                        <g
   transform="matrix(4.16667,0,0,4.16667,296.777,442.096)"
   id="g323">
                            <circle
   cx="229.02901"
   cy="32.929001"
   r="0.69300002"
   id="circle322" />

                        </g>

                        <g
   transform="matrix(4.16667,0,0,4.16667,304.674,442.096)"
   id="g324">
                            <circle
   cx="229.02901"
   cy="32.929001"
   r="0.69300002"
   id="circle323" />

                        </g>

                        <g
   transform="matrix(4.16667,0,0,4.16667,312.571,442.096)"
   id="g325">
                            <circle
   cx="229.02901"
   cy="32.929001"
   r="0.69300002"
   id="circle324" />

                        </g>

                        <g
   transform="matrix(4.16667,0,0,4.16667,304.674,433.794)"
   id="g326">
                            <circle
   cx="229.02901"
   cy="32.929001"
   r="0.69300002"
   id="circle325" />

                        </g>

                        <g
   transform="matrix(4.16667,0,0,4.16667,312.571,433.794)"
   id="g327">
                            <circle
   cx="229.02901"
   cy="32.929001"
   r="0.69300002"
   id="circle326" />

                        </g>

                        <g
   transform="matrix(4.16667,0,0,4.16667,320.467,433.794)"
   id="g328">
                            <circle
   cx="229.02901"
   cy="32.929001"
   r="0.69300002"
   id="circle327" />

                        </g>

                        <g
   transform="matrix(4.16667,0,0,4.16667,312.571,425.492)"
   id="g329">
                            <circle
   cx="229.02901"
   cy="32.929001"
   r="0.69300002"
   id="circle328" />

                        </g>

                        <g
   transform="matrix(4.16667,0,0,4.16667,320.467,425.492)"
   id="g330">
                            <circle
   cx="229.02901"
   cy="32.929001"
   r="0.69300002"
   id="circle329" />

                        </g>

                        <g
   transform="matrix(4.16667,0,0,4.16667,328.364,425.492)"
   id="g331">
                            <circle
   cx="229.02901"
   cy="32.929001"
   r="0.69300002"
   id="circle330" />

                        </g>

                    </g>
  </g>
</svg>
