<?xml version="1.0" encoding="UTF-8" standalone="no"?>
<svg
   width="50.500134mm"
   height="128.5mm"
   viewBox="0 0 190.86664 485.66929"
   version="1.1"
   xml:space="preserve"
   style="clip-rule:evenodd;fill-rule:evenodd;stroke-linecap:round;stroke-linejoin:round;stroke-miterlimit:1.5"
   id="svg540"
   sodipodi:docname="Asset.svg"
   inkscape:version="1.3.2 (091e20e, 2023-11-25)"
   xmlns:inkscape="http://www.inkscape.org/namespaces/inkscape"
   xmlns:sodipodi="http://sodipodi.sourceforge.net/DTD/sodipodi-0.dtd"
   xmlns:xlink="http://www.w3.org/1999/xlink"
   xmlns="http://www.w3.org/2000/svg"
   xmlns:svg="http://www.w3.org/2000/svg"
   xmlns:serif="http://www.serif.com/"><sodipodi:namedview
   id="namedview540"
   pagecolor="#ffffff"
   bordercolor="#666666"
   borderopacity="1.0"
   inkscape:showpageshadow="2"
   inkscape:pageopacity="0.0"
   inkscape:pagecheckerboard="0"
   inkscape:deskcolor="#d1d1d1"
   inkscape:zoom="1.582565"
   inkscape:cx="113.10752"
   inkscape:cy="308.99206"
   inkscape:window-width="2560"
   inkscape:window-height="1387"
   inkscape:window-x="0"
   inkscape:window-y="25"
   inkscape:window-maximized="1"
   inkscape:current-layer="White"
   inkscape:document-units="mm" />
    <rect
   x="0"
   y="0"
   width="190.86615"
   height="485.66907"
   style="clip-rule:evenodd;display:inline;fill:#2d2d2d;fill-opacity:1;fill-rule:evenodd;stroke-width:0.128658;stroke-linecap:round;stroke-linejoin:round;stroke-miterlimit:1.5"
   id="rect1-3" /><rect
   x="0"
   y="0"
   width="190.86664"
   height="485.66928"
   style="fill:none;stroke-width:1.33333"
   id="rect1" /><g
   id="Gold"
   transform="scale(1.3333332)"
   clip-path="url(#clipPath543)">
                <g
   id="Gold-Silkscreen"
   serif:id="Gold Silkscreen">
                    <g
   transform="translate(86.8814,40.7935)"
   id="g3">
                        <g
   transform="matrix(6,0,0,6,44.4275,25.5577)"
   id="g2">
                        </g>
                        <path
   d="m 24.586001,25.618001 q -0.51,0 -0.876,-0.174 -0.366,-0.18 -0.564,-0.546 -0.198,-0.372 -0.222,-0.93 -0.006,-0.264 -0.006,-0.504 0,-0.246 0.006,-0.51 0.024,-0.552 0.228,-0.918 0.21,-0.372 0.576,-0.552 0.372,-0.186 0.858,-0.186 0.492,0 0.858,0.186 0.372,0.18 0.582,0.552 0.21,0.366 0.228,0.918 0.012,0.264 0.012,0.51 0,0.24 -0.012,0.504 -0.018,0.558 -0.222,0.93 -0.198,0.366 -0.564,0.546 -0.366,0.174 -0.882,0.174 z m 0,-0.51 q 0.462,0 0.75,-0.276 0.294,-0.276 0.318,-0.894 0.012,-0.27 0.012,-0.48 0,-0.216 -0.012,-0.48 -0.012,-0.414 -0.156,-0.672 -0.138,-0.258 -0.372,-0.378 -0.234,-0.12 -0.54,-0.12 -0.294,0 -0.528,0.12 -0.234,0.12 -0.378,0.378 -0.138,0.258 -0.156,0.672 -0.006,0.264 -0.006,0.48 0,0.21 0.006,0.48 0.024,0.618 0.318,0.894 0.294,0.276 0.744,0.276 z m 2.694,0.45 q -0.066,0 -0.102,-0.036 -0.036,-0.042 -0.036,-0.102 v -3.918 q 0,-0.066 0.036,-0.102 0.036,-0.042 0.102,-0.042 h 2.448 q 0.066,0 0.102,0.042 0.036,0.036 0.036,0.102 v 0.24 q 0,0.066 -0.036,0.102 -0.036,0.036 -0.102,0.036 h -2.004 v 1.398 h 1.884 q 0.066,0 0.102,0.042 0.036,0.036 0.036,0.102 v 0.24 q 0,0.06 -0.036,0.102 -0.036,0.036 -0.102,0.036 h -1.884 v 1.62 q 0,0.06 -0.042,0.102 -0.036,0.036 -0.102,0.036 z m 3.503998,0 q -0.066,0 -0.102,-0.036 -0.036,-0.042 -0.036,-0.102 v -3.918 q 0,-0.066 0.036,-0.102 0.036,-0.042 0.102,-0.042 h 2.448 q 0.066,0 0.102,0.042 0.036,0.036 0.036,0.102 v 0.24 q 0,0.066 -0.036,0.102 -0.036,0.036 -0.102,0.036 h -2.004 v 1.398 h 1.884 q 0.066,0 0.102,0.042 0.036,0.036 0.036,0.102 v 0.24 q 0,0.06 -0.036,0.102 -0.036,0.036 -0.102,0.036 h -1.884 v 1.62 q 0,0.06 -0.042,0.102 -0.036,0.036 -0.102,0.036 z m 4.672121,0.06 q -0.522,0 -0.876,-0.156 -0.354,-0.162 -0.546,-0.414 -0.186,-0.258 -0.198,-0.546 0,-0.048 0.036,-0.084 0.042,-0.042 0.096,-0.042 h 0.306 q 0.072,0 0.108,0.036 0.036,0.036 0.048,0.084 0.03,0.144 0.144,0.288 0.12,0.138 0.33,0.234 0.216,0.09 0.552,0.09 0.516,0 0.756,-0.18 0.246,-0.186 0.246,-0.492 0,-0.21 -0.132,-0.336 -0.126,-0.132 -0.39,-0.234 -0.264,-0.102 -0.684,-0.222 -0.438,-0.126 -0.726,-0.276 -0.288,-0.15 -0.432,-0.372 -0.138,-0.222 -0.138,-0.564 0,-0.324 0.174,-0.576 0.174,-0.258 0.498,-0.408 0.33,-0.15 0.798,-0.15 0.372,0 0.648,0.102 0.282,0.096 0.468,0.264 0.186,0.162 0.282,0.354 0.096,0.186 0.102,0.366 0,0.042 -0.03,0.084 -0.03,0.036 -0.096,0.036 h -0.318 q -0.042,0 -0.09,-0.024 -0.042,-0.024 -0.066,-0.09 -0.036,-0.246 -0.276,-0.414 -0.24,-0.168 -0.624,-0.168 -0.39,0 -0.636,0.15 -0.24,0.15 -0.24,0.468 0,0.204 0.114,0.342 0.114,0.132 0.36,0.234 0.246,0.102 0.642,0.216 0.48,0.132 0.786,0.282 0.306,0.144 0.45,0.366 0.15,0.216 0.15,0.558 0,0.378 -0.198,0.648 -0.198,0.264 -0.558,0.408 -0.354,0.138 -0.84,0.138 z m 2.519998,-0.06 q -0.066,0 -0.102,-0.036 -0.036,-0.042 -0.036,-0.102 v -3.918 q 0,-0.066 0.036,-0.102 0.036,-0.042 0.102,-0.042 h 2.478 q 0.066,0 0.102,0.042 0.036,0.036 0.036,0.102 v 0.228 q 0,0.066 -0.036,0.102 -0.036,0.036 -0.102,0.036 h -2.04 v 1.314 h 1.908 q 0.066,0 0.102,0.042 0.036,0.036 0.036,0.102 v 0.222 q 0,0.06 -0.036,0.102 -0.036,0.036 -0.102,0.036 h -1.908 v 1.362 h 2.088 q 0.066,0 0.102,0.036 0.036,0.036 0.036,0.102 v 0.234 q 0,0.06 -0.036,0.102 -0.036,0.036 -0.102,0.036 z m 4.554006,0 q -0.06,0 -0.102,-0.036 -0.036,-0.042 -0.036,-0.102 v -3.528 h -1.152 q -0.06,0 -0.102,-0.036 -0.036,-0.042 -0.036,-0.102 v -0.252 q 0,-0.066 0.036,-0.102 0.042,-0.042 0.102,-0.042 h 2.892 q 0.066,0 0.102,0.042 0.042,0.036 0.042,0.102 v 0.252 q 0,0.06 -0.042,0.102 -0.036,0.036 -0.102,0.036 h -1.146 v 3.528 q 0,0.06 -0.042,0.102 -0.036,0.036 -0.102,0.036 z"
   id="text2"
   style="font-size:6px;font-family:Rubik-Regular, Rubik;fill:#b68e00"
   aria-label="OFFSET" />
                    </g>
                    <g
   transform="translate(86.5989,92.9767)"
   id="g5">
                        <g
   transform="matrix(6,0,0,6,44.4275,25.5577)"
   id="g4">
                        </g>
                        <path
   d="m 24.586001,25.618001 q -0.51,0 -0.876,-0.174 -0.366,-0.18 -0.564,-0.546 -0.198,-0.372 -0.222,-0.93 -0.006,-0.264 -0.006,-0.504 0,-0.246 0.006,-0.51 0.024,-0.552 0.228,-0.918 0.21,-0.372 0.576,-0.552 0.372,-0.186 0.858,-0.186 0.492,0 0.858,0.186 0.372,0.18 0.582,0.552 0.21,0.366 0.228,0.918 0.012,0.264 0.012,0.51 0,0.24 -0.012,0.504 -0.018,0.558 -0.222,0.93 -0.198,0.366 -0.564,0.546 -0.366,0.174 -0.882,0.174 z m 0,-0.51 q 0.462,0 0.75,-0.276 0.294,-0.276 0.318,-0.894 0.012,-0.27 0.012,-0.48 0,-0.216 -0.012,-0.48 -0.012,-0.414 -0.156,-0.672 -0.138,-0.258 -0.372,-0.378 -0.234,-0.12 -0.54,-0.12 -0.294,0 -0.528,0.12 -0.234,0.12 -0.378,0.378 -0.138,0.258 -0.156,0.672 -0.006,0.264 -0.006,0.48 0,0.21 0.006,0.48 0.024,0.618 0.318,0.894 0.294,0.276 0.744,0.276 z m 2.694,0.45 q -0.066,0 -0.102,-0.036 -0.036,-0.042 -0.036,-0.102 v -3.918 q 0,-0.066 0.036,-0.102 0.036,-0.042 0.102,-0.042 h 2.448 q 0.066,0 0.102,0.042 0.036,0.036 0.036,0.102 v 0.24 q 0,0.066 -0.036,0.102 -0.036,0.036 -0.102,0.036 h -2.004 v 1.398 h 1.884 q 0.066,0 0.102,0.042 0.036,0.036 0.036,0.102 v 0.24 q 0,0.06 -0.036,0.102 -0.036,0.036 -0.102,0.036 h -1.884 v 1.62 q 0,0.06 -0.042,0.102 -0.036,0.036 -0.102,0.036 z m 3.503998,0 q -0.066,0 -0.102,-0.036 -0.036,-0.042 -0.036,-0.102 v -3.918 q 0,-0.066 0.036,-0.102 0.036,-0.042 0.102,-0.042 h 2.448 q 0.066,0 0.102,0.042 0.036,0.036 0.036,0.102 v 0.24 q 0,0.066 -0.036,0.102 -0.036,0.036 -0.102,0.036 h -2.004 v 1.398 h 1.884 q 0.066,0 0.102,0.042 0.036,0.036 0.036,0.102 v 0.24 q 0,0.06 -0.036,0.102 -0.036,0.036 -0.102,0.036 h -1.884 v 1.62 q 0,0.06 -0.042,0.102 -0.036,0.036 -0.102,0.036 z m 4.672121,0.06 q -0.522,0 -0.876,-0.156 -0.354,-0.162 -0.546,-0.414 -0.186,-0.258 -0.198,-0.546 0,-0.048 0.036,-0.084 0.042,-0.042 0.096,-0.042 h 0.306 q 0.072,0 0.108,0.036 0.036,0.036 0.048,0.084 0.03,0.144 0.144,0.288 0.12,0.138 0.33,0.234 0.216,0.09 0.552,0.09 0.516,0 0.756,-0.18 0.246,-0.186 0.246,-0.492 0,-0.21 -0.132,-0.336 -0.126,-0.132 -0.39,-0.234 -0.264,-0.102 -0.684,-0.222 -0.438,-0.126 -0.726,-0.276 -0.288,-0.15 -0.432,-0.372 -0.138,-0.222 -0.138,-0.564 0,-0.324 0.174,-0.576 0.174,-0.258 0.498,-0.408 0.33,-0.15 0.798,-0.15 0.372,0 0.648,0.102 0.282,0.096 0.468,0.264 0.186,0.162 0.282,0.354 0.096,0.186 0.102,0.366 0,0.042 -0.03,0.084 -0.03,0.036 -0.096,0.036 h -0.318 q -0.042,0 -0.09,-0.024 -0.042,-0.024 -0.066,-0.09 -0.036,-0.246 -0.276,-0.414 -0.24,-0.168 -0.624,-0.168 -0.39,0 -0.636,0.15 -0.24,0.15 -0.24,0.468 0,0.204 0.114,0.342 0.114,0.132 0.36,0.234 0.246,0.102 0.642,0.216 0.48,0.132 0.786,0.282 0.306,0.144 0.45,0.366 0.15,0.216 0.15,0.558 0,0.378 -0.198,0.648 -0.198,0.264 -0.558,0.408 -0.354,0.138 -0.84,0.138 z m 2.519998,-0.06 q -0.066,0 -0.102,-0.036 -0.036,-0.042 -0.036,-0.102 v -3.918 q 0,-0.066 0.036,-0.102 0.036,-0.042 0.102,-0.042 h 2.478 q 0.066,0 0.102,0.042 0.036,0.036 0.036,0.102 v 0.228 q 0,0.066 -0.036,0.102 -0.036,0.036 -0.102,0.036 h -2.04 v 1.314 h 1.908 q 0.066,0 0.102,0.042 0.036,0.036 0.036,0.102 v 0.222 q 0,0.06 -0.036,0.102 -0.036,0.036 -0.102,0.036 h -1.908 v 1.362 h 2.088 q 0.066,0 0.102,0.036 0.036,0.036 0.036,0.102 v 0.234 q 0,0.06 -0.036,0.102 -0.036,0.036 -0.102,0.036 z m 4.554006,0 q -0.06,0 -0.102,-0.036 -0.036,-0.042 -0.036,-0.102 v -3.528 h -1.152 q -0.06,0 -0.102,-0.036 -0.036,-0.042 -0.036,-0.102 v -0.252 q 0,-0.066 0.036,-0.102 0.042,-0.042 0.102,-0.042 h 2.892 q 0.066,0 0.102,0.042 0.042,0.036 0.042,0.102 v 0.252 q 0,0.06 -0.042,0.102 -0.036,0.036 -0.102,0.036 h -1.146 v 3.528 q 0,0.06 -0.042,0.102 -0.036,0.036 -0.102,0.036 z"
   id="text4"
   style="font-size:6px;font-family:Rubik-Regular, Rubik;fill:#b68e00"
   aria-label="OFFSET" />
                    </g>
                    <g
   transform="translate(86.5989,145.062)"
   id="g7">
                        <g
   transform="matrix(6,0,0,6,44.4275,25.5577)"
   id="g6">
                        </g>
                        <path
   d="m 24.586001,25.618001 q -0.51,0 -0.876,-0.174 -0.366,-0.18 -0.564,-0.546 -0.198,-0.372 -0.222,-0.93 -0.006,-0.264 -0.006,-0.504 0,-0.246 0.006,-0.51 0.024,-0.552 0.228,-0.918 0.21,-0.372 0.576,-0.552 0.372,-0.186 0.858,-0.186 0.492,0 0.858,0.186 0.372,0.18 0.582,0.552 0.21,0.366 0.228,0.918 0.012,0.264 0.012,0.51 0,0.24 -0.012,0.504 -0.018,0.558 -0.222,0.93 -0.198,0.366 -0.564,0.546 -0.366,0.174 -0.882,0.174 z m 0,-0.51 q 0.462,0 0.75,-0.276 0.294,-0.276 0.318,-0.894 0.012,-0.27 0.012,-0.48 0,-0.216 -0.012,-0.48 -0.012,-0.414 -0.156,-0.672 -0.138,-0.258 -0.372,-0.378 -0.234,-0.12 -0.54,-0.12 -0.294,0 -0.528,0.12 -0.234,0.12 -0.378,0.378 -0.138,0.258 -0.156,0.672 -0.006,0.264 -0.006,0.48 0,0.21 0.006,0.48 0.024,0.618 0.318,0.894 0.294,0.276 0.744,0.276 z m 2.694,0.45 q -0.066,0 -0.102,-0.036 -0.036,-0.042 -0.036,-0.102 v -3.918 q 0,-0.066 0.036,-0.102 0.036,-0.042 0.102,-0.042 h 2.448 q 0.066,0 0.102,0.042 0.036,0.036 0.036,0.102 v 0.24 q 0,0.066 -0.036,0.102 -0.036,0.036 -0.102,0.036 h -2.004 v 1.398 h 1.884 q 0.066,0 0.102,0.042 0.036,0.036 0.036,0.102 v 0.24 q 0,0.06 -0.036,0.102 -0.036,0.036 -0.102,0.036 h -1.884 v 1.62 q 0,0.06 -0.042,0.102 -0.036,0.036 -0.102,0.036 z m 3.503998,0 q -0.066,0 -0.102,-0.036 -0.036,-0.042 -0.036,-0.102 v -3.918 q 0,-0.066 0.036,-0.102 0.036,-0.042 0.102,-0.042 h 2.448 q 0.066,0 0.102,0.042 0.036,0.036 0.036,0.102 v 0.24 q 0,0.066 -0.036,0.102 -0.036,0.036 -0.102,0.036 h -2.004 v 1.398 h 1.884 q 0.066,0 0.102,0.042 0.036,0.036 0.036,0.102 v 0.24 q 0,0.06 -0.036,0.102 -0.036,0.036 -0.102,0.036 h -1.884 v 1.62 q 0,0.06 -0.042,0.102 -0.036,0.036 -0.102,0.036 z m 4.672121,0.06 q -0.522,0 -0.876,-0.156 -0.354,-0.162 -0.546,-0.414 -0.186,-0.258 -0.198,-0.546 0,-0.048 0.036,-0.084 0.042,-0.042 0.096,-0.042 h 0.306 q 0.072,0 0.108,0.036 0.036,0.036 0.048,0.084 0.03,0.144 0.144,0.288 0.12,0.138 0.33,0.234 0.216,0.09 0.552,0.09 0.516,0 0.756,-0.18 0.246,-0.186 0.246,-0.492 0,-0.21 -0.132,-0.336 -0.126,-0.132 -0.39,-0.234 -0.264,-0.102 -0.684,-0.222 -0.438,-0.126 -0.726,-0.276 -0.288,-0.15 -0.432,-0.372 -0.138,-0.222 -0.138,-0.564 0,-0.324 0.174,-0.576 0.174,-0.258 0.498,-0.408 0.33,-0.15 0.798,-0.15 0.372,0 0.648,0.102 0.282,0.096 0.468,0.264 0.186,0.162 0.282,0.354 0.096,0.186 0.102,0.366 0,0.042 -0.03,0.084 -0.03,0.036 -0.096,0.036 h -0.318 q -0.042,0 -0.09,-0.024 -0.042,-0.024 -0.066,-0.09 -0.036,-0.246 -0.276,-0.414 -0.24,-0.168 -0.624,-0.168 -0.39,0 -0.636,0.15 -0.24,0.15 -0.24,0.468 0,0.204 0.114,0.342 0.114,0.132 0.36,0.234 0.246,0.102 0.642,0.216 0.48,0.132 0.786,0.282 0.306,0.144 0.45,0.366 0.15,0.216 0.15,0.558 0,0.378 -0.198,0.648 -0.198,0.264 -0.558,0.408 -0.354,0.138 -0.84,0.138 z m 2.519998,-0.06 q -0.066,0 -0.102,-0.036 -0.036,-0.042 -0.036,-0.102 v -3.918 q 0,-0.066 0.036,-0.102 0.036,-0.042 0.102,-0.042 h 2.478 q 0.066,0 0.102,0.042 0.036,0.036 0.036,0.102 v 0.228 q 0,0.066 -0.036,0.102 -0.036,0.036 -0.102,0.036 h -2.04 v 1.314 h 1.908 q 0.066,0 0.102,0.042 0.036,0.036 0.036,0.102 v 0.222 q 0,0.06 -0.036,0.102 -0.036,0.036 -0.102,0.036 h -1.908 v 1.362 h 2.088 q 0.066,0 0.102,0.036 0.036,0.036 0.036,0.102 v 0.234 q 0,0.06 -0.036,0.102 -0.036,0.036 -0.102,0.036 z m 4.554006,0 q -0.06,0 -0.102,-0.036 -0.036,-0.042 -0.036,-0.102 v -3.528 h -1.152 q -0.06,0 -0.102,-0.036 -0.036,-0.042 -0.036,-0.102 v -0.252 q 0,-0.066 0.036,-0.102 0.042,-0.042 0.102,-0.042 h 2.892 q 0.066,0 0.102,0.042 0.042,0.036 0.042,0.102 v 0.252 q 0,0.06 -0.042,0.102 -0.036,0.036 -0.102,0.036 h -1.146 v 3.528 q 0,0.06 -0.042,0.102 -0.036,0.036 -0.102,0.036 z"
   id="text6"
   style="font-size:6px;font-family:Rubik-Regular, Rubik;fill:#b68e00"
   aria-label="OFFSET" />
                    </g>
                    <g
   transform="translate(86.5989,197.487)"
   id="g9">
                        <g
   transform="matrix(6,0,0,6,44.4275,25.5577)"
   id="g8">
                        </g>
                        <path
   d="m 24.586001,25.618001 q -0.51,0 -0.876,-0.174 -0.366,-0.18 -0.564,-0.546 -0.198,-0.372 -0.222,-0.93 -0.006,-0.264 -0.006,-0.504 0,-0.246 0.006,-0.51 0.024,-0.552 0.228,-0.918 0.21,-0.372 0.576,-0.552 0.372,-0.186 0.858,-0.186 0.492,0 0.858,0.186 0.372,0.18 0.582,0.552 0.21,0.366 0.228,0.918 0.012,0.264 0.012,0.51 0,0.24 -0.012,0.504 -0.018,0.558 -0.222,0.93 -0.198,0.366 -0.564,0.546 -0.366,0.174 -0.882,0.174 z m 0,-0.51 q 0.462,0 0.75,-0.276 0.294,-0.276 0.318,-0.894 0.012,-0.27 0.012,-0.48 0,-0.216 -0.012,-0.48 -0.012,-0.414 -0.156,-0.672 -0.138,-0.258 -0.372,-0.378 -0.234,-0.12 -0.54,-0.12 -0.294,0 -0.528,0.12 -0.234,0.12 -0.378,0.378 -0.138,0.258 -0.156,0.672 -0.006,0.264 -0.006,0.48 0,0.21 0.006,0.48 0.024,0.618 0.318,0.894 0.294,0.276 0.744,0.276 z m 2.694,0.45 q -0.066,0 -0.102,-0.036 -0.036,-0.042 -0.036,-0.102 v -3.918 q 0,-0.066 0.036,-0.102 0.036,-0.042 0.102,-0.042 h 2.448 q 0.066,0 0.102,0.042 0.036,0.036 0.036,0.102 v 0.24 q 0,0.066 -0.036,0.102 -0.036,0.036 -0.102,0.036 h -2.004 v 1.398 h 1.884 q 0.066,0 0.102,0.042 0.036,0.036 0.036,0.102 v 0.24 q 0,0.06 -0.036,0.102 -0.036,0.036 -0.102,0.036 h -1.884 v 1.62 q 0,0.06 -0.042,0.102 -0.036,0.036 -0.102,0.036 z m 3.503998,0 q -0.066,0 -0.102,-0.036 -0.036,-0.042 -0.036,-0.102 v -3.918 q 0,-0.066 0.036,-0.102 0.036,-0.042 0.102,-0.042 h 2.448 q 0.066,0 0.102,0.042 0.036,0.036 0.036,0.102 v 0.24 q 0,0.066 -0.036,0.102 -0.036,0.036 -0.102,0.036 h -2.004 v 1.398 h 1.884 q 0.066,0 0.102,0.042 0.036,0.036 0.036,0.102 v 0.24 q 0,0.06 -0.036,0.102 -0.036,0.036 -0.102,0.036 h -1.884 v 1.62 q 0,0.06 -0.042,0.102 -0.036,0.036 -0.102,0.036 z m 4.672121,0.06 q -0.522,0 -0.876,-0.156 -0.354,-0.162 -0.546,-0.414 -0.186,-0.258 -0.198,-0.546 0,-0.048 0.036,-0.084 0.042,-0.042 0.096,-0.042 h 0.306 q 0.072,0 0.108,0.036 0.036,0.036 0.048,0.084 0.03,0.144 0.144,0.288 0.12,0.138 0.33,0.234 0.216,0.09 0.552,0.09 0.516,0 0.756,-0.18 0.246,-0.186 0.246,-0.492 0,-0.21 -0.132,-0.336 -0.126,-0.132 -0.39,-0.234 -0.264,-0.102 -0.684,-0.222 -0.438,-0.126 -0.726,-0.276 -0.288,-0.15 -0.432,-0.372 -0.138,-0.222 -0.138,-0.564 0,-0.324 0.174,-0.576 0.174,-0.258 0.498,-0.408 0.33,-0.15 0.798,-0.15 0.372,0 0.648,0.102 0.282,0.096 0.468,0.264 0.186,0.162 0.282,0.354 0.096,0.186 0.102,0.366 0,0.042 -0.03,0.084 -0.03,0.036 -0.096,0.036 h -0.318 q -0.042,0 -0.09,-0.024 -0.042,-0.024 -0.066,-0.09 -0.036,-0.246 -0.276,-0.414 -0.24,-0.168 -0.624,-0.168 -0.39,0 -0.636,0.15 -0.24,0.15 -0.24,0.468 0,0.204 0.114,0.342 0.114,0.132 0.36,0.234 0.246,0.102 0.642,0.216 0.48,0.132 0.786,0.282 0.306,0.144 0.45,0.366 0.15,0.216 0.15,0.558 0,0.378 -0.198,0.648 -0.198,0.264 -0.558,0.408 -0.354,0.138 -0.84,0.138 z m 2.519998,-0.06 q -0.066,0 -0.102,-0.036 -0.036,-0.042 -0.036,-0.102 v -3.918 q 0,-0.066 0.036,-0.102 0.036,-0.042 0.102,-0.042 h 2.478 q 0.066,0 0.102,0.042 0.036,0.036 0.036,0.102 v 0.228 q 0,0.066 -0.036,0.102 -0.036,0.036 -0.102,0.036 h -2.04 v 1.314 h 1.908 q 0.066,0 0.102,0.042 0.036,0.036 0.036,0.102 v 0.222 q 0,0.06 -0.036,0.102 -0.036,0.036 -0.102,0.036 h -1.908 v 1.362 h 2.088 q 0.066,0 0.102,0.036 0.036,0.036 0.036,0.102 v 0.234 q 0,0.06 -0.036,0.102 -0.036,0.036 -0.102,0.036 z m 4.554006,0 q -0.06,0 -0.102,-0.036 -0.036,-0.042 -0.036,-0.102 v -3.528 h -1.152 q -0.06,0 -0.102,-0.036 -0.036,-0.042 -0.036,-0.102 v -0.252 q 0,-0.066 0.036,-0.102 0.042,-0.042 0.102,-0.042 h 2.892 q 0.066,0 0.102,0.042 0.042,0.036 0.042,0.102 v 0.252 q 0,0.06 -0.042,0.102 -0.036,0.036 -0.102,0.036 h -1.146 v 3.528 q 0,0.06 -0.042,0.102 -0.036,0.036 -0.102,0.036 z"
   id="text8"
   style="font-size:6px;font-family:Rubik-Regular, Rubik;fill:#b68e00"
   aria-label="OFFSET" />
                    </g>
                    <g
   transform="translate(86.5989,249.409)"
   id="g11">
                        <g
   transform="matrix(6,0,0,6,44.4275,25.5577)"
   id="g10">
                        </g>
                        <path
   d="m 24.586001,25.618001 q -0.51,0 -0.876,-0.174 -0.366,-0.18 -0.564,-0.546 -0.198,-0.372 -0.222,-0.93 -0.006,-0.264 -0.006,-0.504 0,-0.246 0.006,-0.51 0.024,-0.552 0.228,-0.918 0.21,-0.372 0.576,-0.552 0.372,-0.186 0.858,-0.186 0.492,0 0.858,0.186 0.372,0.18 0.582,0.552 0.21,0.366 0.228,0.918 0.012,0.264 0.012,0.51 0,0.24 -0.012,0.504 -0.018,0.558 -0.222,0.93 -0.198,0.366 -0.564,0.546 -0.366,0.174 -0.882,0.174 z m 0,-0.51 q 0.462,0 0.75,-0.276 0.294,-0.276 0.318,-0.894 0.012,-0.27 0.012,-0.48 0,-0.216 -0.012,-0.48 -0.012,-0.414 -0.156,-0.672 -0.138,-0.258 -0.372,-0.378 -0.234,-0.12 -0.54,-0.12 -0.294,0 -0.528,0.12 -0.234,0.12 -0.378,0.378 -0.138,0.258 -0.156,0.672 -0.006,0.264 -0.006,0.48 0,0.21 0.006,0.48 0.024,0.618 0.318,0.894 0.294,0.276 0.744,0.276 z m 2.694,0.45 q -0.066,0 -0.102,-0.036 -0.036,-0.042 -0.036,-0.102 v -3.918 q 0,-0.066 0.036,-0.102 0.036,-0.042 0.102,-0.042 h 2.448 q 0.066,0 0.102,0.042 0.036,0.036 0.036,0.102 v 0.24 q 0,0.066 -0.036,0.102 -0.036,0.036 -0.102,0.036 h -2.004 v 1.398 h 1.884 q 0.066,0 0.102,0.042 0.036,0.036 0.036,0.102 v 0.24 q 0,0.06 -0.036,0.102 -0.036,0.036 -0.102,0.036 h -1.884 v 1.62 q 0,0.06 -0.042,0.102 -0.036,0.036 -0.102,0.036 z m 3.503998,0 q -0.066,0 -0.102,-0.036 -0.036,-0.042 -0.036,-0.102 v -3.918 q 0,-0.066 0.036,-0.102 0.036,-0.042 0.102,-0.042 h 2.448 q 0.066,0 0.102,0.042 0.036,0.036 0.036,0.102 v 0.24 q 0,0.066 -0.036,0.102 -0.036,0.036 -0.102,0.036 h -2.004 v 1.398 h 1.884 q 0.066,0 0.102,0.042 0.036,0.036 0.036,0.102 v 0.24 q 0,0.06 -0.036,0.102 -0.036,0.036 -0.102,0.036 h -1.884 v 1.62 q 0,0.06 -0.042,0.102 -0.036,0.036 -0.102,0.036 z m 4.672121,0.06 q -0.522,0 -0.876,-0.156 -0.354,-0.162 -0.546,-0.414 -0.186,-0.258 -0.198,-0.546 0,-0.048 0.036,-0.084 0.042,-0.042 0.096,-0.042 h 0.306 q 0.072,0 0.108,0.036 0.036,0.036 0.048,0.084 0.03,0.144 0.144,0.288 0.12,0.138 0.33,0.234 0.216,0.09 0.552,0.09 0.516,0 0.756,-0.18 0.246,-0.186 0.246,-0.492 0,-0.21 -0.132,-0.336 -0.126,-0.132 -0.39,-0.234 -0.264,-0.102 -0.684,-0.222 -0.438,-0.126 -0.726,-0.276 -0.288,-0.15 -0.432,-0.372 -0.138,-0.222 -0.138,-0.564 0,-0.324 0.174,-0.576 0.174,-0.258 0.498,-0.408 0.33,-0.15 0.798,-0.15 0.372,0 0.648,0.102 0.282,0.096 0.468,0.264 0.186,0.162 0.282,0.354 0.096,0.186 0.102,0.366 0,0.042 -0.03,0.084 -0.03,0.036 -0.096,0.036 h -0.318 q -0.042,0 -0.09,-0.024 -0.042,-0.024 -0.066,-0.09 -0.036,-0.246 -0.276,-0.414 -0.24,-0.168 -0.624,-0.168 -0.39,0 -0.636,0.15 -0.24,0.15 -0.24,0.468 0,0.204 0.114,0.342 0.114,0.132 0.36,0.234 0.246,0.102 0.642,0.216 0.48,0.132 0.786,0.282 0.306,0.144 0.45,0.366 0.15,0.216 0.15,0.558 0,0.378 -0.198,0.648 -0.198,0.264 -0.558,0.408 -0.354,0.138 -0.84,0.138 z m 2.519998,-0.06 q -0.066,0 -0.102,-0.036 -0.036,-0.042 -0.036,-0.102 v -3.918 q 0,-0.066 0.036,-0.102 0.036,-0.042 0.102,-0.042 h 2.478 q 0.066,0 0.102,0.042 0.036,0.036 0.036,0.102 v 0.228 q 0,0.066 -0.036,0.102 -0.036,0.036 -0.102,0.036 h -2.04 v 1.314 h 1.908 q 0.066,0 0.102,0.042 0.036,0.036 0.036,0.102 v 0.222 q 0,0.06 -0.036,0.102 -0.036,0.036 -0.102,0.036 h -1.908 v 1.362 h 2.088 q 0.066,0 0.102,0.036 0.036,0.036 0.036,0.102 v 0.234 q 0,0.06 -0.036,0.102 -0.036,0.036 -0.102,0.036 z m 4.554006,0 q -0.06,0 -0.102,-0.036 -0.036,-0.042 -0.036,-0.102 v -3.528 h -1.152 q -0.06,0 -0.102,-0.036 -0.036,-0.042 -0.036,-0.102 v -0.252 q 0,-0.066 0.036,-0.102 0.042,-0.042 0.102,-0.042 h 2.892 q 0.066,0 0.102,0.042 0.042,0.036 0.042,0.102 v 0.252 q 0,0.06 -0.042,0.102 -0.036,0.036 -0.102,0.036 h -1.146 v 3.528 q 0,0.06 -0.042,0.102 -0.036,0.036 -0.102,0.036 z"
   id="text10"
   style="font-size:6px;font-family:Rubik-Regular, Rubik;fill:#b68e00"
   aria-label="OFFSET" />
                    </g>
                    <g
   transform="translate(86.5989,301.686)"
   id="g13">
                        <g
   transform="matrix(6,0,0,6,44.4275,25.5577)"
   id="g12">
                        </g>
                        <path
   d="m 24.586001,25.618001 q -0.51,0 -0.876,-0.174 -0.366,-0.18 -0.564,-0.546 -0.198,-0.372 -0.222,-0.93 -0.006,-0.264 -0.006,-0.504 0,-0.246 0.006,-0.51 0.024,-0.552 0.228,-0.918 0.21,-0.372 0.576,-0.552 0.372,-0.186 0.858,-0.186 0.492,0 0.858,0.186 0.372,0.18 0.582,0.552 0.21,0.366 0.228,0.918 0.012,0.264 0.012,0.51 0,0.24 -0.012,0.504 -0.018,0.558 -0.222,0.93 -0.198,0.366 -0.564,0.546 -0.366,0.174 -0.882,0.174 z m 0,-0.51 q 0.462,0 0.75,-0.276 0.294,-0.276 0.318,-0.894 0.012,-0.27 0.012,-0.48 0,-0.216 -0.012,-0.48 -0.012,-0.414 -0.156,-0.672 -0.138,-0.258 -0.372,-0.378 -0.234,-0.12 -0.54,-0.12 -0.294,0 -0.528,0.12 -0.234,0.12 -0.378,0.378 -0.138,0.258 -0.156,0.672 -0.006,0.264 -0.006,0.48 0,0.21 0.006,0.48 0.024,0.618 0.318,0.894 0.294,0.276 0.744,0.276 z m 2.694,0.45 q -0.066,0 -0.102,-0.036 -0.036,-0.042 -0.036,-0.102 v -3.918 q 0,-0.066 0.036,-0.102 0.036,-0.042 0.102,-0.042 h 2.448 q 0.066,0 0.102,0.042 0.036,0.036 0.036,0.102 v 0.24 q 0,0.066 -0.036,0.102 -0.036,0.036 -0.102,0.036 h -2.004 v 1.398 h 1.884 q 0.066,0 0.102,0.042 0.036,0.036 0.036,0.102 v 0.24 q 0,0.06 -0.036,0.102 -0.036,0.036 -0.102,0.036 h -1.884 v 1.62 q 0,0.06 -0.042,0.102 -0.036,0.036 -0.102,0.036 z m 3.503998,0 q -0.066,0 -0.102,-0.036 -0.036,-0.042 -0.036,-0.102 v -3.918 q 0,-0.066 0.036,-0.102 0.036,-0.042 0.102,-0.042 h 2.448 q 0.066,0 0.102,0.042 0.036,0.036 0.036,0.102 v 0.24 q 0,0.066 -0.036,0.102 -0.036,0.036 -0.102,0.036 h -2.004 v 1.398 h 1.884 q 0.066,0 0.102,0.042 0.036,0.036 0.036,0.102 v 0.24 q 0,0.06 -0.036,0.102 -0.036,0.036 -0.102,0.036 h -1.884 v 1.62 q 0,0.06 -0.042,0.102 -0.036,0.036 -0.102,0.036 z m 4.672121,0.06 q -0.522,0 -0.876,-0.156 -0.354,-0.162 -0.546,-0.414 -0.186,-0.258 -0.198,-0.546 0,-0.048 0.036,-0.084 0.042,-0.042 0.096,-0.042 h 0.306 q 0.072,0 0.108,0.036 0.036,0.036 0.048,0.084 0.03,0.144 0.144,0.288 0.12,0.138 0.33,0.234 0.216,0.09 0.552,0.09 0.516,0 0.756,-0.18 0.246,-0.186 0.246,-0.492 0,-0.21 -0.132,-0.336 -0.126,-0.132 -0.39,-0.234 -0.264,-0.102 -0.684,-0.222 -0.438,-0.126 -0.726,-0.276 -0.288,-0.15 -0.432,-0.372 -0.138,-0.222 -0.138,-0.564 0,-0.324 0.174,-0.576 0.174,-0.258 0.498,-0.408 0.33,-0.15 0.798,-0.15 0.372,0 0.648,0.102 0.282,0.096 0.468,0.264 0.186,0.162 0.282,0.354 0.096,0.186 0.102,0.366 0,0.042 -0.03,0.084 -0.03,0.036 -0.096,0.036 h -0.318 q -0.042,0 -0.09,-0.024 -0.042,-0.024 -0.066,-0.09 -0.036,-0.246 -0.276,-0.414 -0.24,-0.168 -0.624,-0.168 -0.39,0 -0.636,0.15 -0.24,0.15 -0.24,0.468 0,0.204 0.114,0.342 0.114,0.132 0.36,0.234 0.246,0.102 0.642,0.216 0.48,0.132 0.786,0.282 0.306,0.144 0.45,0.366 0.15,0.216 0.15,0.558 0,0.378 -0.198,0.648 -0.198,0.264 -0.558,0.408 -0.354,0.138 -0.84,0.138 z m 2.519998,-0.06 q -0.066,0 -0.102,-0.036 -0.036,-0.042 -0.036,-0.102 v -3.918 q 0,-0.066 0.036,-0.102 0.036,-0.042 0.102,-0.042 h 2.478 q 0.066,0 0.102,0.042 0.036,0.036 0.036,0.102 v 0.228 q 0,0.066 -0.036,0.102 -0.036,0.036 -0.102,0.036 h -2.04 v 1.314 h 1.908 q 0.066,0 0.102,0.042 0.036,0.036 0.036,0.102 v 0.222 q 0,0.06 -0.036,0.102 -0.036,0.036 -0.102,0.036 h -1.908 v 1.362 h 2.088 q 0.066,0 0.102,0.036 0.036,0.036 0.036,0.102 v 0.234 q 0,0.06 -0.036,0.102 -0.036,0.036 -0.102,0.036 z m 4.554006,0 q -0.06,0 -0.102,-0.036 -0.036,-0.042 -0.036,-0.102 v -3.528 h -1.152 q -0.06,0 -0.102,-0.036 -0.036,-0.042 -0.036,-0.102 v -0.252 q 0,-0.066 0.036,-0.102 0.042,-0.042 0.102,-0.042 h 2.892 q 0.066,0 0.102,0.042 0.042,0.036 0.042,0.102 v 0.252 q 0,0.06 -0.042,0.102 -0.036,0.036 -0.102,0.036 h -1.146 v 3.528 q 0,0.06 -0.042,0.102 -0.036,0.036 -0.102,0.036 z"
   id="text12"
   style="font-size:6px;font-family:Rubik-Regular, Rubik;fill:#b68e00"
   aria-label="OFFSET" />
                    </g>
                    <g
   transform="translate(28.2259,-0.0536233)"
   id="g17">
                        <g
   transform="translate(-5.04291,1.78167)"
   id="g15">
                            <path
   d="m 21.491,61.315 h 0.09 0.005 c 0.06,-10e-4 0.107,-0.021 0.144,-0.058 0.037,-0.037 0.058,-0.086 0.058,-0.149 0,0 0,-1.239 0,-1.239 0,0 1.233,0 1.233,0 0.062,0 0.111,-0.02 0.149,-0.058 0.037,-0.037 0.058,-0.086 0.058,-0.149 l -0.001,10e-4 0.001,-0.002 -0.001,-0.082 0.001,-10e-4 c 0,-0.062 -0.021,-0.111 -0.058,-0.149 -0.038,-0.037 -0.087,-0.058 -0.149,-0.058 h -1.233 c 0,0 0,-1.203 0,-1.203 0,-0.062 -0.021,-0.111 -0.058,-0.149 -0.038,-0.037 -0.087,-0.058 -0.149,-0.058 v 0 H 21.58 21.491 v 0 c -0.063,0 -0.112,0.021 -0.15,0.058 -0.037,0.038 -0.057,0.087 -0.057,0.149 v 1.203 c 0,0 -1.227,0 -1.227,0 -0.063,0 -0.112,0.021 -0.15,0.058 -0.037,0.038 -0.057,0.087 -0.057,0.149 l 0.075,0.075 c 0,0 -0.075,-0.075 -0.075,-0.075 v 0.083 0.002 -10e-4 c 0,0.063 0.02,0.112 0.057,0.149 0.038,0.038 0.087,0.058 0.15,0.058 h 1.227 c 0,0 0,1.239 0,1.239 0,0.063 0.02,0.112 0.057,0.149 0.038,0.038 0.087,0.058 0.15,0.058 z"
   style="fill:#b68e00"
   id="path13" />
                            <g
   transform="translate(5.56116,0.018)"
   id="g14">
                                <path
   d="m 21.359,59.844 c 0,0 -0.028,0 0,0 h -1.302 c -0.055,0 -0.099,-0.017 -0.132,-0.05 -0.033,-0.033 -0.05,-0.077 -0.05,-0.132 v 10e-4 -0.002 -0.083 c 0,0 0.05,0.05 0.05,0.05 l -0.05,-0.05 c 0,-0.054 0.017,-0.098 0.05,-0.131 0.033,-0.033 0.077,-0.051 0.132,-0.051 h 1.302 c -0.028,0 -0.061,0 0.004,0 h 0.349 0.001 v 0 h 0.981 c 0.054,0 0.098,0.018 0.131,0.051 0.033,0.033 0.051,0.077 0.051,0.131 h -0.001 c 0.001,10e-4 0.001,0.002 0.001,0.003 v 0.08 l -0.001,0.002 0.001,-10e-4 c 0,0.055 -0.018,0.099 -0.051,0.132 -0.033,0.033 -0.077,0.05 -0.131,0.05 z"
   style="fill:#b68e00"
   id="path14" />
                            </g>
                        </g>
                        <g
   transform="matrix(1,0,0,0.778678,0.117124,13.5489)"
   id="g16">
                            <path
   d="m 19.403,64.468 v -5.981 c 0,-0.177 -0.112,-0.321 -0.25,-0.321 -0.138,0 -0.25,0.144 -0.25,0.321 v 5.981 c 0,0.177 0.112,0.321 0.25,0.321 0.138,0 0.25,-0.144 0.25,-0.321 z"
   style="fill:#b68e00"
   id="path15" />
                        </g>
                    </g>
                    <g
   transform="translate(28.1459,51.9443)"
   id="g21">
                        <g
   transform="translate(-5.04291,1.78167)"
   id="g19">
                            <path
   d="m 21.491,61.315 h 0.09 0.005 c 0.06,-10e-4 0.107,-0.021 0.144,-0.058 0.037,-0.037 0.058,-0.086 0.058,-0.149 0,0 0,-1.239 0,-1.239 0,0 1.233,0 1.233,0 0.062,0 0.111,-0.02 0.149,-0.058 0.037,-0.037 0.058,-0.086 0.058,-0.149 l -0.001,10e-4 0.001,-0.002 -0.001,-0.082 0.001,-10e-4 c 0,-0.062 -0.021,-0.111 -0.058,-0.149 -0.038,-0.037 -0.087,-0.058 -0.149,-0.058 h -1.233 c 0,0 0,-1.203 0,-1.203 0,-0.062 -0.021,-0.111 -0.058,-0.149 -0.038,-0.037 -0.087,-0.058 -0.149,-0.058 v 0 H 21.58 21.491 v 0 c -0.063,0 -0.112,0.021 -0.15,0.058 -0.037,0.038 -0.057,0.087 -0.057,0.149 v 1.203 c 0,0 -1.227,0 -1.227,0 -0.063,0 -0.112,0.021 -0.15,0.058 -0.037,0.038 -0.057,0.087 -0.057,0.149 l 0.075,0.075 c 0,0 -0.075,-0.075 -0.075,-0.075 v 0.083 0.002 -10e-4 c 0,0.063 0.02,0.112 0.057,0.149 0.038,0.038 0.087,0.058 0.15,0.058 h 1.227 c 0,0 0,1.239 0,1.239 0,0.063 0.02,0.112 0.057,0.149 0.038,0.038 0.087,0.058 0.15,0.058 z"
   style="fill:#b68e00"
   id="path17" />
                            <g
   transform="translate(5.56116,0.018)"
   id="g18">
                                <path
   d="m 21.359,59.844 c 0,0 -0.028,0 0,0 h -1.302 c -0.055,0 -0.099,-0.017 -0.132,-0.05 -0.033,-0.033 -0.05,-0.077 -0.05,-0.132 v 10e-4 -0.002 -0.083 c 0,0 0.05,0.05 0.05,0.05 l -0.05,-0.05 c 0,-0.054 0.017,-0.098 0.05,-0.131 0.033,-0.033 0.077,-0.051 0.132,-0.051 h 1.302 c -0.028,0 -0.061,0 0.004,0 h 0.349 0.001 v 0 h 0.981 c 0.054,0 0.098,0.018 0.131,0.051 0.033,0.033 0.051,0.077 0.051,0.131 h -0.001 c 0.001,10e-4 0.001,0.002 0.001,0.003 v 0.08 l -0.001,0.002 0.001,-10e-4 c 0,0.055 -0.018,0.099 -0.051,0.132 -0.033,0.033 -0.077,0.05 -0.131,0.05 z"
   style="fill:#b68e00"
   id="path18" />
                            </g>
                        </g>
                        <g
   transform="matrix(1,0,0,0.778678,0.117124,13.5489)"
   id="g20">
                            <path
   d="m 19.403,64.468 v -5.981 c 0,-0.177 -0.112,-0.321 -0.25,-0.321 -0.138,0 -0.25,0.144 -0.25,0.321 v 5.981 c 0,0.177 0.112,0.321 0.25,0.321 0.138,0 0.25,-0.144 0.25,-0.321 z"
   style="fill:#b68e00"
   id="path19" />
                        </g>
                    </g>
                    <g
   transform="translate(28.2384,104.243)"
   id="g25">
                        <g
   transform="translate(-5.04291,1.78167)"
   id="g23">
                            <path
   d="m 21.491,61.315 h 0.09 0.005 c 0.06,-10e-4 0.107,-0.021 0.144,-0.058 0.037,-0.037 0.058,-0.086 0.058,-0.149 0,0 0,-1.239 0,-1.239 0,0 1.233,0 1.233,0 0.062,0 0.111,-0.02 0.149,-0.058 0.037,-0.037 0.058,-0.086 0.058,-0.149 l -0.001,10e-4 0.001,-0.002 -0.001,-0.082 0.001,-10e-4 c 0,-0.062 -0.021,-0.111 -0.058,-0.149 -0.038,-0.037 -0.087,-0.058 -0.149,-0.058 h -1.233 c 0,0 0,-1.203 0,-1.203 0,-0.062 -0.021,-0.111 -0.058,-0.149 -0.038,-0.037 -0.087,-0.058 -0.149,-0.058 v 0 H 21.58 21.491 v 0 c -0.063,0 -0.112,0.021 -0.15,0.058 -0.037,0.038 -0.057,0.087 -0.057,0.149 v 1.203 c 0,0 -1.227,0 -1.227,0 -0.063,0 -0.112,0.021 -0.15,0.058 -0.037,0.038 -0.057,0.087 -0.057,0.149 l 0.075,0.075 c 0,0 -0.075,-0.075 -0.075,-0.075 v 0.083 0.002 -10e-4 c 0,0.063 0.02,0.112 0.057,0.149 0.038,0.038 0.087,0.058 0.15,0.058 h 1.227 c 0,0 0,1.239 0,1.239 0,0.063 0.02,0.112 0.057,0.149 0.038,0.038 0.087,0.058 0.15,0.058 z"
   style="fill:#b68e00"
   id="path21" />
                            <g
   transform="translate(5.56116,0.018)"
   id="g22">
                                <path
   d="m 21.359,59.844 c 0,0 -0.028,0 0,0 h -1.302 c -0.055,0 -0.099,-0.017 -0.132,-0.05 -0.033,-0.033 -0.05,-0.077 -0.05,-0.132 v 10e-4 -0.002 -0.083 c 0,0 0.05,0.05 0.05,0.05 l -0.05,-0.05 c 0,-0.054 0.017,-0.098 0.05,-0.131 0.033,-0.033 0.077,-0.051 0.132,-0.051 h 1.302 c -0.028,0 -0.061,0 0.004,0 h 0.349 0.001 v 0 h 0.981 c 0.054,0 0.098,0.018 0.131,0.051 0.033,0.033 0.051,0.077 0.051,0.131 h -0.001 c 0.001,10e-4 0.001,0.002 0.001,0.003 v 0.08 l -0.001,0.002 0.001,-10e-4 c 0,0.055 -0.018,0.099 -0.051,0.132 -0.033,0.033 -0.077,0.05 -0.131,0.05 z"
   style="fill:#b68e00"
   id="path22" />
                            </g>
                        </g>
                        <g
   transform="matrix(1,0,0,0.778678,0.117124,13.5489)"
   id="g24">
                            <path
   d="m 19.403,64.468 v -5.981 c 0,-0.177 -0.112,-0.321 -0.25,-0.321 -0.138,0 -0.25,0.144 -0.25,0.321 v 5.981 c 0,0.177 0.112,0.321 0.25,0.321 0.138,0 0.25,-0.144 0.25,-0.321 z"
   style="fill:#b68e00"
   id="path23" />
                        </g>
                    </g>
                    <g
   transform="translate(28.2616,156.199)"
   id="g29">
                        <g
   transform="translate(-5.04291,1.78167)"
   id="g27">
                            <path
   d="m 21.491,61.315 h 0.09 0.005 c 0.06,-10e-4 0.107,-0.021 0.144,-0.058 0.037,-0.037 0.058,-0.086 0.058,-0.149 0,0 0,-1.239 0,-1.239 0,0 1.233,0 1.233,0 0.062,0 0.111,-0.02 0.149,-0.058 0.037,-0.037 0.058,-0.086 0.058,-0.149 l -0.001,10e-4 0.001,-0.002 -0.001,-0.082 0.001,-10e-4 c 0,-0.062 -0.021,-0.111 -0.058,-0.149 -0.038,-0.037 -0.087,-0.058 -0.149,-0.058 h -1.233 c 0,0 0,-1.203 0,-1.203 0,-0.062 -0.021,-0.111 -0.058,-0.149 -0.038,-0.037 -0.087,-0.058 -0.149,-0.058 v 0 H 21.58 21.491 v 0 c -0.063,0 -0.112,0.021 -0.15,0.058 -0.037,0.038 -0.057,0.087 -0.057,0.149 v 1.203 c 0,0 -1.227,0 -1.227,0 -0.063,0 -0.112,0.021 -0.15,0.058 -0.037,0.038 -0.057,0.087 -0.057,0.149 l 0.075,0.075 c 0,0 -0.075,-0.075 -0.075,-0.075 v 0.083 0.002 -10e-4 c 0,0.063 0.02,0.112 0.057,0.149 0.038,0.038 0.087,0.058 0.15,0.058 h 1.227 c 0,0 0,1.239 0,1.239 0,0.063 0.02,0.112 0.057,0.149 0.038,0.038 0.087,0.058 0.15,0.058 z"
   style="fill:#b68e00"
   id="path25" />
                            <g
   transform="translate(5.56116,0.018)"
   id="g26">
                                <path
   d="m 21.359,59.844 c 0,0 -0.028,0 0,0 h -1.302 c -0.055,0 -0.099,-0.017 -0.132,-0.05 -0.033,-0.033 -0.05,-0.077 -0.05,-0.132 v 10e-4 -0.002 -0.083 c 0,0 0.05,0.05 0.05,0.05 l -0.05,-0.05 c 0,-0.054 0.017,-0.098 0.05,-0.131 0.033,-0.033 0.077,-0.051 0.132,-0.051 h 1.302 c -0.028,0 -0.061,0 0.004,0 h 0.349 0.001 v 0 h 0.981 c 0.054,0 0.098,0.018 0.131,0.051 0.033,0.033 0.051,0.077 0.051,0.131 h -0.001 c 0.001,10e-4 0.001,0.002 0.001,0.003 v 0.08 l -0.001,0.002 0.001,-10e-4 c 0,0.055 -0.018,0.099 -0.051,0.132 -0.033,0.033 -0.077,0.05 -0.131,0.05 z"
   style="fill:#b68e00"
   id="path26" />
                            </g>
                        </g>
                        <g
   transform="matrix(1,0,0,0.778678,0.117124,13.5489)"
   id="g28">
                            <path
   d="m 19.403,64.468 v -5.981 c 0,-0.177 -0.112,-0.321 -0.25,-0.321 -0.138,0 -0.25,0.144 -0.25,0.321 v 5.981 c 0,0.177 0.112,0.321 0.25,0.321 0.138,0 0.25,-0.144 0.25,-0.321 z"
   style="fill:#b68e00"
   id="path27" />
                        </g>
                    </g>
                    <g
   transform="translate(28.2151,208.459)"
   id="g33">
                        <g
   transform="translate(-5.04291,1.78167)"
   id="g31">
                            <path
   d="m 21.491,61.315 h 0.09 0.005 c 0.06,-10e-4 0.107,-0.021 0.144,-0.058 0.037,-0.037 0.058,-0.086 0.058,-0.149 0,0 0,-1.239 0,-1.239 0,0 1.233,0 1.233,0 0.062,0 0.111,-0.02 0.149,-0.058 0.037,-0.037 0.058,-0.086 0.058,-0.149 l -0.001,10e-4 0.001,-0.002 -0.001,-0.082 0.001,-10e-4 c 0,-0.062 -0.021,-0.111 -0.058,-0.149 -0.038,-0.037 -0.087,-0.058 -0.149,-0.058 h -1.233 c 0,0 0,-1.203 0,-1.203 0,-0.062 -0.021,-0.111 -0.058,-0.149 -0.038,-0.037 -0.087,-0.058 -0.149,-0.058 v 0 H 21.58 21.491 v 0 c -0.063,0 -0.112,0.021 -0.15,0.058 -0.037,0.038 -0.057,0.087 -0.057,0.149 v 1.203 c 0,0 -1.227,0 -1.227,0 -0.063,0 -0.112,0.021 -0.15,0.058 -0.037,0.038 -0.057,0.087 -0.057,0.149 l 0.075,0.075 c 0,0 -0.075,-0.075 -0.075,-0.075 v 0.083 0.002 -10e-4 c 0,0.063 0.02,0.112 0.057,0.149 0.038,0.038 0.087,0.058 0.15,0.058 h 1.227 c 0,0 0,1.239 0,1.239 0,0.063 0.02,0.112 0.057,0.149 0.038,0.038 0.087,0.058 0.15,0.058 z"
   style="fill:#b68e00"
   id="path29" />
                            <g
   transform="translate(5.56116,0.018)"
   id="g30">
                                <path
   d="m 21.359,59.844 c 0,0 -0.028,0 0,0 h -1.302 c -0.055,0 -0.099,-0.017 -0.132,-0.05 -0.033,-0.033 -0.05,-0.077 -0.05,-0.132 v 10e-4 -0.002 -0.083 c 0,0 0.05,0.05 0.05,0.05 l -0.05,-0.05 c 0,-0.054 0.017,-0.098 0.05,-0.131 0.033,-0.033 0.077,-0.051 0.132,-0.051 h 1.302 c -0.028,0 -0.061,0 0.004,0 h 0.349 0.001 v 0 h 0.981 c 0.054,0 0.098,0.018 0.131,0.051 0.033,0.033 0.051,0.077 0.051,0.131 h -0.001 c 0.001,10e-4 0.001,0.002 0.001,0.003 v 0.08 l -0.001,0.002 0.001,-10e-4 c 0,0.055 -0.018,0.099 -0.051,0.132 -0.033,0.033 -0.077,0.05 -0.131,0.05 z"
   style="fill:#b68e00"
   id="path30" />
                            </g>
                        </g>
                        <g
   transform="matrix(1,0,0,0.778678,0.117124,13.5489)"
   id="g32">
                            <path
   d="m 19.403,64.468 v -5.981 c 0,-0.177 -0.112,-0.321 -0.25,-0.321 -0.138,0 -0.25,0.144 -0.25,0.321 v 5.981 c 0,0.177 0.112,0.321 0.25,0.321 0.138,0 0.25,-0.144 0.25,-0.321 z"
   style="fill:#b68e00"
   id="path31" />
                        </g>
                    </g>
                    <g
   transform="translate(28.2616,260.514)"
   id="g37">
                        <g
   transform="translate(-5.04291,1.78167)"
   id="g35">
                            <path
   d="m 21.491,61.315 h 0.09 0.005 c 0.06,-10e-4 0.107,-0.021 0.144,-0.058 0.037,-0.037 0.058,-0.086 0.058,-0.149 0,0 0,-1.239 0,-1.239 0,0 1.233,0 1.233,0 0.062,0 0.111,-0.02 0.149,-0.058 0.037,-0.037 0.058,-0.086 0.058,-0.149 l -0.001,10e-4 0.001,-0.002 -0.001,-0.082 0.001,-10e-4 c 0,-0.062 -0.021,-0.111 -0.058,-0.149 -0.038,-0.037 -0.087,-0.058 -0.149,-0.058 h -1.233 c 0,0 0,-1.203 0,-1.203 0,-0.062 -0.021,-0.111 -0.058,-0.149 -0.038,-0.037 -0.087,-0.058 -0.149,-0.058 v 0 H 21.58 21.491 v 0 c -0.063,0 -0.112,0.021 -0.15,0.058 -0.037,0.038 -0.057,0.087 -0.057,0.149 v 1.203 c 0,0 -1.227,0 -1.227,0 -0.063,0 -0.112,0.021 -0.15,0.058 -0.037,0.038 -0.057,0.087 -0.057,0.149 l 0.075,0.075 c 0,0 -0.075,-0.075 -0.075,-0.075 v 0.083 0.002 -10e-4 c 0,0.063 0.02,0.112 0.057,0.149 0.038,0.038 0.087,0.058 0.15,0.058 h 1.227 c 0,0 0,1.239 0,1.239 0,0.063 0.02,0.112 0.057,0.149 0.038,0.038 0.087,0.058 0.15,0.058 z"
   style="fill:#b68e00"
   id="path33" />
                            <g
   transform="translate(5.56116,0.018)"
   id="g34">
                                <path
   d="m 21.359,59.844 c 0,0 -0.028,0 0,0 h -1.302 c -0.055,0 -0.099,-0.017 -0.132,-0.05 -0.033,-0.033 -0.05,-0.077 -0.05,-0.132 v 10e-4 -0.002 -0.083 c 0,0 0.05,0.05 0.05,0.05 l -0.05,-0.05 c 0,-0.054 0.017,-0.098 0.05,-0.131 0.033,-0.033 0.077,-0.051 0.132,-0.051 h 1.302 c -0.028,0 -0.061,0 0.004,0 h 0.349 0.001 v 0 h 0.981 c 0.054,0 0.098,0.018 0.131,0.051 0.033,0.033 0.051,0.077 0.051,0.131 h -0.001 c 0.001,10e-4 0.001,0.002 0.001,0.003 v 0.08 l -0.001,0.002 0.001,-10e-4 c 0,0.055 -0.018,0.099 -0.051,0.132 -0.033,0.033 -0.077,0.05 -0.131,0.05 z"
   style="fill:#b68e00"
   id="path34" />
                            </g>
                        </g>
                        <g
   transform="matrix(1,0,0,0.778678,0.117124,13.5489)"
   id="g36">
                            <path
   d="m 19.403,64.468 v -5.981 c 0,-0.177 -0.112,-0.321 -0.25,-0.321 -0.138,0 -0.25,0.144 -0.25,0.321 v 5.981 c 0,0.177 0.112,0.321 0.25,0.321 0.138,0 0.25,-0.144 0.25,-0.321 z"
   style="fill:#b68e00"
   id="path35" />
                        </g>
                    </g>
                </g>
            </g><g
   id="White"
   transform="matrix(0.16000005,0,0,0.16000005,0,-7.9999991)"
   clip-path="url(#clipPath542)">
                <g
   transform="matrix(3.87728,0,0,3.87728,-1306.29,2861.97)"
   id="g44">
                    <g
   id="Logo">
                        <g
   id="g43">
                            <path
   d="m 468.555,40.864 c -1.585,0 -3.017,-0.372 -4.294,-1.116 -1.278,-0.744 -2.282,-1.764 -3.013,-3.06 -0.731,-1.296 -1.097,-2.744 -1.097,-4.344 0,-1.6 0.366,-3.048 1.097,-4.344 0.731,-1.296 1.735,-2.316 3.013,-3.06 1.277,-0.744 2.709,-1.116 4.294,-1.116 1.585,0 3.017,0.368 4.294,1.104 1.278,0.736 2.282,1.752 3.013,3.048 0.732,1.296 1.097,2.752 1.097,4.368 0,1.616 -0.365,3.072 -1.097,4.368 -0.731,1.296 -1.735,2.312 -3.013,3.048 -1.277,0.736 -2.709,1.104 -4.294,1.104 z m 0,-1.128 c 1.355,0 2.578,-0.32 3.671,-0.96 1.093,-0.64 1.955,-1.524 2.586,-2.652 0.631,-1.128 0.947,-2.388 0.947,-3.78 0,-1.392 -0.316,-2.652 -0.947,-3.78 -0.631,-1.128 -1.493,-2.012 -2.586,-2.652 -1.093,-0.64 -2.316,-0.96 -3.671,-0.96 -1.354,0 -2.582,0.32 -3.682,0.96 -1.101,0.64 -1.967,1.524 -2.598,2.652 -0.631,1.128 -0.946,2.388 -0.946,3.78 0,1.392 0.315,2.652 0.946,3.78 0.631,1.128 1.497,2.012 2.598,2.652 1.1,0.64 2.328,0.96 3.682,0.96 z"
   style="fill:#ffffff;fill-rule:nonzero"
   id="path37" />
                            <path
   d="m 485.294,40.864 c -1.185,0 -2.313,-0.212 -3.383,-0.636 -1.069,-0.424 -1.904,-0.972 -2.505,-1.644 l 0.531,-0.912 c 0.57,0.624 1.336,1.132 2.298,1.524 0.962,0.392 1.974,0.588 3.036,0.588 1.539,0 2.701,-0.304 3.486,-0.912 0.785,-0.608 1.178,-1.4 1.178,-2.376 0,-0.752 -0.208,-1.352 -0.624,-1.8 -0.415,-0.448 -0.931,-0.792 -1.547,-1.032 -0.615,-0.24 -1.447,-0.488 -2.493,-0.744 -1.185,-0.304 -2.136,-0.6 -2.852,-0.888 -0.715,-0.288 -1.323,-0.732 -1.824,-1.332 -0.5,-0.6 -0.75,-1.404 -0.75,-2.412 0,-0.816 0.208,-1.564 0.623,-2.244 0.416,-0.68 1.051,-1.22 1.905,-1.62 0.854,-0.4 1.92,-0.6 3.198,-0.6 0.893,0 1.77,0.136 2.632,0.408 0.862,0.272 1.608,0.64 2.24,1.104 l -0.439,0.984 c -0.647,-0.464 -1.359,-0.816 -2.136,-1.056 -0.777,-0.24 -1.543,-0.36 -2.297,-0.36 -1.493,0 -2.624,0.312 -3.394,0.936 -0.77,0.624 -1.154,1.432 -1.154,2.424 0,0.752 0.207,1.352 0.623,1.8 0.416,0.448 0.931,0.792 1.547,1.032 0.616,0.24 1.454,0.496 2.516,0.768 1.186,0.304 2.132,0.6 2.84,0.888 0.708,0.288 1.312,0.724 1.813,1.308 0.5,0.584 0.75,1.372 0.75,2.364 0,0.816 -0.212,1.56 -0.635,2.232 -0.423,0.672 -1.073,1.208 -1.951,1.608 -0.877,0.4 -1.955,0.6 -3.232,0.6 z"
   style="fill:#ffffff;fill-rule:nonzero"
   id="path38" />
                            <path
   d="m 497.96,25.048 h -5.818 v -1.104 h 12.814 v 1.104 h -5.818 v 15.696 h -1.178 z"
   style="fill:#ffffff;fill-rule:nonzero"
   id="path39" />
                            <path
   d="m 514.482,40.864 c -1.585,0 -3.017,-0.372 -4.294,-1.116 -1.278,-0.744 -2.282,-1.764 -3.013,-3.06 -0.731,-1.296 -1.097,-2.744 -1.097,-4.344 0,-1.6 0.366,-3.048 1.097,-4.344 0.731,-1.296 1.735,-2.316 3.013,-3.06 1.277,-0.744 2.709,-1.116 4.294,-1.116 1.585,0 3.017,0.368 4.294,1.104 1.278,0.736 2.282,1.752 3.013,3.048 0.731,1.296 1.097,2.752 1.097,4.368 0,1.616 -0.366,3.072 -1.097,4.368 -0.731,1.296 -1.735,2.312 -3.013,3.048 -1.277,0.736 -2.709,1.104 -4.294,1.104 z m 0,-1.128 c 1.354,0 2.578,-0.32 3.671,-0.96 1.093,-0.64 1.955,-1.524 2.586,-2.652 0.631,-1.128 0.946,-2.388 0.946,-3.78 0,-1.392 -0.315,-2.652 -0.946,-3.78 -0.631,-1.128 -1.493,-2.012 -2.586,-2.652 -1.093,-0.64 -2.317,-0.96 -3.671,-0.96 -1.355,0 -2.582,0.32 -3.683,0.96 -1.1,0.64 -1.966,1.524 -2.597,2.652 -0.631,1.128 -0.947,2.388 -0.947,3.78 0,1.392 0.316,2.652 0.947,3.78 0.631,1.128 1.497,2.012 2.597,2.652 1.101,0.64 2.328,0.96 3.683,0.96 z"
   style="fill:#ffffff;fill-rule:nonzero"
   id="path40" />
                            <path
   d="m 531.775,32.464 -3.625,3.864 v 4.416 h -1.177 v -16.8 h 1.177 v 10.8 l 10.09,-10.8 h 1.431 l -7.111,7.632 7.596,9.168 h -1.432 z"
   style="fill:#ffffff;fill-rule:nonzero"
   id="path41" />
                            <g
   transform="matrix(2.14927,0,0,2.14927,-118.516,-146.884)"
   id="g42">
                                <path
   d="m 262.169,79.482 3.04,7.08 3.04,-7.08 h 0.569 l -3.351,7.816 h -0.548 l -3.352,-7.816 c 0,0 0,-0.512 0,-0.512 h 2.376 v -1.523 h 0.512 v 2.035 z"
   style="fill:#ffffff;fill-rule:nonzero"
   id="path42" />
                            </g>
                        </g>
                    </g>
                </g>
                <g
   id="White-Silkscreen"
   serif:id="White Silkscreen"
   transform="matrix(8.33333,0,0,8.33333,0,50)">
                    <g
   transform="translate(-6.8359,2.99074)"
   id="g46">
                        <g
   transform="matrix(6,0,0,6,28.3655,25.5577)"
   id="g45">
                        </g>
                        <path
   d="m 23.218001,25.558001 q -0.066,0 -0.102,-0.036 -0.036,-0.042 -0.036,-0.102 v -3.924 q 0,-0.06 0.036,-0.096 0.036,-0.042 0.102,-0.042 h 0.318 q 0.06,0 0.096,0.042 0.042,0.036 0.042,0.096 v 3.924 q 0,0.06 -0.042,0.102 -0.036,0.036 -0.096,0.036 z m 1.638004,0 q -0.066,0 -0.102,-0.036 -0.036,-0.042 -0.036,-0.102 v -3.918 q 0,-0.066 0.036,-0.102 0.036,-0.042 0.102,-0.042 h 0.276 q 0.072,0 0.108,0.036 0.036,0.03 0.042,0.048 l 1.992,3.06 v -3 q 0,-0.066 0.036,-0.102 0.036,-0.042 0.102,-0.042 h 0.288 q 0.066,0 0.102,0.042 0.042,0.036 0.042,0.102 v 3.912 q 0,0.06 -0.042,0.102 -0.036,0.042 -0.096,0.042 h -0.288 q -0.066,0 -0.102,-0.036 -0.03,-0.036 -0.042,-0.048 l -1.986,-3.03 v 2.976 q 0,0.06 -0.042,0.102 -0.036,0.036 -0.102,0.036 z"
   id="text45"
   style="font-size:6px;font-family:Rubik-Regular, Rubik;fill:#ffffff"
   aria-label="IN" />
                    </g>
                    <g
   transform="translate(46.4583,40.8535)"
   id="g48">
                        <g
   transform="matrix(6,0,0,6,40.4675,25.5577)"
   id="g47">
                        </g>
                        <path
   d="m 23.218001,25.558001 q -0.066,0 -0.102,-0.036 -0.036,-0.042 -0.036,-0.102 v -3.924 q 0,-0.06 0.036,-0.096 0.036,-0.042 0.102,-0.042 h 0.318 q 0.06,0 0.096,0.042 0.036,0.036 0.036,0.096 v 3.54 h 1.998 q 0.066,0 0.102,0.042 0.036,0.036 0.036,0.102 v 0.24 q 0,0.06 -0.036,0.102 -0.036,0.036 -0.102,0.036 z m 3.377998,0 q -0.066,0 -0.102,-0.036 -0.036,-0.042 -0.036,-0.102 v -3.918 q 0,-0.066 0.036,-0.102 0.036,-0.042 0.102,-0.042 h 2.478 q 0.066,0 0.102,0.042 0.036,0.036 0.036,0.102 v 0.228 q 0,0.066 -0.036,0.102 -0.036,0.036 -0.102,0.036 h -2.04 v 1.314 h 1.908 q 0.066,0 0.102,0.042 0.036,0.036 0.036,0.102 v 0.222 q 0,0.06 -0.036,0.102 -0.036,0.036 -0.102,0.036 h -1.908 v 1.362 h 2.088 q 0.066,0 0.102,0.036 0.036,0.036 0.036,0.102 v 0.234 q 0,0.06 -0.036,0.102 -0.036,0.036 -0.102,0.036 z m 4.697253,0 q -0.09,0 -0.144,-0.042 -0.048,-0.042 -0.078,-0.114 l -1.338,-3.858 q -0.012,-0.036 -0.012,-0.066 0,-0.048 0.036,-0.084 0.036,-0.036 0.084,-0.036 h 0.312 q 0.072,0 0.108,0.042 0.042,0.036 0.048,0.066 l 1.176,3.402 1.176,-3.402 q 0.012,-0.03 0.048,-0.066 0.036,-0.042 0.108,-0.042 h 0.312 q 0.048,0 0.084,0.036 0.042,0.036 0.042,0.084 0,0.03 -0.012,0.066 l -1.344,3.858 q -0.024,0.072 -0.078,0.114 -0.048,0.042 -0.138,0.042 z m 2.820005,0 q -0.066,0 -0.102,-0.036 -0.036,-0.042 -0.036,-0.102 v -3.918 q 0,-0.066 0.036,-0.102 0.036,-0.042 0.102,-0.042 h 2.478 q 0.066,0 0.102,0.042 0.036,0.036 0.036,0.102 v 0.228 q 0,0.066 -0.036,0.102 -0.036,0.036 -0.102,0.036 h -2.04 v 1.314 h 1.908 q 0.066,0 0.102,0.042 0.036,0.036 0.036,0.102 v 0.222 q 0,0.06 -0.036,0.102 -0.036,0.036 -0.102,0.036 h -1.908 v 1.362 h 2.088 q 0.066,0 0.102,0.036 0.036,0.036 0.036,0.102 v 0.234 q 0,0.06 -0.036,0.102 -0.036,0.036 -0.102,0.036 z m 3.636005,0 q -0.066,0 -0.102,-0.036 -0.036,-0.042 -0.036,-0.102 v -3.924 q 0,-0.06 0.036,-0.096 0.036,-0.042 0.102,-0.042 h 0.318 q 0.06,0 0.096,0.042 0.036,0.036 0.036,0.096 v 3.54 h 1.998 q 0.066,0 0.102,0.042 0.036,0.036 0.036,0.102 v 0.24 q 0,0.06 -0.036,0.102 -0.036,0.036 -0.102,0.036 z"
   id="text47"
   style="font-size:6px;font-family:Rubik-Regular, Rubik;fill:#ffffff"
   aria-label="LEVEL" />
                    </g>
                    <g
   transform="translate(46.2423,92.9767)"
   id="g50">
                        <g
   transform="matrix(6,0,0,6,40.4675,25.5577)"
   id="g49">
                        </g>
                        <path
   d="m 23.218001,25.558001 q -0.066,0 -0.102,-0.036 -0.036,-0.042 -0.036,-0.102 v -3.924 q 0,-0.06 0.036,-0.096 0.036,-0.042 0.102,-0.042 h 0.318 q 0.06,0 0.096,0.042 0.036,0.036 0.036,0.096 v 3.54 h 1.998 q 0.066,0 0.102,0.042 0.036,0.036 0.036,0.102 v 0.24 q 0,0.06 -0.036,0.102 -0.036,0.036 -0.102,0.036 z m 3.377998,0 q -0.066,0 -0.102,-0.036 -0.036,-0.042 -0.036,-0.102 v -3.918 q 0,-0.066 0.036,-0.102 0.036,-0.042 0.102,-0.042 h 2.478 q 0.066,0 0.102,0.042 0.036,0.036 0.036,0.102 v 0.228 q 0,0.066 -0.036,0.102 -0.036,0.036 -0.102,0.036 h -2.04 v 1.314 h 1.908 q 0.066,0 0.102,0.042 0.036,0.036 0.036,0.102 v 0.222 q 0,0.06 -0.036,0.102 -0.036,0.036 -0.102,0.036 h -1.908 v 1.362 h 2.088 q 0.066,0 0.102,0.036 0.036,0.036 0.036,0.102 v 0.234 q 0,0.06 -0.036,0.102 -0.036,0.036 -0.102,0.036 z m 4.697253,0 q -0.09,0 -0.144,-0.042 -0.048,-0.042 -0.078,-0.114 l -1.338,-3.858 q -0.012,-0.036 -0.012,-0.066 0,-0.048 0.036,-0.084 0.036,-0.036 0.084,-0.036 h 0.312 q 0.072,0 0.108,0.042 0.042,0.036 0.048,0.066 l 1.176,3.402 1.176,-3.402 q 0.012,-0.03 0.048,-0.066 0.036,-0.042 0.108,-0.042 h 0.312 q 0.048,0 0.084,0.036 0.042,0.036 0.042,0.084 0,0.03 -0.012,0.066 l -1.344,3.858 q -0.024,0.072 -0.078,0.114 -0.048,0.042 -0.138,0.042 z m 2.820005,0 q -0.066,0 -0.102,-0.036 -0.036,-0.042 -0.036,-0.102 v -3.918 q 0,-0.066 0.036,-0.102 0.036,-0.042 0.102,-0.042 h 2.478 q 0.066,0 0.102,0.042 0.036,0.036 0.036,0.102 v 0.228 q 0,0.066 -0.036,0.102 -0.036,0.036 -0.102,0.036 h -2.04 v 1.314 h 1.908 q 0.066,0 0.102,0.042 0.036,0.036 0.036,0.102 v 0.222 q 0,0.06 -0.036,0.102 -0.036,0.036 -0.102,0.036 h -1.908 v 1.362 h 2.088 q 0.066,0 0.102,0.036 0.036,0.036 0.036,0.102 v 0.234 q 0,0.06 -0.036,0.102 -0.036,0.036 -0.102,0.036 z m 3.636005,0 q -0.066,0 -0.102,-0.036 -0.036,-0.042 -0.036,-0.102 v -3.924 q 0,-0.06 0.036,-0.096 0.036,-0.042 0.102,-0.042 h 0.318 q 0.06,0 0.096,0.042 0.036,0.036 0.036,0.096 v 3.54 h 1.998 q 0.066,0 0.102,0.042 0.036,0.036 0.036,0.102 v 0.24 q 0,0.06 -0.036,0.102 -0.036,0.036 -0.102,0.036 z"
   id="text49"
   style="font-size:6px;font-family:Rubik-Regular, Rubik;fill:#ffffff"
   aria-label="LEVEL" />
                    </g>
                    <g
   transform="translate(46.2423,145.062)"
   id="g52">
                        <g
   transform="matrix(6,0,0,6,40.4675,25.5577)"
   id="g51">
                        </g>
                        <path
   d="m 23.218001,25.558001 q -0.066,0 -0.102,-0.036 -0.036,-0.042 -0.036,-0.102 v -3.924 q 0,-0.06 0.036,-0.096 0.036,-0.042 0.102,-0.042 h 0.318 q 0.06,0 0.096,0.042 0.036,0.036 0.036,0.096 v 3.54 h 1.998 q 0.066,0 0.102,0.042 0.036,0.036 0.036,0.102 v 0.24 q 0,0.06 -0.036,0.102 -0.036,0.036 -0.102,0.036 z m 3.377998,0 q -0.066,0 -0.102,-0.036 -0.036,-0.042 -0.036,-0.102 v -3.918 q 0,-0.066 0.036,-0.102 0.036,-0.042 0.102,-0.042 h 2.478 q 0.066,0 0.102,0.042 0.036,0.036 0.036,0.102 v 0.228 q 0,0.066 -0.036,0.102 -0.036,0.036 -0.102,0.036 h -2.04 v 1.314 h 1.908 q 0.066,0 0.102,0.042 0.036,0.036 0.036,0.102 v 0.222 q 0,0.06 -0.036,0.102 -0.036,0.036 -0.102,0.036 h -1.908 v 1.362 h 2.088 q 0.066,0 0.102,0.036 0.036,0.036 0.036,0.102 v 0.234 q 0,0.06 -0.036,0.102 -0.036,0.036 -0.102,0.036 z m 4.697253,0 q -0.09,0 -0.144,-0.042 -0.048,-0.042 -0.078,-0.114 l -1.338,-3.858 q -0.012,-0.036 -0.012,-0.066 0,-0.048 0.036,-0.084 0.036,-0.036 0.084,-0.036 h 0.312 q 0.072,0 0.108,0.042 0.042,0.036 0.048,0.066 l 1.176,3.402 1.176,-3.402 q 0.012,-0.03 0.048,-0.066 0.036,-0.042 0.108,-0.042 h 0.312 q 0.048,0 0.084,0.036 0.042,0.036 0.042,0.084 0,0.03 -0.012,0.066 l -1.344,3.858 q -0.024,0.072 -0.078,0.114 -0.048,0.042 -0.138,0.042 z m 2.820005,0 q -0.066,0 -0.102,-0.036 -0.036,-0.042 -0.036,-0.102 v -3.918 q 0,-0.066 0.036,-0.102 0.036,-0.042 0.102,-0.042 h 2.478 q 0.066,0 0.102,0.042 0.036,0.036 0.036,0.102 v 0.228 q 0,0.066 -0.036,0.102 -0.036,0.036 -0.102,0.036 h -2.04 v 1.314 h 1.908 q 0.066,0 0.102,0.042 0.036,0.036 0.036,0.102 v 0.222 q 0,0.06 -0.036,0.102 -0.036,0.036 -0.102,0.036 h -1.908 v 1.362 h 2.088 q 0.066,0 0.102,0.036 0.036,0.036 0.036,0.102 v 0.234 q 0,0.06 -0.036,0.102 -0.036,0.036 -0.102,0.036 z m 3.636005,0 q -0.066,0 -0.102,-0.036 -0.036,-0.042 -0.036,-0.102 v -3.924 q 0,-0.06 0.036,-0.096 0.036,-0.042 0.102,-0.042 h 0.318 q 0.06,0 0.096,0.042 0.036,0.036 0.036,0.096 v 3.54 h 1.998 q 0.066,0 0.102,0.042 0.036,0.036 0.036,0.102 v 0.24 q 0,0.06 -0.036,0.102 -0.036,0.036 -0.102,0.036 z"
   id="text51"
   style="font-size:6px;font-family:Rubik-Regular, Rubik;fill:#ffffff"
   aria-label="LEVEL" />
                    </g>
                    <g
   transform="translate(46.4583,197.487)"
   id="g54">
                        <g
   transform="matrix(6,0,0,6,40.4675,25.5577)"
   id="g53">
                        </g>
                        <path
   d="m 23.218001,25.558001 q -0.066,0 -0.102,-0.036 -0.036,-0.042 -0.036,-0.102 v -3.924 q 0,-0.06 0.036,-0.096 0.036,-0.042 0.102,-0.042 h 0.318 q 0.06,0 0.096,0.042 0.036,0.036 0.036,0.096 v 3.54 h 1.998 q 0.066,0 0.102,0.042 0.036,0.036 0.036,0.102 v 0.24 q 0,0.06 -0.036,0.102 -0.036,0.036 -0.102,0.036 z m 3.377998,0 q -0.066,0 -0.102,-0.036 -0.036,-0.042 -0.036,-0.102 v -3.918 q 0,-0.066 0.036,-0.102 0.036,-0.042 0.102,-0.042 h 2.478 q 0.066,0 0.102,0.042 0.036,0.036 0.036,0.102 v 0.228 q 0,0.066 -0.036,0.102 -0.036,0.036 -0.102,0.036 h -2.04 v 1.314 h 1.908 q 0.066,0 0.102,0.042 0.036,0.036 0.036,0.102 v 0.222 q 0,0.06 -0.036,0.102 -0.036,0.036 -0.102,0.036 h -1.908 v 1.362 h 2.088 q 0.066,0 0.102,0.036 0.036,0.036 0.036,0.102 v 0.234 q 0,0.06 -0.036,0.102 -0.036,0.036 -0.102,0.036 z m 4.697253,0 q -0.09,0 -0.144,-0.042 -0.048,-0.042 -0.078,-0.114 l -1.338,-3.858 q -0.012,-0.036 -0.012,-0.066 0,-0.048 0.036,-0.084 0.036,-0.036 0.084,-0.036 h 0.312 q 0.072,0 0.108,0.042 0.042,0.036 0.048,0.066 l 1.176,3.402 1.176,-3.402 q 0.012,-0.03 0.048,-0.066 0.036,-0.042 0.108,-0.042 h 0.312 q 0.048,0 0.084,0.036 0.042,0.036 0.042,0.084 0,0.03 -0.012,0.066 l -1.344,3.858 q -0.024,0.072 -0.078,0.114 -0.048,0.042 -0.138,0.042 z m 2.820005,0 q -0.066,0 -0.102,-0.036 -0.036,-0.042 -0.036,-0.102 v -3.918 q 0,-0.066 0.036,-0.102 0.036,-0.042 0.102,-0.042 h 2.478 q 0.066,0 0.102,0.042 0.036,0.036 0.036,0.102 v 0.228 q 0,0.066 -0.036,0.102 -0.036,0.036 -0.102,0.036 h -2.04 v 1.314 h 1.908 q 0.066,0 0.102,0.042 0.036,0.036 0.036,0.102 v 0.222 q 0,0.06 -0.036,0.102 -0.036,0.036 -0.102,0.036 h -1.908 v 1.362 h 2.088 q 0.066,0 0.102,0.036 0.036,0.036 0.036,0.102 v 0.234 q 0,0.06 -0.036,0.102 -0.036,0.036 -0.102,0.036 z m 3.636005,0 q -0.066,0 -0.102,-0.036 -0.036,-0.042 -0.036,-0.102 v -3.924 q 0,-0.06 0.036,-0.096 0.036,-0.042 0.102,-0.042 h 0.318 q 0.06,0 0.096,0.042 0.036,0.036 0.036,0.096 v 3.54 h 1.998 q 0.066,0 0.102,0.042 0.036,0.036 0.036,0.102 v 0.24 q 0,0.06 -0.036,0.102 -0.036,0.036 -0.102,0.036 z"
   id="text53"
   style="font-size:6px;font-family:Rubik-Regular, Rubik;fill:#ffffff"
   aria-label="LEVEL" />
                    </g>
                    <g
   transform="translate(46.2423,249.409)"
   id="g56">
                        <g
   transform="matrix(6,0,0,6,40.4675,25.5577)"
   id="g55">
                        </g>
                        <path
   d="m 23.218001,25.558001 q -0.066,0 -0.102,-0.036 -0.036,-0.042 -0.036,-0.102 v -3.924 q 0,-0.06 0.036,-0.096 0.036,-0.042 0.102,-0.042 h 0.318 q 0.06,0 0.096,0.042 0.036,0.036 0.036,0.096 v 3.54 h 1.998 q 0.066,0 0.102,0.042 0.036,0.036 0.036,0.102 v 0.24 q 0,0.06 -0.036,0.102 -0.036,0.036 -0.102,0.036 z m 3.377998,0 q -0.066,0 -0.102,-0.036 -0.036,-0.042 -0.036,-0.102 v -3.918 q 0,-0.066 0.036,-0.102 0.036,-0.042 0.102,-0.042 h 2.478 q 0.066,0 0.102,0.042 0.036,0.036 0.036,0.102 v 0.228 q 0,0.066 -0.036,0.102 -0.036,0.036 -0.102,0.036 h -2.04 v 1.314 h 1.908 q 0.066,0 0.102,0.042 0.036,0.036 0.036,0.102 v 0.222 q 0,0.06 -0.036,0.102 -0.036,0.036 -0.102,0.036 h -1.908 v 1.362 h 2.088 q 0.066,0 0.102,0.036 0.036,0.036 0.036,0.102 v 0.234 q 0,0.06 -0.036,0.102 -0.036,0.036 -0.102,0.036 z m 4.697253,0 q -0.09,0 -0.144,-0.042 -0.048,-0.042 -0.078,-0.114 l -1.338,-3.858 q -0.012,-0.036 -0.012,-0.066 0,-0.048 0.036,-0.084 0.036,-0.036 0.084,-0.036 h 0.312 q 0.072,0 0.108,0.042 0.042,0.036 0.048,0.066 l 1.176,3.402 1.176,-3.402 q 0.012,-0.03 0.048,-0.066 0.036,-0.042 0.108,-0.042 h 0.312 q 0.048,0 0.084,0.036 0.042,0.036 0.042,0.084 0,0.03 -0.012,0.066 l -1.344,3.858 q -0.024,0.072 -0.078,0.114 -0.048,0.042 -0.138,0.042 z m 2.820005,0 q -0.066,0 -0.102,-0.036 -0.036,-0.042 -0.036,-0.102 v -3.918 q 0,-0.066 0.036,-0.102 0.036,-0.042 0.102,-0.042 h 2.478 q 0.066,0 0.102,0.042 0.036,0.036 0.036,0.102 v 0.228 q 0,0.066 -0.036,0.102 -0.036,0.036 -0.102,0.036 h -2.04 v 1.314 h 1.908 q 0.066,0 0.102,0.042 0.036,0.036 0.036,0.102 v 0.222 q 0,0.06 -0.036,0.102 -0.036,0.036 -0.102,0.036 h -1.908 v 1.362 h 2.088 q 0.066,0 0.102,0.036 0.036,0.036 0.036,0.102 v 0.234 q 0,0.06 -0.036,0.102 -0.036,0.036 -0.102,0.036 z m 3.636005,0 q -0.066,0 -0.102,-0.036 -0.036,-0.042 -0.036,-0.102 v -3.924 q 0,-0.06 0.036,-0.096 0.036,-0.042 0.102,-0.042 h 0.318 q 0.06,0 0.096,0.042 0.036,0.036 0.036,0.096 v 3.54 h 1.998 q 0.066,0 0.102,0.042 0.036,0.036 0.036,0.102 v 0.24 q 0,0.06 -0.036,0.102 -0.036,0.036 -0.102,0.036 z"
   id="text55"
   style="font-size:6px;font-family:Rubik-Regular, Rubik;fill:#ffffff"
   aria-label="LEVEL" />
                    </g>
                    <g
   transform="translate(46.2423,301.686)"
   id="g58">
                        <g
   transform="matrix(6,0,0,6,40.4675,25.5577)"
   id="g57">
                        </g>
                        <path
   d="m 23.218001,25.558001 q -0.066,0 -0.102,-0.036 -0.036,-0.042 -0.036,-0.102 v -3.924 q 0,-0.06 0.036,-0.096 0.036,-0.042 0.102,-0.042 h 0.318 q 0.06,0 0.096,0.042 0.036,0.036 0.036,0.096 v 3.54 h 1.998 q 0.066,0 0.102,0.042 0.036,0.036 0.036,0.102 v 0.24 q 0,0.06 -0.036,0.102 -0.036,0.036 -0.102,0.036 z m 3.377998,0 q -0.066,0 -0.102,-0.036 -0.036,-0.042 -0.036,-0.102 v -3.918 q 0,-0.066 0.036,-0.102 0.036,-0.042 0.102,-0.042 h 2.478 q 0.066,0 0.102,0.042 0.036,0.036 0.036,0.102 v 0.228 q 0,0.066 -0.036,0.102 -0.036,0.036 -0.102,0.036 h -2.04 v 1.314 h 1.908 q 0.066,0 0.102,0.042 0.036,0.036 0.036,0.102 v 0.222 q 0,0.06 -0.036,0.102 -0.036,0.036 -0.102,0.036 h -1.908 v 1.362 h 2.088 q 0.066,0 0.102,0.036 0.036,0.036 0.036,0.102 v 0.234 q 0,0.06 -0.036,0.102 -0.036,0.036 -0.102,0.036 z m 4.697253,0 q -0.09,0 -0.144,-0.042 -0.048,-0.042 -0.078,-0.114 l -1.338,-3.858 q -0.012,-0.036 -0.012,-0.066 0,-0.048 0.036,-0.084 0.036,-0.036 0.084,-0.036 h 0.312 q 0.072,0 0.108,0.042 0.042,0.036 0.048,0.066 l 1.176,3.402 1.176,-3.402 q 0.012,-0.03 0.048,-0.066 0.036,-0.042 0.108,-0.042 h 0.312 q 0.048,0 0.084,0.036 0.042,0.036 0.042,0.084 0,0.03 -0.012,0.066 l -1.344,3.858 q -0.024,0.072 -0.078,0.114 -0.048,0.042 -0.138,0.042 z m 2.820005,0 q -0.066,0 -0.102,-0.036 -0.036,-0.042 -0.036,-0.102 v -3.918 q 0,-0.066 0.036,-0.102 0.036,-0.042 0.102,-0.042 h 2.478 q 0.066,0 0.102,0.042 0.036,0.036 0.036,0.102 v 0.228 q 0,0.066 -0.036,0.102 -0.036,0.036 -0.102,0.036 h -2.04 v 1.314 h 1.908 q 0.066,0 0.102,0.042 0.036,0.036 0.036,0.102 v 0.222 q 0,0.06 -0.036,0.102 -0.036,0.036 -0.102,0.036 h -1.908 v 1.362 h 2.088 q 0.066,0 0.102,0.036 0.036,0.036 0.036,0.102 v 0.234 q 0,0.06 -0.036,0.102 -0.036,0.036 -0.102,0.036 z m 3.636005,0 q -0.066,0 -0.102,-0.036 -0.036,-0.042 -0.036,-0.102 v -3.924 q 0,-0.06 0.036,-0.096 0.036,-0.042 0.102,-0.042 h 0.318 q 0.06,0 0.096,0.042 0.036,0.036 0.036,0.096 v 3.54 h 1.998 q 0.066,0 0.102,0.042 0.036,0.036 0.036,0.102 v 0.24 q 0,0.06 -0.036,0.102 -0.036,0.036 -0.102,0.036 z"
   id="text57"
   style="font-size:6px;font-family:Rubik-Regular, Rubik;fill:#ffffff"
   aria-label="LEVEL" />
                    </g>
                    <g
   transform="matrix(1,0,0,0.176051,-0.0663761,18.7955)"
   id="g59">
                        <path
   d="m 51.096,31.542 c 0,-2.931 -0.419,-5.311 -0.935,-5.311 H 38.979 c -0.516,0 -0.935,2.38 -0.935,5.311 v 23.857 c 0,2.931 0.419,5.311 0.935,5.311 h 11.182 c 0.516,0 0.935,-2.38 0.935,-5.311 z"
   style="fill:#ffffff"
   id="path58" />
                    </g>
                    <g
   transform="translate(16.0994,3.05074)"
   id="g61">
                        <g
   transform="matrix(6,0,0,6,34.2995,25.5577)"
   id="g60">
                        </g>
                        <path
   d="m 24.586001,25.618001 q -0.51,0 -0.876,-0.174 -0.366,-0.18 -0.564,-0.546 -0.198,-0.372 -0.222,-0.93 -0.006,-0.264 -0.006,-0.504 0,-0.246 0.006,-0.51 0.024,-0.552 0.228,-0.918 0.21,-0.372 0.576,-0.552 0.372,-0.186 0.858,-0.186 0.492,0 0.858,0.186 0.372,0.18 0.582,0.552 0.21,0.366 0.228,0.918 0.012,0.264 0.012,0.51 0,0.24 -0.012,0.504 -0.018,0.558 -0.222,0.93 -0.198,0.366 -0.564,0.546 -0.366,0.174 -0.882,0.174 z m 0,-0.51 q 0.462,0 0.75,-0.276 0.294,-0.276 0.318,-0.894 0.012,-0.27 0.012,-0.48 0,-0.216 -0.012,-0.48 -0.012,-0.414 -0.156,-0.672 -0.138,-0.258 -0.372,-0.378 -0.234,-0.12 -0.54,-0.12 -0.294,0 -0.528,0.12 -0.234,0.12 -0.378,0.378 -0.138,0.258 -0.156,0.672 -0.006,0.264 -0.006,0.48 0,0.21 0.006,0.48 0.024,0.618 0.318,0.894 0.294,0.276 0.744,0.276 z m 4.14,0.51 q -0.504,0 -0.87,-0.18 -0.36,-0.18 -0.558,-0.546 -0.192,-0.372 -0.192,-0.954 v -2.436 q 0,-0.066 0.036,-0.102 0.036,-0.042 0.102,-0.042 h 0.306 q 0.066,0 0.102,0.042 0.042,0.036 0.042,0.102 v 2.448 q 0,0.588 0.276,0.87 0.276,0.282 0.756,0.282 0.474,0 0.75,-0.282 0.282,-0.282 0.282,-0.87 v -2.448 q 0,-0.066 0.036,-0.102 0.042,-0.042 0.102,-0.042 h 0.312 q 0.06,0 0.096,0.042 0.042,0.036 0.042,0.102 v 2.436 q 0,0.582 -0.198,0.954 -0.192,0.366 -0.552,0.546 -0.36,0.18 -0.87,0.18 z m 3.678001,-0.06 q -0.06,0 -0.102,-0.036 -0.036,-0.042 -0.036,-0.102 v -3.528 h -1.152 q -0.06,0 -0.102,-0.036 -0.036,-0.042 -0.036,-0.102 v -0.252 q 0,-0.066 0.036,-0.102 0.042,-0.042 0.102,-0.042 h 2.892 q 0.066,0 0.102,0.042 0.042,0.036 0.042,0.102 v 0.252 q 0,0.06 -0.042,0.102 -0.036,0.036 -0.102,0.036 h -1.146 v 3.528 q 0,0.06 -0.042,0.102 -0.036,0.036 -0.102,0.036 z"
   id="text60"
   style="font-size:6px;font-family:Rubik-Regular, Rubik"
   aria-label="OUT" />
                    </g>
                    <g
   transform="translate(-0.543556,-0.0536233)"
   id="g65">
                        <g
   transform="translate(-5.04291,1.78167)"
   id="g63">
                            <path
   d="m 21.491,61.315 h 0.09 0.005 c 0.06,-10e-4 0.107,-0.021 0.144,-0.058 0.037,-0.037 0.058,-0.086 0.058,-0.149 0,0 0,-1.239 0,-1.239 0,0 1.233,0 1.233,0 0.062,0 0.111,-0.02 0.149,-0.058 0.037,-0.037 0.058,-0.086 0.058,-0.149 l -0.001,10e-4 0.001,-0.002 -0.001,-0.082 0.001,-10e-4 c 0,-0.062 -0.021,-0.111 -0.058,-0.149 -0.038,-0.037 -0.087,-0.058 -0.149,-0.058 h -1.233 c 0,0 0,-1.203 0,-1.203 0,-0.062 -0.021,-0.111 -0.058,-0.149 -0.038,-0.037 -0.087,-0.058 -0.149,-0.058 v 0 H 21.58 21.491 v 0 c -0.063,0 -0.112,0.021 -0.15,0.058 -0.037,0.038 -0.057,0.087 -0.057,0.149 v 1.203 c 0,0 -1.227,0 -1.227,0 -0.063,0 -0.112,0.021 -0.15,0.058 -0.037,0.038 -0.057,0.087 -0.057,0.149 l 0.075,0.075 c 0,0 -0.075,-0.075 -0.075,-0.075 v 0.083 0.002 -10e-4 c 0,0.063 0.02,0.112 0.057,0.149 0.038,0.038 0.087,0.058 0.15,0.058 h 1.227 c 0,0 0,1.239 0,1.239 0,0.063 0.02,0.112 0.057,0.149 0.038,0.038 0.087,0.058 0.15,0.058 z"
   style="fill:#ffffff"
   id="path61" />
                            <g
   transform="translate(5.56116,0.018)"
   id="g62">
                                <path
   d="m 21.359,59.844 c 0,0 -0.028,0 0,0 h -1.302 c -0.055,0 -0.099,-0.017 -0.132,-0.05 -0.033,-0.033 -0.05,-0.077 -0.05,-0.132 v 10e-4 -0.002 -0.083 c 0,0 0.05,0.05 0.05,0.05 l -0.05,-0.05 c 0,-0.054 0.017,-0.098 0.05,-0.131 0.033,-0.033 0.077,-0.051 0.132,-0.051 h 1.302 c -0.028,0 -0.061,0 0.004,0 h 0.349 0.001 v 0 h 0.981 c 0.054,0 0.098,0.018 0.131,0.051 0.033,0.033 0.051,0.077 0.051,0.131 h -0.001 c 0.001,10e-4 0.001,0.002 0.001,0.003 v 0.08 l -0.001,0.002 0.001,-10e-4 c 0,0.055 -0.018,0.099 -0.051,0.132 -0.033,0.033 -0.077,0.05 -0.131,0.05 z"
   style="fill:#ffffff"
   id="path62" />
                            </g>
                        </g>
                        <g
   transform="matrix(1,0,0,0.778678,0.117124,13.5489)"
   id="g64">
                            <path
   d="m 19.403,64.468 v -5.981 c 0,-0.177 -0.112,-0.321 -0.25,-0.321 -0.138,0 -0.25,0.144 -0.25,0.321 v 5.981 c 0,0.177 0.112,0.321 0.25,0.321 0.138,0 0.25,-0.144 0.25,-0.321 z"
   style="fill:#ffffff"
   id="path63" />
                        </g>
                    </g>
                    <g
   transform="translate(-0.543556,51.9443)"
   id="g69">
                        <g
   transform="translate(-5.04291,1.78167)"
   id="g67">
                            <path
   d="m 21.491,61.315 h 0.09 0.005 c 0.06,-10e-4 0.107,-0.021 0.144,-0.058 0.037,-0.037 0.058,-0.086 0.058,-0.149 0,0 0,-1.239 0,-1.239 0,0 1.233,0 1.233,0 0.062,0 0.111,-0.02 0.149,-0.058 0.037,-0.037 0.058,-0.086 0.058,-0.149 l -0.001,10e-4 0.001,-0.002 -0.001,-0.082 0.001,-10e-4 c 0,-0.062 -0.021,-0.111 -0.058,-0.149 -0.038,-0.037 -0.087,-0.058 -0.149,-0.058 h -1.233 c 0,0 0,-1.203 0,-1.203 0,-0.062 -0.021,-0.111 -0.058,-0.149 -0.038,-0.037 -0.087,-0.058 -0.149,-0.058 v 0 H 21.58 21.491 v 0 c -0.063,0 -0.112,0.021 -0.15,0.058 -0.037,0.038 -0.057,0.087 -0.057,0.149 v 1.203 c 0,0 -1.227,0 -1.227,0 -0.063,0 -0.112,0.021 -0.15,0.058 -0.037,0.038 -0.057,0.087 -0.057,0.149 l 0.075,0.075 c 0,0 -0.075,-0.075 -0.075,-0.075 v 0.083 0.002 -10e-4 c 0,0.063 0.02,0.112 0.057,0.149 0.038,0.038 0.087,0.058 0.15,0.058 h 1.227 c 0,0 0,1.239 0,1.239 0,0.063 0.02,0.112 0.057,0.149 0.038,0.038 0.087,0.058 0.15,0.058 z"
   style="fill:#ffffff"
   id="path65" />
                            <g
   transform="translate(5.56116,0.018)"
   id="g66">
                                <path
   d="m 21.359,59.844 c 0,0 -0.028,0 0,0 h -1.302 c -0.055,0 -0.099,-0.017 -0.132,-0.05 -0.033,-0.033 -0.05,-0.077 -0.05,-0.132 v 10e-4 -0.002 -0.083 c 0,0 0.05,0.05 0.05,0.05 l -0.05,-0.05 c 0,-0.054 0.017,-0.098 0.05,-0.131 0.033,-0.033 0.077,-0.051 0.132,-0.051 h 1.302 c -0.028,0 -0.061,0 0.004,0 h 0.349 0.001 v 0 h 0.981 c 0.054,0 0.098,0.018 0.131,0.051 0.033,0.033 0.051,0.077 0.051,0.131 h -0.001 c 0.001,10e-4 0.001,0.002 0.001,0.003 v 0.08 l -0.001,0.002 0.001,-10e-4 c 0,0.055 -0.018,0.099 -0.051,0.132 -0.033,0.033 -0.077,0.05 -0.131,0.05 z"
   style="fill:#ffffff"
   id="path66" />
                            </g>
                        </g>
                        <g
   transform="matrix(1,0,0,0.778678,0.117124,13.5489)"
   id="g68">
                            <path
   d="m 19.403,64.468 v -5.981 c 0,-0.177 -0.112,-0.321 -0.25,-0.321 -0.138,0 -0.25,0.144 -0.25,0.321 v 5.981 c 0,0.177 0.112,0.321 0.25,0.321 0.138,0 0.25,-0.144 0.25,-0.321 z"
   style="fill:#ffffff"
   id="path67" />
                        </g>
                    </g>
                    <g
   transform="translate(-0.543556,104.243)"
   id="g73">
                        <g
   transform="translate(-5.04291,1.78167)"
   id="g71">
                            <path
   d="m 21.491,61.315 h 0.09 0.005 c 0.06,-10e-4 0.107,-0.021 0.144,-0.058 0.037,-0.037 0.058,-0.086 0.058,-0.149 0,0 0,-1.239 0,-1.239 0,0 1.233,0 1.233,0 0.062,0 0.111,-0.02 0.149,-0.058 0.037,-0.037 0.058,-0.086 0.058,-0.149 l -0.001,10e-4 0.001,-0.002 -0.001,-0.082 0.001,-10e-4 c 0,-0.062 -0.021,-0.111 -0.058,-0.149 -0.038,-0.037 -0.087,-0.058 -0.149,-0.058 h -1.233 c 0,0 0,-1.203 0,-1.203 0,-0.062 -0.021,-0.111 -0.058,-0.149 -0.038,-0.037 -0.087,-0.058 -0.149,-0.058 v 0 H 21.58 21.491 v 0 c -0.063,0 -0.112,0.021 -0.15,0.058 -0.037,0.038 -0.057,0.087 -0.057,0.149 v 1.203 c 0,0 -1.227,0 -1.227,0 -0.063,0 -0.112,0.021 -0.15,0.058 -0.037,0.038 -0.057,0.087 -0.057,0.149 l 0.075,0.075 c 0,0 -0.075,-0.075 -0.075,-0.075 v 0.083 0.002 -10e-4 c 0,0.063 0.02,0.112 0.057,0.149 0.038,0.038 0.087,0.058 0.15,0.058 h 1.227 c 0,0 0,1.239 0,1.239 0,0.063 0.02,0.112 0.057,0.149 0.038,0.038 0.087,0.058 0.15,0.058 z"
   style="fill:#ffffff"
   id="path69" />
                            <g
   transform="translate(5.56116,0.018)"
   id="g70">
                                <path
   d="m 21.359,59.844 c 0,0 -0.028,0 0,0 h -1.302 c -0.055,0 -0.099,-0.017 -0.132,-0.05 -0.033,-0.033 -0.05,-0.077 -0.05,-0.132 v 10e-4 -0.002 -0.083 c 0,0 0.05,0.05 0.05,0.05 l -0.05,-0.05 c 0,-0.054 0.017,-0.098 0.05,-0.131 0.033,-0.033 0.077,-0.051 0.132,-0.051 h 1.302 c -0.028,0 -0.061,0 0.004,0 h 0.349 0.001 v 0 h 0.981 c 0.054,0 0.098,0.018 0.131,0.051 0.033,0.033 0.051,0.077 0.051,0.131 h -0.001 c 0.001,10e-4 0.001,0.002 0.001,0.003 v 0.08 l -0.001,0.002 0.001,-10e-4 c 0,0.055 -0.018,0.099 -0.051,0.132 -0.033,0.033 -0.077,0.05 -0.131,0.05 z"
   style="fill:#ffffff"
   id="path70" />
                            </g>
                        </g>
                        <g
   transform="matrix(1,0,0,0.778678,0.117124,13.5489)"
   id="g72">
                            <path
   d="m 19.403,64.468 v -5.981 c 0,-0.177 -0.112,-0.321 -0.25,-0.321 -0.138,0 -0.25,0.144 -0.25,0.321 v 5.981 c 0,0.177 0.112,0.321 0.25,0.321 0.138,0 0.25,-0.144 0.25,-0.321 z"
   style="fill:#ffffff"
   id="path71" />
                        </g>
                    </g>
                    <g
   transform="translate(-0.533331,156.199)"
   id="g77">
                        <g
   transform="translate(-5.04291,1.78167)"
   id="g75">
                            <path
   d="m 21.491,61.315 h 0.09 0.005 c 0.06,-10e-4 0.107,-0.021 0.144,-0.058 0.037,-0.037 0.058,-0.086 0.058,-0.149 0,0 0,-1.239 0,-1.239 0,0 1.233,0 1.233,0 0.062,0 0.111,-0.02 0.149,-0.058 0.037,-0.037 0.058,-0.086 0.058,-0.149 l -0.001,10e-4 0.001,-0.002 -0.001,-0.082 0.001,-10e-4 c 0,-0.062 -0.021,-0.111 -0.058,-0.149 -0.038,-0.037 -0.087,-0.058 -0.149,-0.058 h -1.233 c 0,0 0,-1.203 0,-1.203 0,-0.062 -0.021,-0.111 -0.058,-0.149 -0.038,-0.037 -0.087,-0.058 -0.149,-0.058 v 0 H 21.58 21.491 v 0 c -0.063,0 -0.112,0.021 -0.15,0.058 -0.037,0.038 -0.057,0.087 -0.057,0.149 v 1.203 c 0,0 -1.227,0 -1.227,0 -0.063,0 -0.112,0.021 -0.15,0.058 -0.037,0.038 -0.057,0.087 -0.057,0.149 l 0.075,0.075 c 0,0 -0.075,-0.075 -0.075,-0.075 v 0.083 0.002 -10e-4 c 0,0.063 0.02,0.112 0.057,0.149 0.038,0.038 0.087,0.058 0.15,0.058 h 1.227 c 0,0 0,1.239 0,1.239 0,0.063 0.02,0.112 0.057,0.149 0.038,0.038 0.087,0.058 0.15,0.058 z"
   style="fill:#ffffff"
   id="path73" />
                            <g
   transform="translate(5.56116,0.018)"
   id="g74">
                                <path
   d="m 21.359,59.844 c 0,0 -0.028,0 0,0 h -1.302 c -0.055,0 -0.099,-0.017 -0.132,-0.05 -0.033,-0.033 -0.05,-0.077 -0.05,-0.132 v 10e-4 -0.002 -0.083 c 0,0 0.05,0.05 0.05,0.05 l -0.05,-0.05 c 0,-0.054 0.017,-0.098 0.05,-0.131 0.033,-0.033 0.077,-0.051 0.132,-0.051 h 1.302 c -0.028,0 -0.061,0 0.004,0 h 0.349 0.001 v 0 h 0.981 c 0.054,0 0.098,0.018 0.131,0.051 0.033,0.033 0.051,0.077 0.051,0.131 h -0.001 c 0.001,10e-4 0.001,0.002 0.001,0.003 v 0.08 l -0.001,0.002 0.001,-10e-4 c 0,0.055 -0.018,0.099 -0.051,0.132 -0.033,0.033 -0.077,0.05 -0.131,0.05 z"
   style="fill:#ffffff"
   id="path74" />
                            </g>
                        </g>
                        <g
   transform="matrix(1,0,0,0.778678,0.117124,13.5489)"
   id="g76">
                            <path
   d="m 19.403,64.468 v -5.981 c 0,-0.177 -0.112,-0.321 -0.25,-0.321 -0.138,0 -0.25,0.144 -0.25,0.321 v 5.981 c 0,0.177 0.112,0.321 0.25,0.321 0.138,0 0.25,-0.144 0.25,-0.321 z"
   style="fill:#ffffff"
   id="path75" />
                        </g>
                    </g>
                    <g
   transform="translate(-0.47718,208.459)"
   id="g81">
                        <g
   transform="translate(-5.04291,1.78167)"
   id="g79">
                            <path
   d="m 21.491,61.315 h 0.09 0.005 c 0.06,-10e-4 0.107,-0.021 0.144,-0.058 0.037,-0.037 0.058,-0.086 0.058,-0.149 0,0 0,-1.239 0,-1.239 0,0 1.233,0 1.233,0 0.062,0 0.111,-0.02 0.149,-0.058 0.037,-0.037 0.058,-0.086 0.058,-0.149 l -0.001,10e-4 0.001,-0.002 -0.001,-0.082 0.001,-10e-4 c 0,-0.062 -0.021,-0.111 -0.058,-0.149 -0.038,-0.037 -0.087,-0.058 -0.149,-0.058 h -1.233 c 0,0 0,-1.203 0,-1.203 0,-0.062 -0.021,-0.111 -0.058,-0.149 -0.038,-0.037 -0.087,-0.058 -0.149,-0.058 v 0 H 21.58 21.491 v 0 c -0.063,0 -0.112,0.021 -0.15,0.058 -0.037,0.038 -0.057,0.087 -0.057,0.149 v 1.203 c 0,0 -1.227,0 -1.227,0 -0.063,0 -0.112,0.021 -0.15,0.058 -0.037,0.038 -0.057,0.087 -0.057,0.149 l 0.075,0.075 c 0,0 -0.075,-0.075 -0.075,-0.075 v 0.083 0.002 -10e-4 c 0,0.063 0.02,0.112 0.057,0.149 0.038,0.038 0.087,0.058 0.15,0.058 h 1.227 c 0,0 0,1.239 0,1.239 0,0.063 0.02,0.112 0.057,0.149 0.038,0.038 0.087,0.058 0.15,0.058 z"
   style="fill:#ffffff"
   id="path77" />
                            <g
   transform="translate(5.56116,0.018)"
   id="g78">
                                <path
   d="m 21.359,59.844 c 0,0 -0.028,0 0,0 h -1.302 c -0.055,0 -0.099,-0.017 -0.132,-0.05 -0.033,-0.033 -0.05,-0.077 -0.05,-0.132 v 10e-4 -0.002 -0.083 c 0,0 0.05,0.05 0.05,0.05 l -0.05,-0.05 c 0,-0.054 0.017,-0.098 0.05,-0.131 0.033,-0.033 0.077,-0.051 0.132,-0.051 h 1.302 c -0.028,0 -0.061,0 0.004,0 h 0.349 0.001 v 0 h 0.981 c 0.054,0 0.098,0.018 0.131,0.051 0.033,0.033 0.051,0.077 0.051,0.131 h -0.001 c 0.001,10e-4 0.001,0.002 0.001,0.003 v 0.08 l -0.001,0.002 0.001,-10e-4 c 0,0.055 -0.018,0.099 -0.051,0.132 -0.033,0.033 -0.077,0.05 -0.131,0.05 z"
   style="fill:#ffffff"
   id="path78" />
                            </g>
                        </g>
                        <g
   transform="matrix(1,0,0,0.778678,0.117124,13.5489)"
   id="g80">
                            <path
   d="m 19.403,64.468 v -5.981 c 0,-0.177 -0.112,-0.321 -0.25,-0.321 -0.138,0 -0.25,0.144 -0.25,0.321 v 5.981 c 0,0.177 0.112,0.321 0.25,0.321 0.138,0 0.25,-0.144 0.25,-0.321 z"
   style="fill:#ffffff"
   id="path79" />
                        </g>
                    </g>
                    <g
   transform="translate(-0.47718,260.514)"
   id="g85">
                        <g
   transform="translate(-5.04291,1.78167)"
   id="g83">
                            <path
   d="m 21.491,61.315 h 0.09 0.005 c 0.06,-10e-4 0.107,-0.021 0.144,-0.058 0.037,-0.037 0.058,-0.086 0.058,-0.149 0,0 0,-1.239 0,-1.239 0,0 1.233,0 1.233,0 0.062,0 0.111,-0.02 0.149,-0.058 0.037,-0.037 0.058,-0.086 0.058,-0.149 l -0.001,10e-4 0.001,-0.002 -0.001,-0.082 0.001,-10e-4 c 0,-0.062 -0.021,-0.111 -0.058,-0.149 -0.038,-0.037 -0.087,-0.058 -0.149,-0.058 h -1.233 c 0,0 0,-1.203 0,-1.203 0,-0.062 -0.021,-0.111 -0.058,-0.149 -0.038,-0.037 -0.087,-0.058 -0.149,-0.058 v 0 H 21.58 21.491 v 0 c -0.063,0 -0.112,0.021 -0.15,0.058 -0.037,0.038 -0.057,0.087 -0.057,0.149 v 1.203 c 0,0 -1.227,0 -1.227,0 -0.063,0 -0.112,0.021 -0.15,0.058 -0.037,0.038 -0.057,0.087 -0.057,0.149 l 0.075,0.075 c 0,0 -0.075,-0.075 -0.075,-0.075 v 0.083 0.002 -10e-4 c 0,0.063 0.02,0.112 0.057,0.149 0.038,0.038 0.087,0.058 0.15,0.058 h 1.227 c 0,0 0,1.239 0,1.239 0,0.063 0.02,0.112 0.057,0.149 0.038,0.038 0.087,0.058 0.15,0.058 z"
   style="fill:#ffffff"
   id="path81" />
                            <g
   transform="translate(5.56116,0.018)"
   id="g82">
                                <path
   d="m 21.359,59.844 c 0,0 -0.028,0 0,0 h -1.302 c -0.055,0 -0.099,-0.017 -0.132,-0.05 -0.033,-0.033 -0.05,-0.077 -0.05,-0.132 v 10e-4 -0.002 -0.083 c 0,0 0.05,0.05 0.05,0.05 l -0.05,-0.05 c 0,-0.054 0.017,-0.098 0.05,-0.131 0.033,-0.033 0.077,-0.051 0.132,-0.051 h 1.302 c -0.028,0 -0.061,0 0.004,0 h 0.349 0.001 v 0 h 0.981 c 0.054,0 0.098,0.018 0.131,0.051 0.033,0.033 0.051,0.077 0.051,0.131 h -0.001 c 0.001,10e-4 0.001,0.002 0.001,0.003 v 0.08 l -0.001,0.002 0.001,-10e-4 c 0,0.055 -0.018,0.099 -0.051,0.132 -0.033,0.033 -0.077,0.05 -0.131,0.05 z"
   style="fill:#ffffff"
   id="path82" />
                            </g>
                        </g>
                        <g
   transform="matrix(1,0,0,0.778678,0.117124,13.5489)"
   id="g84">
                            <path
   d="m 19.403,64.468 v -5.981 c 0,-0.177 -0.112,-0.321 -0.25,-0.321 -0.138,0 -0.25,0.144 -0.25,0.321 v 5.981 c 0,0.177 0.112,0.321 0.25,0.321 0.138,0 0.25,-0.144 0.25,-0.321 z"
   style="fill:#ffffff"
   id="path83" />
                        </g>
                    </g>
                    <g
   transform="matrix(1.08454,0,0,1.59404,-368.945,-90.8429)"
   id="g90">
                        <g
   transform="translate(243.923,52.4652)"
   id="g87">
                            <g
   transform="matrix(0.110646,0,0,0.0752804,96.2633,4.52389)"
   id="g86">
                                <path
   d="m 101.227,200.687 13.75,6.875 -13.75,6.875 c 3.438,-3.437 3.438,-10.312 0,-13.75 z"
   style="fill:#fff5f5"
   id="path85" />
                                <path
   d="m 56.392,207.562 h 47.585"
   style="fill:none;stroke:#fff5f5;stroke-width:4.58px"
   id="path86" />
                            </g>
                        </g>
                        <g
   transform="translate(243.923,52.4652)"
   id="g89">
                            <g
   transform="matrix(0.110646,0,0,0.0752804,96.2633,4.52389)"
   id="g88">
                                <path
   d="m 101.227,226.371 13.75,6.875 -13.75,6.875 c 3.438,-3.438 3.438,-10.313 0,-13.75 z"
   style="fill:#fff5f5"
   id="path87" />
                                <path
   d="m 68.403,207.562 c 20.232,4.686 11.281,25.684 25.354,25.684 h 10.22"
   style="fill:none;stroke:#fff5f5;stroke-width:4.58px"
   id="path88" />
                            </g>
                        </g>
                    </g>
                    <g
   transform="translate(34.5908,-8.97384)"
   id="g92">
                        <g
   transform="matrix(11,0,0,11,51.7185,25.5577)"
   id="g91">
                        </g>
                        <g
   id="text91"
   style="font-weight:300;font-size:11px;font-family:Montserrat-Light, Montserrat;fill:#ffffff"
   aria-label="Asset"><path
     d="m 22.613001,25.558001 3.542,-7.7 h 0.561 l 3.542,7.7 h -0.605 l -3.344,-7.348 h 0.242 l -3.333,7.348 z m 1.298,-2.167 0.187,-0.473 h 4.609 l 0.187,0.473 z m 8.965008,2.211 q -0.715,0 -1.342,-0.209 -0.616,-0.209 -0.957,-0.528 l 0.253,-0.44 q 0.33,0.286 0.88,0.495 0.55,0.198 1.188,0.198 0.902,0 1.298,-0.297 0.396,-0.297 0.396,-0.781 0,-0.352 -0.209,-0.55 -0.198,-0.209 -0.539,-0.319 -0.341,-0.11 -0.748,-0.176 -0.407,-0.077 -0.814,-0.165 -0.407,-0.088 -0.748,-0.253 -0.341,-0.165 -0.55,-0.451 -0.198,-0.297 -0.198,-0.781 0,-0.44 0.242,-0.792 0.242,-0.352 0.726,-0.561 0.484,-0.22 1.21,-0.22 0.539,0 1.078,0.154 0.55,0.154 0.891,0.407 l -0.253,0.44 q -0.363,-0.275 -0.814,-0.396 -0.451,-0.121 -0.913,-0.121 -0.836,0 -1.232,0.308 -0.385,0.308 -0.385,0.77 0,0.363 0.198,0.583 0.209,0.209 0.55,0.33 0.341,0.11 0.748,0.187 0.407,0.066 0.814,0.154 0.407,0.088 0.748,0.253 0.341,0.154 0.539,0.44 0.209,0.275 0.209,0.748 0,0.473 -0.264,0.825 -0.253,0.352 -0.759,0.55 -0.506,0.198 -1.243,0.198 z"
     id="path545" /><path
     d="m 38.409,25.602001 q -0.715,0 -1.342,-0.209 -0.616,-0.209 -0.957,-0.528 l 0.253,-0.44 q 0.33,0.286 0.88,0.495 0.55,0.198 1.188,0.198 0.902,0 1.298,-0.297 0.396,-0.297 0.396,-0.781 0,-0.352 -0.209,-0.55 -0.198,-0.209 -0.539,-0.319 -0.341,-0.11 -0.748,-0.176 -0.407,-0.077 -0.814,-0.165 -0.407,-0.088 -0.748,-0.253 -0.341,-0.165 -0.55,-0.451 -0.198,-0.297 -0.198,-0.781 0,-0.44 0.242,-0.792 0.242,-0.352 0.726,-0.561 0.484,-0.22 1.21,-0.22 0.539,0 1.078,0.154 0.55,0.154 0.891,0.407 l -0.253,0.44 q -0.363,-0.275 -0.814,-0.396 -0.451,-0.121 -0.913,-0.121 -0.836,0 -1.232,0.308 -0.385,0.308 -0.385,0.77 0,0.363 0.198,0.583 0.209,0.209 0.55,0.33 0.341,0.11 0.748,0.187 0.407,0.066 0.814,0.154 0.407,0.088 0.748,0.253 0.341,0.154 0.539,0.44 0.209,0.275 0.209,0.748 0,0.473 -0.264,0.825 -0.253,0.352 -0.759,0.55 -0.506,0.198 -1.243,0.198 z m 6.138,0 q -0.869,0 -1.54,-0.374 -0.66,-0.374 -1.045,-1.034 -0.374,-0.66 -0.374,-1.507 0,-0.858 0.352,-1.507 0.363,-0.66 0.99,-1.034 0.627,-0.374 1.408,-0.374 0.781,0 1.397,0.363 0.627,0.363 0.979,1.023 0.363,0.649 0.363,1.507 0,0.033 -0.011,0.077 0,0.033 0,0.077 h -5.071 v -0.429 h 4.774 l -0.22,0.209 q 0.011,-0.671 -0.286,-1.199 -0.286,-0.539 -0.781,-0.836 -0.495,-0.308 -1.144,-0.308 -0.638,0 -1.144,0.308 -0.495,0.297 -0.781,0.836 -0.286,0.528 -0.286,1.21 v 0.099 q 0,0.704 0.308,1.254 0.319,0.539 0.869,0.847 0.55,0.297 1.254,0.297 0.55,0 1.023,-0.198 0.484,-0.198 0.814,-0.605 l 0.319,0.363 q -0.374,0.462 -0.946,0.704 -0.561,0.231 -1.221,0.231 z m 5.632,0 q -0.759,0 -1.166,-0.418 -0.396,-0.418 -0.396,-1.144 v -5.478 h 0.55 v 5.423 q 0,0.55 0.275,0.847 0.275,0.297 0.792,0.297 0.539,0 0.891,-0.319 l 0.231,0.385 q -0.22,0.209 -0.539,0.308 -0.308,0.099 -0.638,0.099 z m -2.618,-5.313 v -0.473 h 3.432 v 0.473 z"
     id="path546" /></g>
                    </g>
                </g>
            </g>
            
        
    <defs
   id="defs540">
        <linearGradient
   id="_Linear7"
   x1="0"
   y1="0"
   x2="1"
   y2="0"
   gradientUnits="userSpaceOnUse"
   gradientTransform="matrix(-16.1385,-21.6105,21.6105,-16.1385,60.9116,116.037)"><stop
     offset="0"
     style="stop-color:rgb(21,21,21);stop-opacity:1"
     id="stop517" /><stop
     offset="1"
     style="stop-color:rgb(38,38,38);stop-opacity:1"
     id="stop518" /></linearGradient>
        <linearGradient
   id="_Linear9"
   x1="0"
   y1="0"
   x2="1"
   y2="0"
   gradientUnits="userSpaceOnUse"
   gradientTransform="matrix(-16.1385,-21.6105,21.6105,-16.1385,60.9116,116.037)"><stop
     offset="0"
     style="stop-color:rgb(21,21,21);stop-opacity:1"
     id="stop519" /><stop
     offset="1"
     style="stop-color:rgb(38,38,38);stop-opacity:1"
     id="stop520" /></linearGradient>
        <linearGradient
   id="_Linear10"
   x1="0"
   y1="0"
   x2="1"
   y2="0"
   gradientUnits="userSpaceOnUse"
   gradientTransform="matrix(-16.1385,-21.6105,21.6105,-16.1385,60.9116,116.037)"><stop
     offset="0"
     style="stop-color:rgb(21,21,21);stop-opacity:1"
     id="stop521" /><stop
     offset="1"
     style="stop-color:rgb(38,38,38);stop-opacity:1"
     id="stop522" /></linearGradient>
        <linearGradient
   id="_Linear11"
   x1="0"
   y1="0"
   x2="1"
   y2="0"
   gradientUnits="userSpaceOnUse"
   gradientTransform="matrix(-16.1385,-21.6105,21.6105,-16.1385,60.9116,116.037)"><stop
     offset="0"
     style="stop-color:rgb(21,21,21);stop-opacity:1"
     id="stop523" /><stop
     offset="1"
     style="stop-color:rgb(38,38,38);stop-opacity:1"
     id="stop524" /></linearGradient>
        <linearGradient
   id="_Linear12"
   x1="0"
   y1="0"
   x2="1"
   y2="0"
   gradientUnits="userSpaceOnUse"
   gradientTransform="matrix(-16.1385,-21.6105,21.6105,-16.1385,60.9116,116.037)"><stop
     offset="0"
     style="stop-color:rgb(21,21,21);stop-opacity:1"
     id="stop525" /><stop
     offset="1"
     style="stop-color:rgb(38,38,38);stop-opacity:1"
     id="stop526" /></linearGradient>
        <linearGradient
   id="_Linear13"
   x1="0"
   y1="0"
   x2="1"
   y2="0"
   gradientUnits="userSpaceOnUse"
   gradientTransform="matrix(-16.1385,-21.6105,21.6105,-16.1385,60.9116,116.037)"><stop
     offset="0"
     style="stop-color:rgb(21,21,21);stop-opacity:1"
     id="stop527" /><stop
     offset="1"
     style="stop-color:rgb(38,38,38);stop-opacity:1"
     id="stop528" /></linearGradient>
        <linearGradient
   id="_Linear14"
   x1="0"
   y1="0"
   x2="1"
   y2="0"
   gradientUnits="userSpaceOnUse"
   gradientTransform="matrix(-16.1385,-21.6105,21.6105,-16.1385,60.9116,116.037)"><stop
     offset="0"
     style="stop-color:rgb(21,21,21);stop-opacity:1"
     id="stop529" /><stop
     offset="1"
     style="stop-color:rgb(38,38,38);stop-opacity:1"
     id="stop530" /></linearGradient>
        <linearGradient
   id="_Linear15"
   x1="0"
   y1="0"
   x2="1"
   y2="0"
   gradientUnits="userSpaceOnUse"
   gradientTransform="matrix(-16.1385,-21.6105,21.6105,-16.1385,60.9116,116.037)"><stop
     offset="0"
     style="stop-color:rgb(21,21,21);stop-opacity:1"
     id="stop531" /><stop
     offset="1"
     style="stop-color:rgb(38,38,38);stop-opacity:1"
     id="stop532" /></linearGradient>
        <linearGradient
   id="_Linear16"
   x1="0"
   y1="0"
   x2="1"
   y2="0"
   gradientUnits="userSpaceOnUse"
   gradientTransform="matrix(-16.1385,-21.6105,21.6105,-16.1385,60.9116,116.037)"><stop
     offset="0"
     style="stop-color:rgb(21,21,21);stop-opacity:1"
     id="stop533" /><stop
     offset="1"
     style="stop-color:rgb(38,38,38);stop-opacity:1"
     id="stop534" /></linearGradient>
        <linearGradient
   id="_Linear17"
   x1="0"
   y1="0"
   x2="1"
   y2="0"
   gradientUnits="userSpaceOnUse"
   gradientTransform="matrix(-16.1385,-21.6105,21.6105,-16.1385,60.9116,116.037)"><stop
     offset="0"
     style="stop-color:rgb(21,21,21);stop-opacity:1"
     id="stop535" /><stop
     offset="1"
     style="stop-color:rgb(38,38,38);stop-opacity:1"
     id="stop536" /></linearGradient>
        <linearGradient
   id="_Linear18"
   x1="0"
   y1="0"
   x2="1"
   y2="0"
   gradientUnits="userSpaceOnUse"
   gradientTransform="matrix(-16.1385,-21.6105,21.6105,-16.1385,60.9116,116.037)"><stop
     offset="0"
     style="stop-color:rgb(21,21,21);stop-opacity:1"
     id="stop537" /><stop
     offset="1"
     style="stop-color:rgb(38,38,38);stop-opacity:1"
     id="stop538" /></linearGradient>
        <linearGradient
   id="_Linear19"
   x1="0"
   y1="0"
   x2="1"
   y2="0"
   gradientUnits="userSpaceOnUse"
   gradientTransform="matrix(-16.1385,-21.6105,21.6105,-16.1385,60.9116,116.037)"><stop
     offset="0"
     style="stop-color:rgb(21,21,21);stop-opacity:1"
     id="stop539" /><stop
     offset="1"
     style="stop-color:rgb(38,38,38);stop-opacity:1"
     id="stop540" /></linearGradient>
    
        
        
        
    
            
            
            
            
            
        <clipPath
   clipPathUnits="userSpaceOnUse"
   id="clipPath540"><g
     id="g541"
     transform="matrix(0.12000005,0,0,0.12000005,243.92301,52.465201)"><rect
       x="0"
       y="0"
       width="1192.9161"
       height="3035.4321"
       id="rect540"
       style="stroke-width:8.33333" /></g></clipPath><clipPath
   clipPathUnits="userSpaceOnUse"
   id="clipPath541"><g
     id="g542"
     transform="translate(0,49.99998)"><rect
       x="0"
       y="0"
       width="1192.9161"
       height="3035.4321"
       id="rect541"
       style="stroke-width:8.33333" /></g></clipPath><clipPath
   clipPathUnits="userSpaceOnUse"
   id="clipPath542"><g
     id="g543"
     transform="translate(0,49.99998)"><rect
       x="0"
       y="0"
       width="1192.9161"
       height="3035.4321"
       id="rect542"
       style="stroke-width:8.33333" /></g></clipPath><clipPath
   clipPathUnits="userSpaceOnUse"
   id="clipPath543"><g
     id="g544"
     transform="scale(0.12000005)"><rect
       x="0"
       y="0"
       width="1192.9161"
       height="3035.4321"
       id="rect543"
       style="stroke-width:8.33333" /></g></clipPath><clipPath
   clipPathUnits="userSpaceOnUse"
   id="clipPath544"><g
     id="g545"
     transform="matrix(0.12000005,0,0,0.12000005,243.92301,52.465201)"><rect
       x="0"
       y="0"
       width="1192.9161"
       height="3035.4321"
       id="rect544"
       style="stroke-width:8.33333" /></g></clipPath></defs>
</svg>
